<svg width="74" height="66" viewBox="0 0 74 66" fill="none" xmlns="http://www.w3.org/2000/svg">
<path d="M6.99999 65.938H67C70.618 65.938 73.562 62.994 73.562 59.376V6.87596C73.562 3.25796 70.618 0.313965 67 0.313965H6.99999C3.38199 0.313965 0.437988 3.25796 0.437988 6.87596V59.376C0.437988 62.993 3.38199 65.938 6.99999 65.938ZM6.99999 2.18796H67C69.585 2.18796 71.688 4.28996 71.688 6.87596V11.564H2.31199V6.87596C2.31199 4.28996 4.41499 2.18796 6.99999 2.18796ZM2.31199 13.438H71.687V59.376C71.687 61.961 69.585 64.064 66.999 64.064H6.99999C4.41499 64.064 2.31199 61.962 2.31199 59.376V13.438V13.438Z" fill="black"/>
<path d="M8.875 8.75C9.91053 8.75 10.75 7.91053 10.75 6.875C10.75 5.83947 9.91053 5 8.875 5C7.83947 5 7 5.83947 7 6.875C7 7.91053 7.83947 8.75 8.875 8.75Z" fill="black"/>
<path d="M16.375 8.75C17.4105 8.75 18.25 7.91053 18.25 6.875C18.25 5.83947 17.4105 5 16.375 5C15.3395 5 14.5 5.83947 14.5 6.875C14.5 7.91053 15.3395 8.75 16.375 8.75Z" fill="black"/>
<path d="M23.875 8.75C24.9105 8.75 25.75 7.91053 25.75 6.875C25.75 5.83947 24.9105 5 23.875 5C22.8395 5 22 5.83947 22 6.875C22 7.91053 22.8395 8.75 23.875 8.75Z" fill="black"/>
<path d="M27.625 44.374C28.6605 44.374 29.5 43.115 29.5 41.562C29.5 40.009 28.6605 38.75 27.625 38.75C26.5895 38.75 25.75 40.009 25.75 41.562C25.75 43.115 26.5895 44.374 27.625 44.374Z" fill="black"/>
<path d="M46.375 44.374C47.4105 44.374 48.25 43.115 48.25 41.562C48.25 40.009 47.4105 38.75 46.375 38.75C45.3395 38.75 44.5 40.009 44.5 41.562C44.5 43.115 45.3395 44.374 46.375 44.374Z" fill="black"/>
<path d="M30.7521 55.625H43.2511C43.6411 55.625 44.0071 55.351 44.2461 54.885C44.4841 54.418 44.5591 53.812 44.4541 53.248C44.4031 52.963 43.0881 46.25 37.0001 46.25C30.9141 46.25 29.5991 52.963 29.5481 53.248C29.4421 53.812 29.5191 54.418 29.7561 54.885C29.9911 55.351 30.3601 55.625 30.7521 55.625Z" fill="black"/>
</svg>
