<svg xmlns="http://www.w3.org/2000/svg" viewBox="0 0 277.98 36.05"><defs><style>.cls-1{fill:#231f20;}.cls-2{fill:#c00;}.cls-3{fill:#fff;}</style></defs><title>NC State University Libraries Logo</title><g id="libraries-logo"><path class="cls-1" d="M127.25,38.31c0,2.13,0,5.18,3.34,5.18s3.34-3.05,3.34-5.18V28h1.46V39.37c0,4.23-2.23,5.34-4.8,5.34s-4.79-1.11-4.79-5.34V28h1.45Z" transform="translate(-4.5 -17.97)"></path><path class="cls-1" d="M139.72,44.4h-1.36V32.92h1.36v1.41h.05a3.33,3.33,0,0,1,2.77-1.64c2.84,0,3.13,2.12,3.13,3.62V44.4h-1.36v-8c0-1.35-.52-2.59-2.11-2.59-1.23,0-2.48.84-2.48,3.4Z" transform="translate(-4.5 -17.97)"></path><path class="cls-1" d="M148.53,29.72V28h1.68v1.73Zm.16,14.68V32.92h1.37V44.4Z" transform="translate(-4.5 -17.97)"></path><path class="cls-1" d="M156.48,42.67h.05l2.79-9.75h1.32L157.23,44.4h-1.56l-3.41-11.48h1.48Z" transform="translate(-4.5 -17.97)"></path><path class="cls-1" d="M163.43,38.94v.89c0,1.59.44,3.7,2.59,3.7a2.35,2.35,0,0,0,2.53-2.63H170c-.16,2.77-1.66,3.72-4,3.72-2,0-4-.79-4-4.27V37.53c0-3.31,1.39-4.84,4-4.84,4,0,4,2.84,4,6.25Zm5.18-1.09c0-2.54-.4-4.06-2.59-4.06s-2.59,1.52-2.59,4.06Z" transform="translate(-4.5 -17.97)"></path><path class="cls-1" d="M173.91,34.47h0a3.49,3.49,0,0,1,3.16-1.78v1.39a2.74,2.74,0,0,0-3.2,2.93V44.4h-1.37V32.92h1.37Z" transform="translate(-4.5 -17.97)"></path><path class="cls-1" d="M182.13,44.62c-2.48,0-3.46-1.2-3.43-3.63h1.38c0,1.56.37,2.61,2.12,2.61a1.78,1.78,0,0,0,2-2c0-3-5.16-2.23-5.16-6,0-2.12,1.46-2.87,3.46-2.87,2.27,0,3,1.57,3,3.32h-1.34c-.07-1.45-.46-2.22-2-2.22a1.63,1.63,0,0,0-1.75,1.65c0,2.87,5.15,2.09,5.15,5.93C185.51,43.53,184.26,44.62,182.13,44.62Z" transform="translate(-4.5 -17.97)"></path><path class="cls-1" d="M188,29.72V28h1.68v1.73Zm.16,14.68V32.92h1.36V44.4Z" transform="translate(-4.5 -17.97)"></path><path class="cls-1" d="M191.8,34V32.92h1.84V30.56L195,30v3h2.31V34H195v7.36c0,1.53.16,1.89,1.25,1.89a6.16,6.16,0,0,0,1.06-.07v1.18a10.8,10.8,0,0,1-1.29.07c-1.84,0-2.39-.82-2.39-2.23V34Z" transform="translate(-4.5 -17.97)"></path><path class="cls-1" d="M202.46,44.42l-3.64-11.5h1.48l2.79,9.41h0l2.7-9.41h1.37l-4.75,15.82h-1.34Z" transform="translate(-4.5 -17.97)"></path><path class="cls-1" d="M214,44.4V28h1.45V43.17h5.43V44.4Z" transform="translate(-4.5 -17.97)"></path><path class="cls-1" d="M223.19,29.72V28h1.69v1.73Zm.16,14.68V32.92h1.37V44.4Z" transform="translate(-4.5 -17.97)"></path><path class="cls-1" d="M227.65,44.4a7.37,7.37,0,0,0,.13-1.14V28h1.37v6.23l0,0a3.16,3.16,0,0,1,2.91-1.57c3.73,0,3.43,3.91,3.43,6,0,2.52-.2,6-3.54,6A3,3,0,0,1,229.1,43h0V44.4Zm3.93-.87c2.52,0,2.59-2.16,2.59-4.84s-.07-4.9-2.59-4.9c-2.21,0-2.48,3-2.48,4.7S229.1,43.53,231.58,43.53Z" transform="translate(-4.5 -17.97)"></path><path class="cls-1" d="M239.34,34.47h0a3.49,3.49,0,0,1,3.16-1.78v1.39A2.75,2.75,0,0,0,239.34,37V44.4H238V32.92h1.36Z" transform="translate(-4.5 -17.97)"></path><path class="cls-1" d="M250.43,43h-.05a3.67,3.67,0,0,1-3.25,1.63c-2,0-3.15-1.38-3.15-3.38,0-4,4-3.62,6.36-3.8v-.95c0-1.68-.5-2.7-2.32-2.7-1.25,0-2.25.61-2.25,2h-1.45c.11-2.2,1.81-3.07,3.81-3.07,1.16,0,3.57.12,3.57,3.05v5.77a24,24,0,0,0,.14,2.89h-1.41Zm-.09-4.46c-2,.07-4.91-.15-4.91,2.64a2.08,2.08,0,0,0,2.07,2.36,3,3,0,0,0,2.84-2.91Z" transform="translate(-4.5 -17.97)"></path><path class="cls-1" d="M256,34.47h0a3.48,3.48,0,0,1,3.15-1.78v1.39A2.74,2.74,0,0,0,256,37V44.4h-1.36V32.92H256Z" transform="translate(-4.5 -17.97)"></path><path class="cls-1" d="M261.26,29.72V28h1.68v1.73Zm.16,14.68V32.92h1.36V44.4Z" transform="translate(-4.5 -17.97)"></path><path class="cls-1" d="M266.87,38.94v.89c0,1.59.43,3.7,2.59,3.7A2.34,2.34,0,0,0,272,40.9h1.44c-.16,2.77-1.66,3.72-4,3.72-2,0-3.95-.79-3.95-4.27V37.53c0-3.31,1.39-4.84,3.95-4.84,4,0,4,2.84,4,6.25Zm5.18-1.09c0-2.54-.41-4.06-2.59-4.06s-2.59,1.52-2.59,4.06Z" transform="translate(-4.5 -17.97)"></path><path class="cls-1" d="M279.09,44.62c-2.47,0-3.45-1.2-3.43-3.63h1.39c0,1.56.36,2.61,2.11,2.61a1.78,1.78,0,0,0,1.95-2c0-3-5.15-2.23-5.15-6,0-2.12,1.45-2.87,3.45-2.87,2.27,0,3,1.57,3,3.32h-1.34c-.07-1.45-.45-2.22-2-2.22a1.63,1.63,0,0,0-1.75,1.65c0,2.87,5.16,2.09,5.16,5.93C282.48,43.53,281.23,44.62,279.09,44.62Z" transform="translate(-4.5 -17.97)"></path><rect class="cls-2" width="114.1" height="36.05"></rect><polygon class="cls-3" points="12.75 26.21 12.75 9.85 17.37 9.85 21.73 21.18 21.77 21.18 21.77 9.85 24.96 9.85 24.96 26.21 20.46 26.21 15.99 14.25 15.95 14.25 15.95 26.21 12.75 26.21"></polygon><path class="cls-3" d="M32.19,36c0-4.33,0-8.46,5.64-8.46,3.5,0,4.9,1.93,4.76,5.44H39.24c0-2.18-.38-3-1.41-3-1.92,0-2.17,1.81-2.17,6s.25,6,2.17,6c1.59,0,1.52-2,1.57-3.33h3.38c0,4.37-1.75,5.78-5,5.78-5.64,0-5.64-4.18-5.64-8.45" transform="translate(-4.5 -17.97)"></path><path class="cls-3" d="M54.43,44.46c-4.25,0-5-2.5-4.86-5.33H53c0,1.56.06,2.88,1.94,2.88a1.64,1.64,0,0,0,1.73-1.86c0-2.95-6.89-3.13-6.89-8,0-2.56,1.22-4.6,5.39-4.6,3.33,0,5,1.49,4.76,4.91H56.6C56.6,31.24,56.4,30,55,30a1.6,1.6,0,0,0-1.77,1.74c0,3.11,6.89,2.84,6.89,8,0,4.24-3.1,4.74-5.7,4.74" transform="translate(-4.5 -17.97)"></path><polygon class="cls-3" points="67.83 9.85 67.83 12.57 64.02 12.57 64.02 26.21 60.6 26.21 60.6 12.57 56.79 12.57 56.79 9.85 67.83 9.85"></polygon><path class="cls-3" d="M71.3,44.18l4.54-16.36h4.5l4.44,16.36h-3.6l-.9-3.62H75.61l-.93,3.62ZM77.9,31h-.05l-1.56,7.08h3.26Z" transform="translate(-4.5 -17.97)"></path><polygon class="cls-3" points="90.26 9.85 90.26 12.57 86.45 12.57 86.45 26.21 83.03 26.21 83.03 12.57 79.23 12.57 79.23 9.85 90.26 9.85"></polygon><polygon class="cls-3" points="91.86 26.21 91.86 9.85 100.78 9.85 100.78 12.36 95.27 12.36 95.27 16.4 100.35 16.4 100.35 18.91 95.27 18.91 95.27 23.7 100.96 23.7 100.96 26.21 91.86 26.21"></polygon></g></svg>