<svg xmlns="http://www.w3.org/2000/svg" viewBox="0 0 220 56" class="tiu-logo__mark"><title>Tilburg University</title>

<!-- <symbol xmlns="http://www.w3.org/2000/svg" id="tiu-logo" viewBox="0 0 220 56"> -->
<g fill="none" fill-rule="evenodd">
<path fill="#036" d="M108.408 38.776c.052-.006.124-.037.173 0 .042.039.01.073 0 .119-.02.043-.06.063-.068.103a.185.185 0 0 1-.097.124.43.43 0 0 0-.184.169c-.045.076-.194.162-.235.244-.047.08-.144.103-.204.123-.06.024-.089.044-.176.044-.092 0-.198-.102-.259-.11-.063-.007-.184-.035-.356.008-.166.043-.562-.033-.627-.009-.068.032-.11.062-.147.032-.038-.032-.118-.038-.195-.008-.07.028-.316-.008-.39 0-.073.008-.058-.072-.093 0-.039.074-.172.2-.244.323-.075.128-.196.157-.238.259-.044.106-.163.17-.198.185-.038.013-.06.013-.132.09-.075.07-.194.12-.272.197-.073.073-.152.182-.24.243-.093.06-.298.192-.4.286-.105.097-.21.16-.283.231-.074.065-.274.146-.346.189-.074.044-.237.124-.308.177-.079.053-.362.221-.447.274-.08.05-.365.16-.49.268-.118.112-.394.148-.5.216-.106.064-.717.16-.77.17-.049.008-.08-.016-.155-.024-.074-.006-.112.053-.222.11-.113.057-.155.103-.297.11-.14.007-.382.066-.51.089-.124.023-.113-.023-.146-.023-.03 0-.11.046-.199.059-.088.017-.336.067-.414.08-.082.02-.925.092-.976.1-.051.004-.138-.034-.205.022a.802.802 0 0 1-.185.109c-.071.027-.275-.03-.338-.038-.07-.007-.306.016-.366.009a3.705 3.705 0 0 0-.328-.023c-.054 0-.061-.08-.115-.08-.055 0-.4-.021-.489-.04-.088-.01-.447-.034-.523-.058a5.595 5.595 0 0 0-.665-.103c-.06.009-.157-.043-.2-.066a1.727 1.727 0 0 0-.332-.057c-.044 0-.335-.006-.391-.055-.059-.04-.157-.098-.194-.085-.039.015-.405-.074-.523-.08-.119-.008-.665-.213-.747-.2-.082.015-.166-.07-.194-.116-.025-.043-.196-.097-.23-.105-.03-.005-.115-.043-.175-.034-.06.006-.253-.11-.333-.142-.081-.028-.05-.136-.088-.182-.035-.046-.222-.134-.29-.163-.066-.028-.273-.059-.273-.059l-.11-.127-.163-.071-.082-.146-.126-.084s-.16-.066-.243-.137c-.08-.076-.183-.14-.215-.14-.031 0-.08.026-.206-.045-.125-.077-.135-.18-.238-.29-.101-.11-.146-.172-.26-.335-.108-.164-.131-.261-.144-.291-.015-.028 0-.114-.106-.17-.1-.051-.176-.184-.235-.235-.058-.05 0-.108-.065-.09-.069.026-.09.026-.188.026s-.28-.015-.34-.008c-.056.008-.065-.024-.133.038-.065.056-.19-.025-.227-.074-.035-.055-.164-.032-.33-.036-.172-.01-.224.013-.335.048-.111.037-.14.074-.216.09-.073.014-.212-.074-.314.013-.107.086-.121 0-.195-.104-.072-.099-.147-.147-.31-.277-.162-.133-.176-.179-.308-.194-.136-.013-.118-.19-.118-.306.057-.089.195-.023.287-.023.088 0 .114 0 .204.043.088.045.155.03.273.037.119.008.127.059.157.046a.607.607 0 0 0 .13-.103c.024-.032.121-.052.178-.052.06 0 .238-.006.313-.03.073-.022.138 0 .236-.028.095-.029.267.052.327.07.057.028.072.028.146.06.074.037.151.008.151.008s.123.037.167.029c.044-.006.206-.02.243-.014.04.008.04.06.101.044.07-.016.145 0 .26-.03.12-.029.247-.006.34-.029.1-.022.17-.06.29-.103.116-.045.098.008.104.112.008.102-.045.05-.006.102.036.052.05.029.05.086 0 .062.021.04.067.1.044.056.082.064.111.155.026.083.093.188.17.298.072.112.19.191.302.332.111.14.067.102.097.205.028.109.007.075.118.158.11.08.205.19.288.271.08.084.297.31.331.353.038.046.159.082.29.161.133.085.806.503.85.509a.494.494 0 0 1 .193.1c.095.062.146.033.285.057.142.021.415.175.533.197.12.022.427.162.502.2.076.036.217.007.317 0 .094-.01.151.028.224.045.076.014.105.077.195.086.092.005.227.023.314.039.093.013.21.029.27.042.059.014.059.054.143.083.09.026.122-.029.182-.016.057.016.36.023.44.06.084.035.288.073.357.073.067 0 .184.008.263 0 .083-.01.488.036.538.057.037.021.122 0 .189-.014.068-.015.15-.03.25-.043.111-.017.661.019.753.036.088.015.288-.022.41-.074.117-.053.368-.09.53-.162.16-.076.598-.076.68-.066.08.008.08.015.175-.044.097-.057.29-.095.432-.14.14-.04.87-.14.948-.154.071-.014.16-.067.255-.09.098-.019.287-.11.377-.122.09-.017.566-.378.59-.408a.97.97 0 0 0 .15-.233c.047-.087.318-.217.42-.267.11-.053.52-.428.6-.493.081-.067.052.029.14.019.088-.006.177-.152.208-.22.03-.064.131-.22.199-.29.068-.076.17-.21.29-.314.12-.102.45-.565.51-.646.06-.077.126-.123.187-.105.054.028.032.055.094.06.058.008.067.017.141.03.075.015.089.021.162-.013.074-.037.103.034.138.006.039-.028.105 0 .172.014.064.014.193.008.32-.006.125-.014.378.014.498.014.13 0 .397 0 .48-.022.09-.023.314.014.412.039.093.021.211.013.284.005.074-.005.233-.036.256-.022.035.017.075.03.075.03s.083-.038.129-.038c.043 0 .202-.006.251-.014z"/>
<path fill="#036" d="M96.212 40.239c-.14.02-.328-.042-.386-.063-.054-.019-.155 0-.218-.006-.069-.007-.062-.053-.155-.07a.632.632 0 0 0-.232-.005c-.066.016-.081.038-.154-.03-.075-.067-.163-.057-.26-.03-.097.03-.155-.005-.265 0-.112.007-.273.038-.317-.014-.046-.05-.052.021-.119-.082-.067-.1-.132-.087-.223-.095-.092-.006-.012-.034-.1-.06-.09-.02-.114.032-.205-.037-.086-.065-.13-.078-.159-.146-.034-.066-.009-.092-.158-.138-.143-.044-.155-.062-.233-.096-.079-.037-.091-.024-.136-.11-.046-.09-.023-.082-.14-.19-.12-.115-.028-.12-.17-.178-.138-.06-.118-.1-.176-.127-.058-.029-.194-.061-.278-.023-.08.037-.086.09-.196.037-.113-.049-.177-.066-.264-.049-.091.012-.068.035-.247.006-.175-.032-.201.037-.258-.052-.056-.086-.177-.023-.168.03a.69.69 0 0 0 .198.214c.075.051.132.063.176.141.047.073.217.306.313.353.094.044.197.16.286.25.088.089.334.365.422.388.085.022.28.229.395.25.107.025.507.31.585.31.085 0 .165.021.264.046.094.018.204.145.27.16.07.015.321.11.43.118.114.006.31.058.364.083.047.019.117.089.184.072.066-.014.185.095.287.075.105-.022.221.02.323.027.109.007.365.082.448.103.082.024.168.083.242.045.073-.036.153 0 .308-.008.155-.004.342.008.448.008.104 0 .17.01.25-.012.078-.024.158-.062.21-.071.06-.004.035.062.075.071.045.004.307.08.46.022.156-.061.276-.097.31-.122a.278.278 0 0 1 .15-.036.34.34 0 0 0 .192-.04c.079-.045.265-.081.34-.087a.578.578 0 0 0 .174-.056c.046-.023.1-.036.15-.06.053-.022.193-.042.312-.098.116-.05.22-.092.292-.144.075-.05.12-.037.17-.05a.911.911 0 0 0 .14-.076s.152.044.217.03c.066-.016.052-.016.172-.08.116-.065.16-.103.197-.112.037-.006.171-.132.257-.167a.431.431 0 0 0 .11-.052l.144-.083c.044-.023.032-.028.14-.08.112-.052.158-.035.245-.08.089-.046.164-.06.27-.125.115-.067.261-.091.353-.156.083-.067.124-.125.144-.067.023.062.016.132.104.1.09-.038.155-.038.225-.137.064-.095.087-.154.121-.211.042-.061.109-.061.15-.089a.148.148 0 0 0 .073-.103c.01-.046.047-.083.087-.14.048-.059.096-.097.105-.168.005-.077-.015-.113-.05-.113-.039 0-.075.03-.105.05-.027.024-.02.024-.064-.006-.046-.028-.087-.036-.15-.008a.767.767 0 0 1-.229.066c-.09.016-.093.051-.148 0-.049-.052-.126.011-.126.011s-.059.012-.085-.03c-.035-.047-.193-.053-.24-.022-.045.028-.172.074-.23.102-.057.03-.3.123-.405.131-.104.01-.206.097-.309.133-.105.035-.32.097-.372.162-.052.07-.052.081-.177.133-.127.053-.225.125-.312.177-.089.05-.03.088-.14.036-.111-.05-.179-.154-.453.025-.272.176-.33.212-.375.238a.1.1 0 0 1-.13-.006c-.024-.029-.072.01-.145-.003-.073-.015-.073.094-.164.08-.088-.014-.143-.032-.271 0-.125.032-.309.088-.396.153-.087.063-.306.006-.361.052-.045.044-.24.104-.288.08a.444.444 0 0 0-.254.006c-.104.03-.28.03-.406.03-.125 0-.163-.006-.258 0-.099.01-.069.03-.185-.058-.12-.09-.098-.058-.237-.047M85.598 37.61c.058.015.13-.058.195-.04.065.013.107.008.256.022.144.018.397-.032.463-.009.068.027.077.05.157.092.083.04.09-.05.176-.033.093.013.18.01.27-.017.094-.025.116-.033.18-.042.068-.005.236-.064.264-.005.024.051.073.022.13.054.058.036.086.02.129-.015.04-.034.22-.007.305-.025.08-.014.236-.057.31-.022.073.03.083.03.122.072.04.04.105.013.155-.01.05-.022.09-.022.156-.015.065.008.153-.034.261-.039.105-.008.449-.033.52.014.076.05.1.05.214.04.115-.007.514-.049.573-.022.058.022.063.096.173.09.103-.012.832-.1.897-.058.065.04.025.057.113.057.089 0 .145 0 .23.025.08.022.294-.082.417-.124.12-.04.098-.022.138-.048.044-.023.05-.05.05-.136 0-.093.032-.082.063-.15.033-.064.056-.081.067-.144.009-.067.038-.116.065-.188.025-.075.04-.051.125-.145.078-.1-.044-.197-.116-.173-.074.024-.118.043-.213.074-.096.035-.25 0-.341-.01a1.024 1.024 0 0 0-.34.045c-.105.032-1.012-.027-1.061-.01-.049.015-.039.035-.089.074-.049.04-.103-.019-.128-.075-.025-.055-.215-.01-.32.049-.108.056-.244.026-.328.033-.084.006-.084.04-.084-.046 0-.09-.029-.12-.076-.256-.05-.139-.019-.173-.01-.262.01-.088.016-.097 0-.203-.018-.105-.026-.184-.064-.251a.183.183 0 0 1-.009-.183c.024-.06.024-.126.024-.242 0-.11-.05-.088-.074-.152-.025-.066-.039-.107-.063-.148-.03-.041-.034-.129.032-.21.064-.084.049-.236.014-.31-.034-.076-.075-.146-.104-.237-.033-.09-.046-.146.009-.228.05-.081.004-.104.05-.21.037-.106.051-.084.072-.147.015-.066.008-.076.049-.108a.947.947 0 0 0 .138-.134c.046-.068.08-.148.147-.166.065-.014.096-.097.194-.053.102.039.411-.044.476-.033.065.007.095-.034.137-.052.04-.015.073-.097.163-.09.09.01.18-.113.195-.159.017-.052.117-.14.247-.272.132-.128.07.059.041.137-.032.083.019.095.019.175 0 .081-.028.227-.019.294.01.062.01.177.019.258.003.081-.108.047-.166.047-.058 0-.111-.05-.183-.019-.074.034-.086.06-.13.126-.04.067-.016.145 0 .141.073-.016.052.038.036.113-.016.07.009.145.066.21.056.067.097.02.178.009.08-.009.09-.02.18-.009.09.009.03.024.04.09.008.065-.055.048-.055.105 0 .056.006.097.063.146.058.05.237.098.318.076.083-.026.056-.125.083-.184.025-.052.059-.118.05-.209-.007-.089.015-.146-.017-.244-.033-.098.01-.303.01-.382 0-.083-.026-.221-.026-.286 0-.062-.009-.153.048-.211.06-.058-.006-.105-.015-.163-.007-.057.023-.089.023-.155 0-.065-.008-.21-.014-.31a.341.341 0 0 1 .055-.249c.057-.083.01-.141-.016-.19-.025-.047 0-.104.016-.204.015-.091-.016-.2 0-.3.015-.098 0-.236-.009-.29-.008-.058-.04-.109-.025-.158.017-.047.083-.064.1-.096.018-.033.08-.033.115-.043.068-.013.062-.09.142-.146.082-.058.068-.116.068-.19 0-.073.033-.286.015-.376a.267.267 0 0 0-.097-.173c-.039-.033-.132-.037-.193-.043-.07-.007-.091.001-.132-.053-.04-.059-.065-.059-.108-.027-.04.034-.083.012-.128-.012-.042-.023-.032-.026-.115-.065-.08-.042-.167.003-.215.032-.048.021-.032.021-.103.052a4.549 4.549 0 0 0-.223.114c-.09.046-.162.136-.143.19.012.058.014.113-.025.153-.044.042.006.092.006.092s-.006.094.033.112c.043.015.05.083.043.14-.009.058-.019.063.044.18.067.112.09.063.133.071.041.008.083.08.181.105.095.024.13.043.237.024.105-.015.03.05-.016.075-.05.027-.042.032-.057.124-.016.088-.016.064.008.142.023.085.057.066.014.126-.038.054 0 .06-.022.153-.026.087.015.112-.01.155-.023.04-.059-.011-.105.022-.049.034-.094.125-.13.147-.043.026-.149.026-.19.091-.043.066-.096.107-.13.179-.033.074-.138.08-.236.08-.098 0-.107.007-.18.041-.075.033-.22.064-.31.109-.09.038-.14-.01-.17-.067-.034-.06.006-.109-.05-.195-.06-.091-.091-.066-.15-.048-.057.015-.072.015-.113 0-.04-.018-.09-.107-.153-.06-.067.048-.092.04-.238.054-.148.017-.231-.11-.303-.264a1.021 1.021 0 0 0-.303-.363 3.032 3.032 0 0 0-.267-.176c-.09-.048.025-.17.061-.223.045-.062.092-.11.125-.203.033-.086.066-.167.047-.272-.014-.104-.034-.096-.022-.158.008-.052.04-.052.08-.1.012-.02-.008-.079-.02-.138-.005-.024-.06-.05-.02-.116.04-.069.033-.098 0-.165-.032-.065-.018-.08.01-.131.023-.045-.018-.172-.042-.193-.025-.024-.088-.039-.121-.075-.037-.03-.073-.08-.132-.098-.056-.014-.097-.014-.156-.056-.057-.042 0-.073-.057-.12-.057-.05-.099-.097-.161-.091-.068.007-.296.083-.379.083-.081 0-.319.12-.418.195-.099.074-.184.274-.202.4a6.15 6.15 0 0 0-.04.366c-.008.104.032.11.064.2.032.093.06.1.123.139.066.04.048.067.042.129-.006.066-.006.093-.034.142-.026.049-.08.049-.13.076-.047.035-.083-.017-.166.02-.08.03-.095.072-.12.139-.025.066.034.049.054.09.028.04-.07.034-.124.07-.06.04-.166.172-.209.232-.037.054-.09.127-.105.26-.014.132-.048.104-.148.176-.099.074-.057.1-.105.156-.048.057-.067.114-.09.155-.022.04-.04.103-.08.163-.043.057-.065.137-.107.172-.042.03-.032.12-.023.183.005.069.065.036.07.1.005.064-.022.026-.065.017-.042-.01 0 .071.018.146.017.072.047.072.096.139.05.064.04.079.04.138 0 .057.058.08.115.162.058.084.284.352.303.429.023.076-.019.259-.035.356-.023.096-.042.265-.074.397-.027.132-.077.519-.132.632a.884.884 0 0 0-.055.499c.027.132-.065.532-.087.73-.017.195-.039.154.177.29a.735.735 0 0 0-.296-.016c-.112.016-.28-.036-.379-.013-.098.018-.228-.124-.304-.085-.081.038-.252.025-.41-.017-.155-.036-.372-.076-.372-.076l-.2.112s-.072-.058-.152-.115c-.078-.062-.117.07-.08.229.038.155.407.384.483.725.13-.025.333 0 .423.018a.59.59 0 0 0 .267-.026c.075-.023.272-.043.296-.007.027.033.107.047.163.065m5.847-7.026c-.066.028-.105.024-.166-.01-.028-.035-.079-.056-.059-.085.027-.031.058-.043-.002-.072-.043-.024-.032-.066-.007-.104.062-.086.053-.071.097-.071.046 0 .046.017.102.017a.456.456 0 0 0 .178-.035.25.25 0 0 1 .158.012c.06.043.047.108.098.089.043-.016.065.006.07.065.006.061 0 .07-.044.1-.038.028-.04.028-.118.054-.081.035-.05.038-.126.038-.081 0-.117-.028-.181.002m-3.972-.465c.01-.058.011-.05.042-.102.034-.048.055-.027.034-.092-.024-.064-.034-.072-.038-.117-.003-.048-.012-.054.014-.105.028-.048.039-.061.081-.052.05.008.09.023.161.018.078-.004.127.01.209-.018.081-.028.092-.018.119.031.028.05.067.055.08.102.01.045.004.077.049.098.045.017.062.064.085.087.017.02.04.059.017.087-.023.023-.014.032-.004.095.007.066.037.118.027.204-.01.085-.02.117-.012.186.002.066-.01.047-.08.11-.072.053-.066.128-.168.104a.583.583 0 0 1-.23-.102c-.078-.056-.087-.074-.119-.135-.03-.062-.044-.092-.076-.125-.032-.032 0-.046-.032-.08-.033-.038-.033-.044-.121-.083-.024-.053-.044-.053-.038-.11m-.936 2.573c.04-.066.052-.049.065-.12.017-.074-.006-.131.067-.118.072.02.031-.061.026-.076-.048-.105.013-.094.046-.148.058-.096.104-.06.148-.155.039-.097.065-.148.089-.212.026-.065.018-.071.107-.18.09-.109.114-.08.18-.168.066-.092.056-.1.07-.173.019-.071.141-.083.196-.116.06-.031.126 0 .126.09s-.058.082.023.172c.082.086.138.18.237.228.098.048.155.163.23.064.072-.098.108-.098.156-.128.047-.032.056.016.09.083.032.063.016.12.04.225.021.106.021.163.066.27.037.106.007.128.074.203.063.073.081.097.096.154.014.056.095.024.166.04.064.016.079.047.171.075.088.023.112-.059.146.039.031.098.056.134.008.237-.05.106-.125.137-.1.243.026.109.058.196.034.278-.024.083-.065.145-.095.211a.98.98 0 0 0-.063.366c.018.05.033.032-.005.154-.042.12-.016.352-.01.399.01.048 0 .075-.014.173-.018.097-.035.242-.018.375.018.129.187.477.167.565-.019.079-.044.104-.053.174-.01.072-.049.114-.03.184.02.065-.006.11.036.159.041.049.01.113.003.177-.003.07-.07.07-.003.179.067.105.152.218-.017.218-.168 0-.297-.025-.35-.034-.051-.011-.246 0-.324.016-.08.02-.096.055-.147.03-.059-.022-.365-.041-.494-.037-.122.007-.255-.062-.318-.009-.057.054-.102.111-.17.06-.064-.055-.1-.026-.14-.014-.041.018.003-.01-.053-.052-.063-.04-.222-.02-.273 0-.054.015-.05-.025-.061-.044.01-.09.047-.18.03-.256-.02-.07-.05-.105-.037-.25.007-.148-.028-.207.007-.288.03-.078.023-.16.023-.29 0-.131-.013-.23.05-.319.056-.09.072-.059.08-.146a.5.5 0 0 0-.024-.229c-.026-.056.008-.185.016-.267.008-.083.008-.108.038-.204.034-.099.012-.099.026-.194.018-.1.028-.076.133-.011.107.063.13.106.184.073.06-.028.166-.01.227.028.053.03.168.077.242.06.072-.013.083.017.154-.046.075-.065.148-.065.083-.13a.445.445 0 0 1-.132-.23c-.022-.096-.073-.114-.105-.243-.035-.13-.058-.195-.164-.205-.106-.008-.185.01-.244-.008-.061-.012-.068-.049-.124-.078-.054-.034-.092-.043-.161-.064-.075-.026-.068-.058-.15-.09-.08-.032-.105-.07-.18-.14-.072-.073-.106-.121-.122-.212-.013-.09 0-.17-.013-.21-.017-.041 0-.046.038-.108m1.359-14.444c.092.01.105.072.105.167 0 .092.039.125.132.105.095-.023.104.028.18.069.072.04.142.023.237 0 .093-.017.073-.03.113-.122.042-.094.095-.134.146-.219.053-.082.022-.184 0-.234-.022-.056-.042-.074-.042-.179 0-.104-.02-.063-.041-.145-.021-.082-.094-.114-.164-.165-.073-.052-.149-.071-.218-.04-.074.028-.22 0-.304.017-.084.023-.084.023-.135.084-.054.063-.035.104-.072.177-.041.072-.066.084-.071.185.005.093.017.034.04.149.018.11 0 .144.094.151"/>
<path fill="#036" d="M84.311 22.081c.083.084.18.254.254.31.073.06.108.051.16.133.054.082.118.112.221.171.103.059.29.213.356.306.067.099.088.136.147.19.061.063.373.174.48.255.112.08.215.117.32.168.102.052.31.052.36.105a.26.26 0 0 0 .237.05c.087-.022.079-.01.176.012.097.025.46.065.564.075.103.009.273.045.341.009.064-.037.123.014.192.073.065.06.214.03.304.007.087-.022.132.037.241.008.113-.03.385.024.482 0 .095-.024.117-.068.22-.057.106.005.357-.15.409-.23.052-.082.11-.058.167-.117.061-.058.217-.058.314-.072.093-.015.279-.085.344-.112.069-.031.202-.111.266-.097.068.014.416-.154.496-.176.082-.023.267.1.328.156.058.052.066.101.124.13.057.032.147-.029.235.06.09.087.591.273.645.287.052.016.064 0 .152-.014.091-.015.076.014.143.088.064.073.117.086.18.146.056.06.172.127.225.193a.78.78 0 0 0 .216.164c.066.031.103.013.146.065.047.047.208.242.268.235.062-.007.082-.007.149.065.066.076.232.17.316.206.09.036.137.1.175.176.04.07.135.098.25.271.112.173.575.654.615.738.038.085.09.012.06.075-.025.058-.06.121-.121.281-.065.161-.077.15-.1.286-.025.134-.025.12-.123.11-.1-.013-.165-.125-.283-.163-.123-.033-.196-.134-.298-.207-.1-.075-.136-.135-.286-.121-.147.01-.196-.076-.32-.089-.12-.012-.382-.075-.468-.135a.688.688 0 0 0-.324-.1c-.125-.01-.223-.061-.294-.099-.078-.037-.226-.147-.313-.183-.088-.038-.17-.112-.285-.123-.108-.013-.12-.097-.181-.11-.065-.014-.137-.066-.212-.16-.072-.1-.12-.09-.2-.115-.074-.022-.158-.037-.236-.086-.07-.048-.144-.048-.23-.057-.089-.013-.1.034-.236.049-.138.008-.346-.124-.496-.074-.147.048-.554-.027-.728.034-.173.064-.343.097-.446.123-.096.026-.21-.011-.37.051-.161.06-.37.099-.468.122-.098.029-.115.047-.223.075-.112.024-.585.332-.705.443-.124.11-.3.123-.41.295-.11.173-.22.173-.296.27-.075.1-.164.114-.18.221-.027.114-.188.347-.153.447.035.096-.025.135-.06.257-.04.122-.134.124-.197.241-.124.233-.03.092.096.19.126.101.212.074.26.012.053-.06.284.062.396.09.112.022.1.095.244.17.15.073.169.022.283.012a.595.595 0 0 1 .326.043c.1.05.259.06.358.086.098.022.196.095.356.056.162-.037.201.024.347.085.153.06.198.012.321.025.122.014.224-.07.322-.038.1.038.209-.023.338 0 .12.025.132.064.242.038.113-.025.19-.086.299-.121.111-.036.557-.177.62-.187.06-.011.131.023.16-.049.025-.072.285-.21.344-.27.064-.064.259-.04.349-.161.085-.122.366-.284.455-.383.085-.098.592-.355.669-.393.074-.036.112-.11.134-.232.026-.126.271.048.373.11a.692.692 0 0 0 .246.098c.11.024.173-.012.25.074.071.084.32.22.393.284.077.06.196.135.271.22.076.087.323.147.323.147s.037-.134.084.086c.05.222.238.358.383.558.148.194.115.033.101.17-.017.135-.101.21-.084.441.013.237.013.245-.027.506-.035.257-.09.298-.05.458.038.158-.013.158-.04.292a8.068 8.068 0 0 0-.058.458c-.028.236-.054.184-.03.474.028.296.002.238-.058.437-.06.196-.072.491-.06.687.012.201 0 .285-.038.446-.039.16-.024.246-.039.393-.012.15-.012.346-.012.517 0 .176-.092.883-.046.985.045.1-.013.217-.072.364-.055.142-.115.175-.107.309.013.136-.003.14-.094.285-.088.143-.023.122-.035.287-.01.17-.045.137-.154.26-.113.128-.216.291-.228.414-.008.126.012.115-.102.191-.11.08-.073.167-.146.35-.066.18-.055.154-.12.277-.071.124-.026.192-.101.327-.081.131-.033.188-.027.346.014.157 0 .112-.052.236-.06.124-.06.066-.037.155.116.03.24-.03.332-.051.093-.019.074-.042.167-.013.09.033.207.033.297.04.099.015.264-.007.385 0 .127.015.068-.057.158-.15.092-.095.076-.17.155-.24.086-.074.04-.188.122-.362.086-.177.086-.249.11-.396.02-.144 0-.195.039-.352.043-.154.043-.134.093-.225.055-.093.045-.179.045-.302 0-.122 0-.227.057-.362.062-.135.041-.164.051-.31.01-.149-.042-.196-.018-.37.018-.18-.024-.16.074-.364.093-.21.106-.075.123-.196.021-.125 0-.157.009-.282.012-.123.044-.093.044-.195 0-.103-.053-.158-.07-.28-.024-.124-.024-.148 0-.199.017-.05.007-.162 0-.32-.013-.154-.024-.257 0-.366a.786.786 0 0 0 0-.275c-.024-.111-.024-.22-.024-.354v-.538c0-.143-.06-.084-.04-.205.018-.126.051-.105.027-.187-.02-.083 0-.157 0-.307 0-.158-.009-.187.054-.336.063-.146.053-.384.046-.527a1.393 1.393 0 0 1 0-.404c.017-.156.037-.197.045-.33.01-.136.012-.197.056-.279.04-.086.019-.167.073-.324.049-.153.019-.248.01-.371-.01-.126-.018-.175.039-.3.064-.122.036-.187.046-.29.008-.103-.036-.177-.095-.208-.065-.03-.092-.008-.092-.093 0-.082-.065-.156-.107-.227-.038-.072-.038-.144-.038-.28 0-.131-.024-.175-.046-.311-.018-.132-.031-.156 0-.258.033-.104.009-.142 0-.256-.011-.117.063-.096.072-.21.012-.113.064-.176.094-.28.031-.102.031-.205.063-.267.031-.063.062-.109.11-.231.065-.141.107-.265.065-.316-.04-.054.005-.055-.09-.263-.094-.205-.02-.279-.085-.424-.063-.145-.113-.237-.176-.394-.064-.155-.053-.247-.103-.352-.055-.103-.084-.412-.084-.412s.074-.045.053-.095c-.024-.05-.045-.154-.077-.217-.031-.061-.046-.137-.078-.238-.033-.1.032-.125-.033-.247a1.134 1.134 0 0 0-.196-.28c-.092-.106-.066-.126-.073-.23-.008-.1-.085-.153-.167-.226-.083-.071-.146-.228-.207-.289-.06-.063-.095-.076-.122-.208-.033-.134-.095-.176-.212-.257-.113-.086-.2-.252-.291-.334-.091-.08-.114-.1-.173-.238-.064-.133-.094-.207-.149-.309-.05-.103-.112-.228-.133-.303-.02-.07.038-.133.03-.301a.858.858 0 0 1 .032-.328c.021-.095.063-.167.043-.27-.022-.103-.043-.179-.043-.278 0-.105-.024-.21-.081-.248-.066-.043-.084-.103-.108-.179-.022-.07-.085-.14-.134-.24a1.18 1.18 0 0 0-.167-.243c-.061-.074-.051-.138-.133-.3-.082-.167-.024-.198-.078-.3-.049-.107-.068-.242-.163-.295-.093-.047-.217-.205-.333-.257-.117-.052-.136-.063-.195-.052-.062.012-.21-.113-.282-.174a2.245 2.245 0 0 0-.406-.25c-.104-.043-.333-.19-.439-.229-.102-.04-.342-.09-.414-.051-.072.042-.062.042-.122.09-.065.056-.179-.008-.262-.008-.084 0-.569-.017-.569-.017s-.078.017-.138.068c-.064.052-.113-.019-.279 0-.168.024-.19.024-.178.128.01.102.01.124.093.238.085.112.104.103.104.154 0 .051.083.122.133.197.054.072.063.116.077.258.008.146 0 .208.028.382.03.178.032.292.127.388.09.09.082.193.183.342.106.141.055.141.065.318.009.175.041.175.124.28.084.1.116.247.208.37.097.126.156.095.242.2.081.101.042.067.124.185.086.113.095.102.185.154.094.054.218.281.3.417.086.132.156.132.25.225.094.095.209.063.326.105.112.04.267.01.371.02.103.009.268.02.353.009.084-.01.23.02.331 0 .107-.02.18-.04.292-.02.117.02.366.386.408.467a.439.439 0 0 0 .22.185c.093.044.093.134.102.2.01.058.055.1.082.174.032.072.129.154.188.25.062.09.542.856.594.937.049.085.082.16.06.22-.021.062.022.101.071.209.058.102.046.143.083.215.043.074.073.126.064.21-.01.083.042.154.042.257 0 .103.024.145.061.279.043.137.084.715.095 1.034.011.323-.086.108-.175.064-.096-.042-.278-.238-.387-.277-.102-.044-.372-.283-.458-.334-.082-.054 0-.136-.072-.175-.07-.043-.257-.23-.392-.272-.135-.04-.478-.27-.572-.296-.096-.032-.269-.19-.322-.179-.056.012-.2-.04-.265-.102-.059-.064-.316-.198-.413-.262a4.94 4.94 0 0 0-.725-.276c-.104-.021-.097-.125-.097-.23 0-.103-.085-.217-.114-.298-.032-.084-.04-.103 0-.21.042-.102-.02-.142-.071-.224-.054-.08-.02-.116-.02-.21 0-.092-.075-.155-.156-.166-.086-.01-.321-.3-.46-.382-.136-.083-.519-.393-.653-.456-.135-.062-.489-.352-.583-.403-.092-.05-.792-.371-.901-.416-.116-.04-.177-.08-.344-.04-.167.04-.367-.03-.575-.071a1.41 1.41 0 0 0-.507-.012c-.178.02-.429-.04-.582-.02-.152.02-.405.073-.448.091-.038.023-.094.064-.146.097-.05.03-.167.058-.248.083-.083.02-.125-.083-.186-.056-.064.031-.268.082-.357.127-.09.044-.149.083-.243.096a.736.736 0 0 0-.304.115c-.126.075-.126.083-.214.088-.088.007-.164.069-.229.127a.27.27 0 0 1-.222.065c-.082-.008-.14.067-.2.132-.058.068-.198.083-.26.136-.057.048-.36.157-.458.248-.098.094-.027.116.009.22.034.107.081.016.171.087.089.074.183.155.27.225.09.063.16.152.203.248.043.096.145.141.222.2.07.058.138.137.22.218m7.71 4.663c-.265.17-.417.346-.482.346-.064 0-.199.043-.228.095-.03.052-.13.144-.22.215-.09.075-.407.27-.535.285-.124.016-.222.052-.307.08-.09.033-.129.07-.246.053-.118-.012-.363-.04-.46-.04-.095 0-.219-.07-.324-.077-.104-.008-.22-.03-.297-.025-.074.009-.059-.01-.169-.01-.11 0-.127.042-.243.01-.117-.027-.08-.027-.225-.046-.138-.025-.21-.01-.21-.01l-.053-.067s-.031-.034-.112-.022c-.08.015-.108.032-.185 0-.07-.03-.124.059-.167-.012-.046-.077-.024-.044-.09-.138-.064-.098-.126-.09-.088-.16.037-.065.084-.036.132-.11.053-.073.074-.123.053-.205-.025-.084-.03-.096.008-.142.036-.043.094 0 .146-.071.049-.073.088-.123.074-.163-.019-.037.044-.073.073-.118.031-.044.067-.044.119-.125.052-.08.098-.102.178-.184.08-.082.053-.103.133-.14.077-.038.09-.006.17-.067.08-.059.089.009.186-.059.095-.066.11-.013.218-.08.116-.066.174-.02.245-.067.074-.049.096-.011.26-.069.168-.062.288-.062.465-.07.181-.013.382-.06.478-.085.092-.024.413.059.552.059.147 0 .383.071.524.096.142.02.192.093.309.153.121.06.126.11.19.13.068.02-.005.09-.132.096-.126.008-.185 0-.28.061a.431.431 0 0 1-.34.035.387.387 0 0 0-.29.007 1.752 1.752 0 0 1-.42.075c-.102.007-.14 0-.26.042-.118.046-.162.062-.302.113-.14.05-.206.08-.302.104-.095.02-.114.079-.25.153-.141.075-.268.11-.385.19-.117.08-.104.126-.01.14.096.016.134.035.215-.005.082-.048.329-.055.39-.075.067-.023.129-.018.224-.068.095-.051.162-.028.302-.08.141-.05.253-.007.349-.045.096-.033.084-.043.23-.065.147-.022.161-.052.302-.035.14.013.215.048.335.043.113-.008.324.043.404.024.083-.024.24.033.348-.01.107-.044.265-.029 0 .14m1.722-8.173c-.057.013-.068.013-.065.11.008.089.008.127-.022.168a.352.352 0 0 0-.05.135s-.018.065.008.14c.025.077-.008.114.032.185.04.078.11.22 0 .147-.109-.076-.083-.061-.167-.127-.086-.07-.201-.128-.213-.204-.007-.076.018-.127-.064-.183-.085-.06-.085-.029-.165-.151-.077-.127-.204-.25-.28-.33a2.149 2.149 0 0 0-.288-.273c-.075-.046-.086-.076-.186-.11-.103-.03-.175 0-.227-.064-.048-.069-.066-.087-.194-.087-.129 0-.044.163.034.215.074.046.135.105.193.156.063.051.155.144.18.222.024.073.01.084.117.167.113.083.206.128.27.22.068.09.137.065.172.162.033.089.063.106.105.198.043.092.027.179.104.255.08.076.256.322.095.27-.1 0-.18.026-.333.017-.149-.009-.261.016-.344-.06-.088-.074-.296-.16-.38-.22-.085-.058-.323-.168-.359-.227-.03-.058-.185-.165-.251-.233-.067-.071-.103-.085-.16-.196a1.827 1.827 0 0 0-.162-.244c-.061-.076-.118-.12-.126-.244-.013-.127.058-.12-.051-.229-.11-.107-.238-.127-.248-.27-.01-.141.024-.175-.032-.26-.061-.086-.086-.113-.129-.254-.04-.145-.048-.16-.092-.301-.042-.144-.049-.178-.093-.27-.041-.093-.036-.055-.084-.261-.052-.214-.135-.238.034-.238.17 0 .252.024.386.043.137.014.435.057.518.11.085.05.133.142.28.156.143.02.312.095.502.135.185.048.172.054.26.119a.43.43 0 0 0 .251.112c.097.007.185.074.271.17a.867.867 0 0 1 .17.234c.059.102.138.17.195.202.058.034.13.134.163.214.03.076.092.224.16.243.068.015.078.116.128.194.05.075.113.192.15.199.033.009.033.12-.013.138m-9.289 2.691c.023-.124.073-.165.167-.26.092-.09.335-.121.405-.206.071-.082.187-.094.271-.185.085-.096.093-.115.24-.145.14-.032.329-.124.382-.157.051-.03.127-.063.232-.094.104-.03.26-.007.37-.06.115-.055.065.041.178.053a2.44 2.44 0 0 0 .56-.054c.177-.042.553-.061.647-.042.095.023.177.084.262.042.082-.042.195-.01.394.061.196.076.831.344 1.037.417.208.07.197.146.31.186.115.042.197.094.314.184.111.095 0 .147.103.227.106.086.073.125.209.249.134.127.144.242.175.365.03.122.156.27.021.174-.132-.093-.196-.164-.382-.185-.189-.019-.48-.135-.731-.176-.25-.043-.548-.083-.685-.145a4.812 4.812 0 0 0-.86-.238c-.167-.02-.299-.01-.425-.044-.138-.028-.16-.018-.314-.018-.158 0-.347.062-.438.082-.092.022-.246-.072-.29.031-.04.104-.074.187-.178.126-.102-.063-.249-.126-.206-.012.04.115.023.197.023.248 0 .054.142.064.225.042a1.26 1.26 0 0 1 .395-.031c.122.023.304.043.457-.02.157-.064.216 0 .364.033.147.03.23-.065.301.05.072.112.19.154.366.127.176-.034.352.027.488.078.133.052.384.148.538.179.157.028.397.149.54.206.147.06.252.218.366.197.114-.022.123-.01.25.03.125.04.31.114-.022.237-.329.125-.489.167-.58.218-.096.05-.293.144-.366.206-.072.063-.217 0-.384.015a1.804 1.804 0 0 0-.507.1c-.147.053-.346.074-.492.094-.145.02-.248.06-.364-.02-.112-.083-.58-.251-.777-.251-.197 0-.312-.07-.334-.101-.02-.031-.188-.094-.188-.094s-.155-.04-.195-.061c-.043-.024-.232-.095-.232-.095l-.165-.081s-.123-.114-.257-.207c-.136-.095-.106-.135-.222-.198-.11-.063-.153-.144-.258-.208-.104-.061-.23-.061-.208-.133.019-.074-.065-.173-.124-.185-.061-.011-.124-.011-.177-.073-.052-.063-.054-.124-.062-.197-.008-.073-.23-.135-.167-.28m15.873-6.096a.33.33 0 0 1 .203.211c.041.097.027.067.11.02.081-.044.104.01.193 0 .09-.006.124.057.237-.02.11-.072.076-.113.067-.204-.01-.09-.007-.105.037-.187.047-.082.032-.11.02-.212-.007-.098-.081-.11-.14-.194a.255.255 0 0 0-.17-.113c-.07-.013-.108-.046-.21-.046-.096 0-.157-.013-.254.039-.1.052-.122.076-.167.152-.043.073-.086.126-.086.224-.004.023-.019.052-.027.135-.006.084.077.15.187.195m5.8 3.388c.113.133.198.098.315.098.124 0 .092.045.132-.05.037-.101.061-.063.173-.114.111-.056.1-.07.111-.167.018-.098-.007-.15-.02-.249-.011-.095-.047-.11-.114-.17-.068-.06-.083-.053-.122-.122-.036-.067-.11-.045-.172-.09-.063-.045-.1-.045-.159-.009-.062.04-.1.049-.173.08-.074.029-.097.035-.089.094.004.06-.017.076-.063.15-.045.076-.05.067-.05.178.022.152.022.085.072.201.056.111.045.035.159.17"/>
<path fill="#036" d="M110.606 20.773c-.055-.107-.035-.186-.172-.194-.138-.01-.138 0-.227.04-.09.047-.102-.027-.192-.077-.087-.053-.162-.135-.27-.193a3.997 3.997 0 0 1-.456-.245c-.133-.089-.153-.098-.285-.073-.14.028-.162-.059-.248-.113-.09-.054-.205-.074-.308-.108-.095-.035-.24 0-.321-.051-.082-.057-.092-.064-.252-.012-.16.058-.326-.035-.484-.035-.158 0-.403.035-.544.013-.144-.03-.6.041-.733.034-.133-.012-.342.07-.49.125-.153.05-.101.06-.206.165-.107.109-.147.038-.271.063-.123.027-.028-.07-.154-.025-.14.045-.174.107-.254.167a.758.758 0 0 1-.273.147c-.141.044-.32.23-.43.38-.106.15-.098.126-.186.286-.09.16-.106.168-.18.314-.07.142-.087.194-.169.292-.08.099-.104.072-.217.17-.107.097-.06.071-.141.122a.302.302 0 0 1-.204.064c-.074 0-.1.072-.18.16-.08.087-.06.064-.151.135-.09.07-.09.045-.172.07-.08.027-.051.09-.145.153-.086.06-.131.078-.176.142-.039.064-.054-.017-.131.009-.083.026-.139.148-.186.231-.057.08-.103.052-.195.063-.09.008-.08.035-.132.135-.055.095-.064.077-.116.122-.054.048-.073.01-.199.063-.125.053-.16.09-.178.134-.016.046-.093.106-.203.169-.108.064-.2.16-.308.257-.107.1-.466.391-.6.571-.136.18-.178.108-.267.214-.09.105-.196.167-.332.357-.133.186-.137.17-.193.222-.124.125-.113.122-.257.283-.146.16-.097.144-.203.242-.111.098-.071.201-.243-.032-.056-.068-.059-.134-.115-.224-.05-.09-.107-.029-.107-.136 0-.106-.05-.15-.134-.284-.075-.134-.068-.088-.017-.186.057-.1.046-.09.158-.205.122-.117.163-.205.22-.323.054-.115.104-.205.18-.364.071-.162.085-.15.078-.276-.007-.125-.017-.134.072-.161.088-.026.172-.205.303-.302.135-.098.188-.224.251-.373a2.16 2.16 0 0 1 .256-.461c.12-.158.148-.175.268-.248.116-.072.24-.27.349-.356.106-.09.235-.127.312-.09.08.033.083.047.194.04.107-.008.113.007.158.088.047.079.164 0 .227-.06.06-.063.094-.074.257-.126.163-.05.137.046.216-.043.081-.09.197-.252.356-.342.162-.086.362-.364.448-.524.09-.16.423-.5.494-.604.07-.108.19-.206.327-.34.145-.134.182-.256.298-.499.117-.243.162-.287.214-.456.054-.168.023-.11.101-.27.082-.16.032-.232.014-.331a.992.992 0 0 1-.006-.298c.009-.125.043-.197.087-.302.047-.107.03-.153-.006-.213-.038-.063-.064-.128-.038-.216.031-.09-.026-.16-.06-.213-.036-.054 0-.116 0-.23 0-.12-.025-.147-.117-.244-.089-.1-.089-.07-.137-.17-.05-.098-.07-.177-.21-.27-.14-.09-.14.014-.267.122-.13.107-.147.097-.241.097-.088 0-.108.07-.256.139-.151.07-.17.101-.35.256-.18.162-.15.082-.278.143-.13.057-.146.038-.324.166-.183.13-.242.078-.462.248-.219.167-.287.128-.429.298-.136.165-.147.147-.176.297-.03.146 0 .04 0 .117 0 .079-.086.099-.16.258-.07.158-.096.089-.05.238.05.148-.065.068-.188.17-.057.051-.129.066-.161.265-.03.2-.07.138-.11.317-.035.179 0 .095-.026.147-.029.051-.022.051-.04.14-.02.09.031.05-.029.14-.06.088-.1.1-.11.209-.013.106-.031.135-.06.188-.03.048-.051.058-.051.157 0 .1.02.138 0 .208a.617.617 0 0 0 0 .265c.02.071-.01.152-.01.25 0 .097-.01.128-.01.128s-.017.058 0 .108c.02.052.08.031.09.07.01.039.028.157.01.207-.02.05-.08.093-.159.161-.08.068-.18.244-.24.344-.057.1-.108.169-.188.359-.077.188-.149.227-.17.305-.017.081 0 .09-.087.168-.092.08-.089.06-.158.099-.072.04-.052.08-.15.168-.102.091-.11.121-.158.259-.05.139-.122.216-.17.316-.05.099-.07.099-.101.24-.028.136-.08.128-.191.205-.107.078-.086.07-.185.161-.104.088-.04-.11-.04-.25 0-.138-.027-.128-.007-.248.017-.114-.031-.114-.066-.208-.027-.088.022-.154-.039-.233-.063-.08-.003-.1.03-.092.044.007.055-.08.055-.08l-.011-.14s-.053-.128-.062-.186a.626.626 0 0 1 .036-.24c.037-.08.046-.139 0-.227-.036-.09-.018-.098.037-.226.047-.129.011-.207.011-.304 0-.112-.011-.158.009-.222.024-.082.047-.179.027-.226-.02-.05-.01-.091-.027-.23-.02-.14-.006-.162.01-.298.023-.208-.03-.202.027-.353.06-.15 0-.1.05-.39.05-.286.01-.164.123-.246.109-.076.133-.197.275-.354.14-.16.078-.18.15-.219.069-.04.107-.091.216-.218.11-.129.099-.09.17-.149.068-.057.099-.078.12-.17.019-.087.081-.215.106-.325a.922.922 0 0 1 .142-.274c.058-.09.09-.16.071-.24a.528.528 0 0 1 .02-.286c.028-.11.048-.121.028-.219-.02-.1-.01-.138.02-.266.03-.129.009-.152.03-.257.017-.112.059-.13.046-.193-.01-.054 0-.143-.01-.275-.009-.128.045-.167.023-.288-.023-.118 0-.168.01-.286.013-.12-.023-.178-.033-.307-.009-.132-.057-.207-.097-.288-.037-.077-.08-.196-.108-.244a.839.839 0 0 1-.09-.23c-.009-.066-.009-.07-.058-.18-.052-.11-.121-.167-.19-.304-.067-.142-.039-.183-.12-.259-.077-.079-.11-.086-.151-.188-.038-.1-.146-.187-.208-.266-.058-.08-.04-.13-.128-.17-.09-.039-.101-.177-.109-.258-.01-.081-.138-.225-.231-.296a.71.71 0 0 1-.17-.18c-.035-.064-.035-.115-.018-.215.018-.1-.056-.179-.106-.29-.047-.108-.16-.006-.232.032-.07.04-.124.13-.168.199-.038.066 0 .13-.012.237-.008.108-.065.155-.12.217-.046.06-.117.157-.117.157s-.098.14-.148.23a.448.448 0 0 1-.189.187c-.073.04 0 .06-.118.21-.122.143-.132.206-.22.347-.088.136-.179.274-.229.364-.046.086-.078.257-.117.335-.043.08-.141.172-.141.172l-.08.136-.028.219s-.097.247-.174.404c-.083.161-.023.094-.023.094s-.008.1-.06.208c-.05.108-.036.128-.058.266a1.354 1.354 0 0 0-.006.35c.014.115-.013.15-.057.308-.041.158-.023.106.019.178.034.07.025.05.034.108.004.059.048.156.064.22.01.066.056.194.087.244.024.05.013.107.018.2.006.094-.013.114.072.172.086.059.005.1.005.208 0 .105-.015.1 0 .199.017.103.046.08.108.157.067.078.072.053.072.116 0 .062-.02.056.016.142.04.087.065.115.117.21.049.09.07.15.12.226.052.08.086.012.125.08.033.063.112.106.204.187.093.078.126.07.211.078.085.008.132.033.213.026.076-.006.14-.034.22-.057.074-.022-.01-.154-.062-.244-.05-.085-.068-.111-.11-.205-.056-.092-.033-.128-.076-.157-.043-.029-.084.042-.1.006a.401.401 0 0 0-.126-.118c-.062-.053-.117-.104-.198-.133-.078-.028-.114-.133-.162-.192-.053-.056-.021-.108-.031-.169-.006-.066-.022-.117-.03-.208-.006-.095 0-.135-.035-.167-.04-.025-.044-.106-.114-.191-.074-.085-.101-.06-.063-.13.032-.07.038-.127.034-.28-.008-.15-.051-.158-.078-.278-.029-.122-.075-.05-.141-.185-.062-.137.027-.159.066-.379.046-.224-.005-.087.046-.194a.74.74 0 0 1 .136-.23c.075-.1.053-.134.105-.272.06-.136.074-.219.124-.35.053-.127.065-.086 0-.178-.064-.094.06-.094.153-.114.09-.023.09-.08.12-.185.03-.108.081-.144.148-.29.069-.142.076-.142.11-.248.036-.105.104-.163.211-.255.104-.097.074-.102.087-.154.01-.046-.013-.063.052-.14.074-.08.062-.085.13-.169.07-.075.109-.134.236-.27.129-.136.084-.06.09-.006.027.056.027.086.078.2.065.115.059.076.09.142.033.066.076.13.08.197.009.062.05.15.093.2.044.052.119.168.156.221.046.045.07.063.082.109.015.041.035.112.078.232.042.123.109.15.154.336.036.187.1.194.172.32.07.131.054.169.078.347.02.18.026.193.05.35.022.158.054.079.064.183.007.108 0 .188.03.294.028.106.015.152 0 .317-.016.164.042.153.065.236.021.085.021.27 0 .36-.023.083-.043.084-.06.185a.523.523 0 0 0 .017.3c.04.098.02.093-.065.164-.088.07-.1.077-.194.17a.9.9 0 0 0-.174.214c-.058.093-.109.139-.147.178-.047.045-.088.033-.187.161-.103.13-.089-.029-.103-.137-.016-.106-.036-.081-.087-.158-.049-.079.008-.036-.067-.085-.066-.05-.046-.08-.099-.158-.05-.08-.038-.07-.06-.171-.01-.104-.046-.123-.06-.152-.026-.025-.032-.07.014-.157.056-.087.025-.07.03-.169.006-.102.006-.075-.034-.128-.018-.06-.074-.096-.129-.154-.042-.056-.058-.056-.027-.158.039-.097.039-.156.05-.24a.34.34 0 0 1 .055-.158.132.132 0 0 0 0-.154c-.023-.04-.043-.09-.089-.169-.028-.081-.037-.085-.104-.027-.056.06-.083.1-.096.221-.011.123-.011.107-.073.186-.058.08-.064.135-.12.257-.056.12-.031.114-.031.258 0 .144 0 .112-.007.235-.004.12.014.113.028.21.016.09.044.047.058.154.017.11.035.137.035.231 0 .09.037.113.083.27.04.159.053.186.094.316.031.129.055.322.079.437.023.115.045.14.052.234.002.092-.02.08-.052.2-.043.122 0 .099.007.2.01.1.038.057.038.165 0 .109-.045.044-.105.192-.06.151-.006.104-.006.223 0 .117-.008.609-.013.685-.007.11.045.297.013.352-.039.058-.06.523-.054.62.008.104-.037.317-.026.405a.296.296 0 0 1-.022.185c-.026.071-.014.085-.018.176-.008.095.018.437.004.5-.012.068-.024.068-.004.147.013.077.004.07-.047.162-.053.094.023.086.047.2.022.116.004.152-.033.287-.037.138.051.166.062.273.004.108.064.149.045.27-.016.122 0 .166-.03.25-.026.087.142.045.149.15.01.113.045.166.058.28.018.115.055.109.174.15.121.044.065.028.065.134 0 .11.005.11.033.246.02.136.023.055.06.15.04.091.032.1.06.18.027.077.137.092.203.235.06.142.053.09.14.157.085.061.085.071.124.198.035.13.087.158.18.153.09-.006.133-.042.112.156-.022.202-.033.16-.126.357-.096.201-.084.18-.101.308-.015.13.045.146.148.337.1.191.039.152.027.306-.02.16-.041.141.012.26.048.112.026.085-.032.25-.054.163-.029.144-.021.291.007.153.04.102-.008.303-.042.198-.042.19-.092.336-.051.145.02.048.067.145.04.091-.034.133-.06.32-.024.188-.041.172-.051.345-.007.17.032.124.015.281-.015.162-.044.195-.064.333-.025.134-.031.176-.016.376.016.203-.015.193-.035.32-.022.132-.013.09.035.19.051.098.052.119.016.3-.037.176-.016.148-.025.256-.006.106.02.086-.02.259-.033.17.02.18.008.279-.014.101-.014.1.012.276.03.181.02.224-.026.352-.042.128-.01.094.026.315.04.225-.035.53-.026.882.006.347 0 .305-.01.515-.006.203 0 .134-.017.24-.022.107.018.087.062.162.045.067.031.105.016.247-.016.14 0 .09-.037.216-.036.12.037.056.073.201.04.14.013.176.05.332.034.156.034.123.065.187.03.064.01.07-.047.16-.045.085-.004.078.096.172.1.09.059.081.138.168.08.089.029.057 0 .094-.031.036-.085.036-.038.09.051.059.072.073.135.148.082-.058.142-.03.184-.03.047 0 .11 0 .22.073.102.073.11.027.23.06.118.04.261.118.311.163.054.043.24.043.386.07.141.026.107-.062.044-.206-.063-.14.007-.178-.011-.32-.018-.142-.052-.15-.136-.276-.093-.123-.084-.134-.084-.213 0-.079 0-.095-.062-.187-.063-.088-.063-.153-.137-.239-.075-.092-.075-.198-.169-.332-.1-.134-.074-.14-.091-.258-.016-.117 0-.16 0-.35 0-.184-.026-.363.017-.489.05-.122.02-.156-.033-.203-.057-.046-.057-.153-.09-.323-.037-.168-.056-.183-.097-.38-.047-.196-.036-.15-.047-.288a1.09 1.09 0 0 0-.07-.353c-.046-.135-.039-.205-.071-.338-.038-.135.02-.16.091-.242.067-.08.018-.135.007-.259-.007-.126 0-.224-.007-.353a.838.838 0 0 1 0-.243 1.692 1.692 0 0 0 0-.25.96.96 0 0 1 0-.258c.007-.133-.011-.117.007-.26.02-.142.025-.186.07-.327.044-.145.02-.179-.01-.379-.023-.192.023-.229.062-.282.047-.055.065-.055.047-.207-.02-.15.028-.16.018-.259-.007-.094.044-.141.026-.318-.016-.18.047-.187.137-.313.089-.122.077-.15.043-.195-.033-.043-.036-.096-.043-.215-.008-.115.043-.115.015-.238-.023-.128 0-.134 0-.27 0-.134.02-.097.035-.268.02-.167-.007-.195 0-.308.01-.12.027-.173.103-.25.067-.08 0-.135-.058-.28-.052-.14-.052-.195-.115-.354-.063-.162 0-.188-.02-.313-.017-.125-.05-.113-.113-.249-.066-.132-.088-.07.023-.187.122-.117.145-.196.225-.322.083-.121.027-.079.046-.15.019-.072.099-.096.182-.162.079-.063.096-.133.14-.257.046-.122.073-.122.197-.186.123-.063.153-.029.296-.029.144 0 .23.01.331.093.097.078.124.032.236-.01.104-.047.168-.038.27.01.108.044.138.044.284.044.137 0 .13.053.212.015.08-.037.314.052.42.09.108.037.072.043.046.167-.03.129.026.162.032.254.011.087.05.12.037.226-.007.11.093.144.144.189.055.043.139.116.139.224s.111.17.167.257c.053.09.233.209.348.351.116.14.218.167.303.263.092.103.162.108.254.155.088.043.178.152.292.193.116.045.226.074.33.107.108.039.35.11.47.128.112.016.203.035.266.052.064.02.198.037.25.088.051.053 1.137.027 1.278.046.146.018.377-.038.45-.019.07.018.283-.056.348-.086.06-.038.338-.137.462-.118.13.02.12-.02.18-.072.065-.052.08.01.1-.088.018-.098-.035-.15-.15-.231-.124-.081 0-.072-.057-.143-.055-.072-.025-.09-.035-.186-.007-.1 0-.127.01-.268.01-.143-.017-.127-.097-.197-.08-.072-.093-.09-.156-.18-.06-.088 0-.097-.017-.24-.018-.142-.081-.15-.169-.238-.089-.09-.089-.126-.217-.243-.126-.115-.313-.275-.384-.31-.068-.038-.06-.178-.195-.223-.134-.046-.405-.232-.475-.276-.073-.047-.419-.158-.527-.233-.109-.07-.528-.063-.655-.077-.12-.02-.532-.091-.705-.066-.169.028-.207.019-.331.045-.125.028-.276.01-.446.08-.17.07-.352-.011-.55.018-.19.027-.397.01-.49.027a.975.975 0 0 1-.332-.018c-.08-.016-.204-.079-.347-.062-.143.02-.282-.053-.332-.053-.047 0-.161-.027-.2-.027-.033 0 .072-.071-.22-.043-.295.024-.342-.028-.24-.083.096-.055.105-.165.223-.25.116-.077.213-.148.335-.265.111-.119.136-.17.21-.232.071-.063.216-.199.233-.231.015-.036.015-.114.12-.206.095-.087.28-.197.372-.267.09-.072.177-.194.276-.23a.537.537 0 0 0 .217-.135c.088-.081.17-.135.525-.294.36-.16.267-.082.37.06.098.143.178.062.294.143.114.08.227.162.355.214.134.055.242.17.377.232.136.063.326.018.498-.017.166-.033.199-.045.345-.108.142-.06.175.063.322.063.141 0 .262.087.359.08.096-.008.294.027.435.037.145.008.225-.045.309-.037.078.007.382-.025.497-.122.113-.102.084-.073.267-.143.186-.073.217-.127.41-.235.199-.106.414-.121.612-.204.2-.08.217-.176.375-.183.162-.011.204-.145.436-.315.236-.167.657-.604.78-.696.126-.086.231-.141.376-.22.146-.082.172-.136.245-.245.07-.103-.024-.121-.073-.229m-10.58-.744c.048-.13.076-.098.076-.28 0-.177 0-.166.022-.33.023-.165-.029-.089.051-.233.085-.143.085-.188.176-.248.09-.06.129-.112.142-.173.016-.059.042-.105.154-.163.11-.062.148.004.236-.128.08-.138.075-.11.18-.232.102-.13.12-.099.153-.175.024-.074.02.038.139-.05.119-.094.137-.114.214-.19.072-.076.142-.046.276-.235.139-.185.27-.276.425-.352.15-.073.181-.052.31-.189.118-.134.148-.049.276-.153.13-.107.158-.325.205-.162.044.165.05.129.109.266.065.135.085.179.071.238-.017.063-.033.105.021.179.053.076-.043-.035 0 .168.046.204-.054.076.159.316.074.08-.04.27-.077.366-.036.1-.044.205-.082.31-.038.103.046.052-.01.161-.05.116-.06.124-.118.215a.556.556 0 0 0-.111.231c-.018.081-.135.209-.16.301-.023.09.008.098-.067.202-.074.108-.008-.006-.136.098-.129.105-.155.129-.228.261-.076.134-.119.153-.188.243-.068.088-.068.117-.105.167-.04.04-.04.095-.145.193-.1.098-.14.013-.231.11-.093.102-.068.155-.182.183-.113.029-.126.065-.193.142-.072.078-.072.078-.151.115-.084.038-.14.065-.173.09-.04.02-.05.072-.102.027-.05-.044-.067-.007-.138-.059-.066-.049-.03-.089 0-.185.031-.101.024-.153.094-.196.069-.047.073-.069.137-.158.057-.09.089-.135.125-.135.041 0 .046-.032.057-.098a.782.782 0 0 1 .034-.203c.02-.039.02-.017.117-.06.096-.047.158-.07.169-.114.018-.044 0-.068.018-.121.012-.052.128-.133.15-.202.022-.065.022-.057.087-.119.072-.061.137-.114.175-.204.041-.089.055-.12.141-.217.077-.098.142-.12.197-.178.048-.062.066-.04.094-.162.028-.116.094-.224-.071-.15-.166.076-.209.156-.298.227-.096.068-.242.21-.319.237-.075.033-.11.064-.212.167-.096.105-.16.152-.27.242-.113.092-.13.157-.185.195-.068.038-.097.075-.146.21-.056.138-.151.308-.244.429-.089.12-.103.194-.125.256-.024.059-.04.11-.174.208-.137.099-.234.23-.316.158-.015-.084-.024-.107-.034-.193-.007-.092.01-.132.026-.196.013-.066.008-.052.013-.22.01-.165-.013-.155-.046-.245-.03-.093-.038-.078.007-.203m2.697 5.843c.085-.032.14.02.234.02.1 0 .176 0 .252.026.078.022.117.056.243.122.13.07.191.089.285.12a.875.875 0 0 1 .245.13c.069.057.142.106.194.206.06.1.18.049.261.1.08.058.172.173.26.244.085.071.15.079.228.156.079.08.147.087.186.133.043.046.135.026.224.046.084.026.137.056.226.01.088-.048-.017-.166-.077-.157-.062.006-.082 0-.122-.11-.036-.108-.051-.101-.158-.108-.1-.009-.195-.157-.28-.22-.083-.064-.228-.172-.33-.257-.1-.09-.157-.174-.22-.18-.062-.01-.087-.09-.097-.142-.006-.054-.106-.118-.202-.133-.093-.018-.238-.141-.432-.207-.199-.058-.294-.146-.135-.17.16-.022.276.018.347.03.071.02.11-.035.234-.052a.504.504 0 0 0 .237-.07c.083-.048.153-.01.183.03.027.04.15.016.244.023.094.008.179.047.264.034a.597.597 0 0 1 .33.056c.103.044.18.044.302.1.114.053.215.147.32.195.103.046.023.083.009.148-.016.063.023.039.112.095.08.053.14.14.175.18.039.039.051.046.051.126 0 .077.096.047.125.067.03.023.057.095.057.095s.068.056.077.11c.008.053.052.053.107.123.06.075.066.118.108.19.047.071.103.11.132.175.024.064.064.127.064.225 0 .094.087.024.033.112-.053.087-.073.033-.182.053-.121.02-.138-.01-.18.062-.045.068-.06.043-.125.077-.063.038-.114.112-.186.09-.07-.018-.07-.035-.146.007-.07.048-.048.048-.16.064-.102.016-.193-.037-.318 0-.125.035-.31-.025-.478-.064-.17-.03-.445-.007-.596 0-.149.015-.318-.121-.425-.166-.107-.044-.107-.106-.275-.235-.17-.134-.293-.19-.439-.29a2.411 2.411 0 0 1-.338-.253c-.052-.064-.085-.153-.147-.274-.063-.124-.125-.177-.17-.255-.046-.083-.108-.136-.153-.206-.04-.07 0-.16.022-.231m6.633-4.726c-.121.138-.184.217-.304.318-.122.097-.276.256-.353.315-.075.058-.111.15-.137.202-.023.053-.066.022-.181.089-.11.067-.19.097-.292.176-.105.071-.16.116-.247.176-.086.064-.061.068-.236.076-.174.006-.264-.008-.424.04-.16.044-.126.05-.286.012-.154-.035-.411.018-.423.108-.005.09-.049.096-.117.084-.07-.018-.302-.031-.401-.056-.099-.02-.166 0-.217.038-.054.035-.15.024-.243.018-.088-.01-.073.006-.142-.056-.074-.061-.198-.008-.285 0-.092.01-.062-.052-.214-.044a.925.925 0 0 1-.375-.036c-.096-.038-.142-.12-.273-.108-.127.017-.09-.02-.147-.076-.064-.052-.094.017-.147-.065-.053-.085-.09-.135-.063-.201.035-.07.14-.055.252-.122.111-.069.278-.093.353-.169.078-.073.182-.055.256-.145.077-.09.096-.1.096-.1s.01-.021.124.01c.11.028.27.081.385.028.111-.053.227-.023.349-.013.117.004.33.036.442.013.113-.023.409.028.517.015.119-.015.252 0 .354-.061.11-.06.144-.043.242-.075.099-.031.153-.052.26-.089.108-.036.143.03.206-.085.052-.114-.026-.164-.26-.153-.236.005-.333.035-.423-.035-.09-.065-.09-.005-.26-.029-.176-.021-.269-.021-.463-.029-.194-.007-.327-.007-.476-.031-.151-.02-.25-.037-.321.008-.075.044-.153.031-.203.023-.04-.007-.006-.108-.147-.062-.138.046-.126.055-.23.062-.109.008-.165.013-.23.093-.056.074-.074.146-.15.101-.074-.045-.316.104-.204-.052.048-.058.077-.101.19-.18.113-.077.211-.121.324-.254.114-.135.203-.159.346-.237.144-.074.144-.09.248-.16.105-.08.144-.049.279-.098.139-.053.124 0 .264-.07.142-.07.185-.121.28-.07.098.055.252.05.368.035.125-.017.258.014.385-.052.127-.073.29-.079.323 0 .03.072.203.066.38.017.174-.042.328.035.459.094.125.058.407.131.528.193.118.063.227.057.31.098.08.044 0 .063.112.174.113.114.284.151.36.203.08.05 0 .057-.118.194"/>
<path fill="#036" d="M109.933 36.715c-.15.055-.348-.027-.578-.013-.231.013-.444.005-.583.005a.897.897 0 0 0-.311.037c-.087.026-.087-.037-.121-.064-.05-.026-.22-.026-.308-.005-.082.02-.127.02-.227.02-.098 0-.258-.015-.379-.007-.11.006-.152-.013-.296.019-.138.037-.292.028-.383.023-.093-.005-.13-.042-.212-.028-.081.013-.326.013-.394.013-.07 0-.221-.02-.313-.008-.09.018-.107.008-.075-.076.024-.084.006-.04.012-.24.005-.204.012-.131 0-.313-.012-.179 0-.16.027-.269.027-.108.022-.118-.008-.27-.025-.15.053-.127.127-.147.075-.02.094-.027.167-.033.079-.006.089-.036.153-.036.06 0 .098.05.144-.016.048-.069.083-.093.151-.093.07 0 .198-.047.258-.047.063 0 .137-.015.181-.07.047-.057.123-.079.21-.06.085.01.12-.084.2-.169.074-.081.058-.11.039-.194a.82.82 0 0 0-.161-.263c-.108-.123-.033-.16-.033-.29 0-.13.025-.076 0-.192-.02-.117-.035-.132-.097-.2-.06-.07.04-.031.032-.094-.01-.06-.01-.11-.067-.204-.057-.098-.067-.098-.101-.145-.035-.05.013-.042.02-.127.005-.084-.027-.09-.072-.165-.04-.073.045-.059-.033-.124-.072-.068-.042-.103-.034-.16.007-.056-.008-.097-.024-.16-.017-.061-.065-.18-.11-.2-.053-.02-.08.034-.162.061-.084.03-.144 0-.239.03-.088.026-.055.054-.088.06-.036.008-.07 0-.12.034-.047.039-.1-.024-.136.031-.045.055-.085.047-.143.055-.054.006-.07-.09-.108-.045-.043.05-.09.045-.18.058-.093.013-.075-.083-.097-.167-.027-.083-.043-.144-.076-.24-.035-.1-.107-.12-.157-.201-.062-.084-.123-.174-.214-.271-.09-.095-.061-.112-.136-.166-.078-.057.162-.24.104-.287-.11-.083-.142-.028-.287-.15-.062-.058-.152-.063-.206-.067-.06-.006-.08.036-.048-.022.037-.055.06-.137.134-.137.08 0 .15-.14.245-.18.097-.045.125-.104.13-.27.008-.164-.036-.16-.097-.246-.055-.093-.05-.119-.08-.216-.035-.096-.065-.112-.125-.142-.063-.025-.08-.082-.153-.15-.077-.07-.15-.089-.217-.145-.056-.055-.108-.069-.202-.05-.088.025-.057-.043-.126-.06-.067-.021-.187-.043-.214.034-.03.076-.098.07-.196.15-.1.083-.062.071-.104.187-.04.119-.12.099-.192.148-.08.047-.082.044-.106.158-.029.112-.048.073-.087.191-.047.13-.053.135-.047.272.01.138.047.05.054.178.006.135.043.151.064.25.024.104.063.116.153.16.09.05-.087.05-.142.097-.055.05-.055.063-.055.137 0 .076-.02.076-.083.12-.065.04-.065.04-.12.129-.053.091-.097.077-.163.174-.07.098-.107.076-.167.12-.062.04-.075.09-.096.163-.011.074.028.056-.011.168-.033.108-.091.116-.166.285-.077.166-.09.327-.124.443-.039.115-.057.11-.073.199-.025.09.046.046.077.132.036.08-.043.073-.077.08-.044.01-.083 0-.167.077a.328.328 0 0 1-.257.069c-.046-.018-.133.012-.19.053-.062.045-.115.078-.2.056-.088-.024-.124.04-.191.19-.072.146-.025.138-.016.249.01.11.087.089.184.106.097.013.17.06.274.086.101.03.396-.027.48-.021a.39.39 0 0 0 .252-.098c.057-.05.047-.013.108.067.06.081.033-.073.104-.051.075.022.046.039.075.154.034.12-.016.09-.036.193-.019.102-.046.093-.067.178-.023.082-.057.058 0 .174.06.12-.008.034.012.157.011.073-.007.106-.049.19-.054.088-.054.127-.059.257-.007.133-.011.095-.021.208-.01.11-.063.16-.116.25-.047.087-.067.058 0 .162.077.102-.024.095-.043.192-.011.085-.028.27-.001.404-.094.033-.123.022-.22.09-.096.064-.19.005-.263-.018-.076-.021-.088-.072-.143-.041-.054.027-.102.033-.132.02-.034-.013-.148.02-.214.032-.07.008-.064.04-.074.136-.02.096.049.096.08.14.035.046.076.09.133.17.064.081.064.094.105.147.044.052.005.088.005.127 0 .036.007.051.052.088 0 0 .02.023.023.032 0 0 .185-.048.232-.025.04.025.046.059.123 0 .073-.059.095-.044.223-.031.124.015.167-.028.304-.057.13-.029.478-.02.611-.02.135 0 .192-.009.37-.032.177-.022.34-.037.42-.037.084 0 .069.031.17.051.105.024.13-.008.306.018.175.02.356.026.549 0 .192-.032.354.036.486.006.133-.032.057.014.147.05.086.036.141-.05.274-.056.13-.009.324-.026.444.006.116.03.294.037.434.043.142.007.193 0 .305.015.109.013.087.044.176.054.093.003.084-.046.162-.054.08-.008.076.008.147.008.075 0 .215-.046.292-.016.069.029.147.008.257.021.11.015.314.024.423.008.112-.013.344.023.487.061.138.035.437.045.565.073.123.026.13-.015.111-.065-.02-.046-.012-.072.005-.113.023-.04.064-.035.13-.09.072-.059.085-.07.103-.112a.276.276 0 0 1 .082-.124c.025-.022.086-.077.174-.112.09-.035.07-.047.084-.118.012-.07.038-.116.09-.223.045-.102-.116-.134-.256-.08m-6.51-6.439c.028-.024.078-.045.092-.06.016-.022.068-.089.086-.12.017-.028.03-.048.06-.08a.175.175 0 0 0 .045-.095c.012-.043-.004-.085.032-.078.034.01.049.035.107.014.056-.024.073-.032.109-.024.042.004.055.015.089.06.035.039.04.06.04.095.002.033.015.09.048.136.039.05.039.122.091.115.048-.006.054-.01.078.058.021.07.013.083.013.135 0 .063-.008.096-.043.123-.03.028-.06.038-.073.092-.027.05-.027.098-.048.136-.024.04-.023.072-.071.062-.05-.012-.095.004-.12.043-.021.037-.031.082-.09.04-.062-.04-.089-.078-.13-.119-.043-.04-.086-.08-.135-.093-.044-.02-.09-.013-.072-.065.012-.058.016-.068-.032-.111-.054-.043-.02-.065-.058-.09-.023-.025-.034-.034-.042-.082-.008-.044-.008-.07.023-.092m1.622 5.876c-.039.12 0 .125-.039.208-.031.081-.002.12-.027.212-.02.097-.015.152-.073.235-.059.09-.065-.05-.156-.026-.087.02-.154.026-.206-.007-.05-.038-.03-.074-.125-.05-.099.02-.105.005-.221.05-.12.04-.15-.022-.234 0-.078.02-.176-.03-.296.007-.113.034-.136-.029-.206-.038-.064-.007-.043-.082-.146-.06-.105.022-.207-.027-.319-.006-.058.012-.11.01-.168.009.039-.092.07-.326.07-.385 0-.068-.009-.103.009-.277.023-.18.023-.167-.004-.3-.032-.129-.014-.146-.045-.256-.03-.11-.009-.168.013-.258.027-.088.052-.078.044-.138-.008-.061.008-.1.055-.19a.464.464 0 0 0 .048-.26c-.007-.103 0-.103.068-.212.067-.11.036-.169.079-.264.045-.097-.019-.122-.09-.2-.079-.083-.089-.18-.152-.236-.06-.06-.034-.105-.034-.105l-.031-.116-.03-.16c-.007-.038-.045-.093-.027-.135.009-.045.057-.06.062-.133.008-.071.008-.14.044-.212.037-.075.016-.09.037-.21.026-.116-.021-.09-.006-.211a.679.679 0 0 0 0-.244c-.015-.096.006-.09.09-.11.08-.02.103-.082.182-.138.078-.06.078-.075.164-.112.08-.034.07-.097.18-.125.104-.03.12-.067.225-.074.106-.009.156-.04.29-.037.136.007.145.076.184.119.035.042.12.086.193.127.075.034.086.12.108.248.011.125.034.153.064.272.03.12.064.14.079.25a.586.586 0 0 0 .082.258c.06.104.06.06 0 .09-.058.027-.117.006-.258.073-.143.064-.149.051-.223.124-.071.074-.128.087-.237.109-.105.024-.06.046-.146.127-.087.082-.143.068-.164.169-.02.105.11.067.15.13.034.07-.023.143-.031.27-.01.122.022.049.065.108.047.058.057.091.061.2.005.108.022.076.073.14.05.065.05.046.057.139.007.098.033.08.053.14.026.059-.01.105.062.23.072.124.037.19.057.336.015.15.039.156.048.296.02.139.064.104.107.182.045.083-.016.09.055.178.065.088.02.149.065.236.045.09.066.029.13.008.07-.024.128-.075.287-.113.153-.035.09 0 .054.118m.541-1.085c-.12.038-.16.046-.238.11-.078.064-.072 0-.187.055-.12.054-.144.189-.21.03-.072-.157-.089-.234-.122-.35-.03-.12-.007-.126-.09-.189-.088-.063-.097-.11-.097-.174 0-.059-.034-.04-.041-.163-.008-.123 0-.078-.085-.188-.087-.11-.094-.087-.107-.212-.017-.123.041-.03-.052-.195.072-.047.08-.061.152-.061.073 0 .11.037.142-.033.028-.071.008-.077.078-.086.07-.01.07.048.133.01.063-.039.088-.039.108-.08.027-.037.063-.103.098-.057.028.047.108.098.121.205.015.111.037.15.042.227.008.08.03.127.015.242-.015.118-.093.134.024.228.117.094.227.204.346.104.119-.104.141-.057.187-.145.046-.082.087-.14.095-.217.007-.08 0-.157-.008-.226a.519.519 0 0 0-.041-.181c-.021-.049-.062-.04-.053-.095.007-.056.007-.076-.074-.122-.073-.05-.059-.06-.059-.143 0-.088-.047-.164 0-.158.046.007.108.061.194.042.088-.025.112.019.19-.048.079-.072.142-.048.235-.072.094-.024.071.039.101.12.035.079-.004.068.058.22.066.146.048.16.105.256.051.096-.022.061.037.134.054.071.087.053.1.16.016.113.009.113.039.215.034.102.02.115.073.233.053.12.108.143-.024.229-.134.086-.174.11-.264.116a.736.736 0 0 0-.246.075c-.072.029-.126.065-.214.08-.085.018-.102.035-.21.035-.115 0-.135.029-.25.07"/>
<path fill="#C93" d="M77.269 47.588h6.627v-6.603h-6.627zM110.41 47.588h6.628v-6.603h-6.628zM77.269 14.581h6.627V7.98h-6.627zM110.41 14.581h6.628V7.98h-6.628zM97.147 0l4.684 4.665-4.683 4.671-4.677-4.672zM97.147 46.234l4.684 4.664-4.683 4.672-4.677-4.672zM73.961 23.128l4.683 4.664-4.683 4.671-4.675-4.671zM120.343 23.128l4.683 4.664-4.682 4.671-4.677-4.671z"/>
<path fill="#036" d="M4.279 32.47h1.676V21.017h4.278v-1.418H0v1.418h4.279zM11.362 32.47h1.559v-9.344h-1.559zM16.783 32.47h5.955v-1.302h-4.395v-8.043h-1.56zM27.482 27.02h-1.536v-2.593h1.671c1.249 0 1.691.325 1.691 1.24 0 .445-.167.826-.47 1.071-.338.262-.44.282-1.356.282zm.497 4.149l-2.033-.001v-2.846h2.41c.267 0 .55.1.794.284.33.238.527.668.527 1.149 0 .509-.252.983-.641 1.205-.32.191-.408.209-1.057.209zm-3.593 1.3h3.97c1.741 0 2.959-1.052 2.959-2.56 0-1.147-.686-2.039-1.793-2.325l-.087-.022.086-.031c.83-.287 1.366-1.103 1.366-2.078 0-1.544-1.021-2.327-3.037-2.327h-3.464v9.343zm9.414-9.343v5.524c0 1.871.382 2.82 1.362 3.387.72.428 1.774.704 2.685.704.872 0 1.943-.283 2.667-.704.994-.583 1.38-1.533 1.38-3.387v-5.524h-1.54v5.777c0 1.669-.843 2.516-2.507 2.516-1.663 0-2.507-.847-2.507-2.516v-5.777H33.8zm14.245 4.263h-1.419v-2.961h1.42c1.06 0 1.17.018 1.473.244.362.266.548.666.548 1.188 0 .496-.153.85-.493 1.15-.393.337-.564.38-1.529.38zm2.312 5.081h1.808l-2.574-3.907.04-.008c1.263-.253 2.111-1.36 2.111-2.754 0-1.725-1.244-2.675-3.502-2.675h-3.172v9.344h1.558v-3.78h1.28l.008.013 2.443 3.767zm8.645-9.499c-3.106 0-5.447 2.066-5.447 4.807 0 2.784 2.4 4.885 5.584 4.885.752 0 1.883-.144 2.75-.35.136-.029.312-.081.538-.148l.253-.073v-4.293h-1.56v3.375l-.022.004c-.831.138-1.249.183-1.727.183-2.381 0-4.18-1.573-4.18-3.66 0-1.965 1.655-3.448 3.85-3.448.682 0 1.568.178 2.2.443.135.056.349.174.638.346l.038.022.66-1.295-.035-.018c-.623-.32-.91-.446-1.392-.565-.568-.127-1.452-.215-2.148-.215m72.705-3.371v8.45c0 1.68.438 2.722 1.512 3.596.958.78 2.19 1.192 3.566 1.192 1.38 0 2.573-.401 3.545-1.192 1.074-.874 1.494-1.883 1.494-3.596V19.6h-1.677v7.965c0 1.591-.116 2.017-.729 2.686-.638.714-1.556 1.092-2.653 1.092-1.098 0-2.016-.378-2.655-1.092-.612-.668-.728-1.094-.728-2.686V19.6h-1.675zm20.502 12.985h1.402v-9.46h-1.423v7.022l-.054.01a2.385 2.385 0 0 0-.245-.428l-5.262-6.603h-1.539v9.344h1.443v-7.097l.054-.014c.073.135.181.292.36.526l5.264 6.7zM157.195 32.47h1.56v-9.344h-1.56zM165.022 32.702h.832l4.022-9.576h-1.684l-2.614 6.705c-.02.038-.034.072-.047.103l-.026.068-.026-.068a.897.897 0 0 0-.041-.096l-2.813-6.712h-1.683l4.08 9.576zM172.091 32.47h5.954v-1.302h-4.394v-2.845h3.538v-1.302h-3.538v-2.594h4.277v-1.302h-5.837zM183.975 27.362h-1.39v-2.906h1.39c1.053 0 1.162.017 1.458.238.355.261.536.654.536 1.166 0 .486-.15.836-.482 1.13-.386.33-.556.372-1.512.372zm1.548 1.201l.038-.008c1.263-.255 2.112-1.36 2.112-2.754 0-1.725-1.245-2.675-3.504-2.675h-3.172v9.343h1.56v-3.778h1.279l.008.013 2.443 3.765h1.807l-2.571-3.906zm3.986 3.068l.031.018c.676.417.946.549 1.33.702.54.192 1.205.292 1.92.292 2.145 0 3.425-1 3.425-2.675 0-1.16-.569-1.81-2.338-2.672-1.77-.854-2.108-1.038-2.375-1.44-.072-.103-.11-.268-.11-.461 0-.69.697-1.103 1.865-1.103.482 0 .868.058 1.292.192.454.133.66.222 1.155.556l.041.028.56-1.3-.033-.017c-.597-.317-.826-.43-1.253-.546a6.247 6.247 0 0 0-1.742-.234c-2.08 0-3.426 1.004-3.426 2.56 0 1.012.663 1.799 2.084 2.478l1.694.814c.73.344 1.026.732 1.026 1.338 0 .75-.631 1.2-1.692 1.2-.501 0-1.041-.109-1.52-.307-.361-.15-.607-.302-1.195-.73l-.04-.03-.7 1.337zM199.137 32.47h1.56v-9.344h-1.56zM206.139 32.47h1.54v-8.043h3.307v-1.302h-8.154v1.302h3.307zM214.729 32.47h1.54v-4.166l3.597-5.179h-1.813l-2.428 3.746-2.428-3.746h-1.808l3.335 5.162z"/>
</g>
<!-- </symbol> -->

</svg>