<?xml version="1.0" encoding="UTF-8"?>
<svg width="656px" height="214px" viewBox="0 0 656 214" version="1.1" xmlns="http://www.w3.org/2000/svg" xmlns:xlink="http://www.w3.org/1999/xlink">
    <!-- Generator: Sketch 52.5 (67469) - http://www.bohemiancoding.com/sketch -->
    <title>Artboard Copy 2</title>
    <desc>Created with Sketch.</desc>
    <g id="Artboard-Copy-2" stroke="none" stroke-width="1" fill="none" fill-rule="evenodd">
        <g id="master_full_black" transform="translate(0.000000, 1.000000)" fill="#000000">
            <polygon id="Path" points="0 100 90 0 124.979423 0 34.9794225 100 124.979423 200 90 200"></polygon>
            <polygon id="Path" points="69.958845 100 81.658845 87 133.320577 87 107.489711 58.2990375 124.979423 38.866025 180 100 124.979423 161.133975 107.489711 141.700962 133.320577 113 81.658845 113"></polygon>
        </g>
        <path d="M233.479584,1 L246.037478,1 L246.037478,24.7247637 L268.353735,1 L284.031106,1 L261.714849,23.6026465 L286.190744,58.2279773 L270.433386,58.2279773 L253.236271,32.4994329 L246.037478,39.7931947 L246.037478,58.2279773 L233.479584,58.2279773 L233.479584,1 Z M290.0301,16.7897921 L300.828289,16.7897921 L300.828289,22.5606805 L301.068248,22.5606805 C302.508014,20.1561316 304.374349,18.4061807 306.667309,17.310775 C308.96027,16.2153694 311.306519,15.6676749 313.706129,15.6676749 C316.745634,15.6676749 319.238525,16.0817854 321.184874,16.9100189 C323.131224,17.7382524 324.664285,18.8870752 325.784103,20.3565217 C326.903921,21.8259683 327.690448,23.6159945 328.143707,25.7266541 C328.596967,27.8373136 328.823593,30.1750344 328.823593,32.7398866 L328.823593,58.2279773 L317.465498,58.2279773 L317.465498,34.8238185 C317.465498,31.4040157 316.93226,28.8525604 315.865767,27.1693762 C314.799273,25.486192 312.906277,24.6446125 310.186719,24.6446125 C307.093889,24.6446125 304.854287,25.5663424 303.467846,27.4098299 C302.081405,29.2533173 301.388195,32.2856752 301.388195,36.5069943 L301.388195,58.2279773 L290.0301,58.2279773 L290.0301,16.7897921 Z M347.540454,37.5489603 C347.540454,39.2054273 347.700426,40.8217943 348.020374,42.3981096 C348.340322,43.974425 348.886891,45.3904159 349.660099,46.6461248 C350.433306,47.9018336 351.45979,48.903714 352.739582,49.6517958 C354.019374,50.3998777 355.61909,50.773913 357.538777,50.773913 C359.458465,50.773913 361.071512,50.3998777 362.377966,49.6517958 C363.68442,48.903714 364.724235,47.9018336 365.497443,46.6461248 C366.27065,45.3904159 366.81722,43.974425 367.137167,42.3981096 C367.457115,40.8217943 367.617087,39.2054273 367.617087,37.5489603 C367.617087,35.8924933 367.457115,34.2627679 367.137167,32.6597353 C366.81722,31.0567028 366.27065,29.6407119 365.497443,28.4117202 C364.724235,27.1827286 363.68442,26.1808482 362.377966,25.4060491 C361.071512,24.6312501 359.458465,24.2438563 357.538777,24.2438563 C355.61909,24.2438563 354.019374,24.6312501 352.739582,25.4060491 C351.45979,26.1808482 350.433306,27.1827286 349.660099,28.4117202 C348.886891,29.6407119 348.340322,31.0567028 348.020374,32.6597353 C347.700426,34.2627679 347.540454,35.8924933 347.540454,37.5489603 Z M336.182359,37.5489603 C336.182359,34.2360263 336.688936,31.2303853 337.702104,28.5319471 C338.715273,25.8335089 340.155017,23.5358633 342.02138,21.6389414 C343.887743,19.7420195 346.127345,18.272595 348.740253,17.2306238 C351.353161,16.1886526 354.285973,15.6676749 357.538777,15.6676749 C360.791581,15.6676749 363.737724,16.1886526 366.377295,17.2306238 C369.016865,18.272595 371.269798,19.7420195 373.136161,21.6389414 C375.002524,23.5358633 376.442268,25.8335089 377.455437,28.5319471 C378.468605,31.2303853 378.975182,34.2360263 378.975182,37.5489603 C378.975182,40.8618943 378.468605,43.8541769 377.455437,46.5258979 C376.442268,49.1976189 375.002524,51.4819061 373.136161,53.378828 C371.269798,55.2757499 369.016865,56.731816 366.377295,57.7470699 C363.737724,58.7623239 360.791581,59.2699433 357.538777,59.2699433 C354.285973,59.2699433 351.353161,58.7623239 348.740253,57.7470699 C346.127345,56.731816 343.887743,55.2757499 342.02138,53.378828 C340.155017,51.4819061 338.715273,49.1976189 337.702104,46.5258979 C336.688936,43.8541769 336.182359,40.8618943 336.182359,37.5489603 Z M433.60602,58.2279773 L421.927978,58.2279773 L414.569212,30.4155009 L414.409239,30.4155009 L407.37042,58.2279773 L395.612392,58.2279773 L382.494592,16.7897921 L394.49258,16.7897921 L402.091305,44.9228733 L402.251278,44.9228733 L409.130125,16.7897921 L420.168273,16.7897921 L427.207093,44.8427221 L427.367066,44.8427221 L434.965791,16.7897921 L446.643833,16.7897921 L433.60602,58.2279773 Z M451.762974,1 L463.121069,1 L463.121069,58.2279773 L451.762974,58.2279773 L451.762974,1 Z M499.914898,33.0604915 C499.381652,30.1750328 498.435153,27.9842545 497.075375,26.4880907 C495.715596,24.991927 493.649296,24.2438563 490.876414,24.2438563 C489.063376,24.2438563 487.556977,24.5510996 486.357172,25.1655955 C485.157368,25.7800913 484.197538,26.5415203 483.477655,27.4499055 C482.757772,28.3582906 482.251196,29.3200957 481.95791,30.3353497 C481.664625,31.3506037 481.491322,32.2589752 481.437997,33.0604915 L499.914898,33.0604915 Z M481.437997,40.2741021 C481.597971,43.961077 482.531139,46.6327579 484.237528,48.289225 C485.943917,49.945692 488.396814,50.773913 491.596294,50.773913 C493.889254,50.773913 495.862237,50.1995016 497.515301,49.0506616 C499.168365,47.9018216 500.181519,46.6862068 500.554791,45.4037807 L510.553114,45.4037807 C508.953375,50.3731817 506.500477,53.9265174 503.194348,56.0638941 C499.88822,58.2012709 495.88893,59.2699433 491.196361,59.2699433 C487.943557,59.2699433 485.010745,58.7489655 482.397836,57.7069943 C479.784928,56.6650231 477.571988,55.1822402 475.75895,53.2586011 C473.945911,51.334962 472.54616,49.0373164 471.559654,46.3655955 C470.573148,43.6938745 470.079902,40.7550255 470.079902,37.5489603 C470.079902,34.449764 470.586479,31.5643486 471.599647,28.8926276 C472.612816,26.2209066 474.05256,23.9099026 475.918923,21.9595463 C477.785286,20.00919 480.011557,18.4729735 482.597803,17.3508507 C485.184049,16.2287278 488.050206,15.6676749 491.196361,15.6676749 C494.715788,15.6676749 497.78191,16.3489535 500.394818,17.7115312 C503.007726,19.0741089 505.154011,20.9042103 506.833738,23.2018904 C508.513465,25.4995704 509.726582,28.1178177 510.473128,31.0567108 C511.219673,33.9956039 511.486292,37.0680369 511.272993,40.2741021 L481.437997,40.2741021 Z M547.346943,37.3886578 C547.346943,35.6787564 547.186972,34.0356727 546.867024,32.4593573 C546.547076,30.8830419 546.000506,29.4937678 545.227299,28.2914934 C544.454091,27.0892189 543.454269,26.1140554 542.227802,25.3659735 C541.001335,24.6178917 539.454943,24.2438563 537.58858,24.2438563 C535.722217,24.2438563 534.149163,24.6178917 532.869371,25.3659735 C531.58958,26.1140554 530.563095,27.1025773 529.789888,28.331569 C529.01668,29.5605607 528.45678,30.9631931 528.11017,32.5395085 C527.763559,34.1158239 527.590257,35.7589076 527.590257,37.4688091 C527.590257,39.0718417 527.77689,40.6748502 528.150163,42.2778828 C528.523435,43.8809154 529.123329,45.3102647 529.949861,46.5659735 C530.776393,47.8216824 531.816208,48.8369211 533.069338,49.6117202 C534.322467,50.3865193 535.828866,50.773913 537.58858,50.773913 C539.454943,50.773913 541.014666,50.3998777 542.267795,49.6517958 C543.520925,48.903714 544.520747,47.9018336 545.267292,46.6461248 C546.013837,45.3904159 546.547076,43.9610666 546.867024,42.358034 C547.186972,40.7550014 547.346943,39.0985593 547.346943,37.3886578 Z M547.506916,52.9379962 L547.346943,52.9379962 C546.013827,55.1822418 544.267471,56.7986088 542.107822,57.7871456 C539.948173,58.7756823 537.508607,59.2699433 534.789049,59.2699433 C531.696219,59.2699433 528.976703,58.6688151 526.630418,57.4665406 C524.284133,56.2642662 522.351143,54.6345408 520.83139,52.5773157 C519.311638,50.5200905 518.165175,48.1556529 517.391967,45.4839319 C516.61876,42.812211 516.232162,40.0336628 516.232162,37.1482042 C516.232162,34.3696143 516.61876,31.684575 517.391967,29.0930057 C518.165175,26.5014363 519.311638,24.2171491 520.83139,22.2400756 C522.351143,20.2630021 524.257471,18.6733519 526.550431,17.4710775 C528.843391,16.2688031 531.509584,15.6676749 534.54909,15.6676749 C537.002024,15.6676749 539.334943,16.1886526 541.547916,17.2306238 C543.760889,18.272595 545.507245,19.8088115 546.787037,21.8393195 L546.94701,21.8393195 L546.94701,1 L558.305105,1 L558.305105,58.2279773 L547.506916,58.2279773 L547.506916,52.9379962 Z M586.140437,48.4495274 C587.740177,48.4495274 589.153259,48.1289257 590.379726,47.4877127 C591.606193,46.8464996 592.619346,45.9915617 593.419216,44.9228733 C594.219086,43.854185 594.818979,42.6385701 595.218914,41.2759924 C595.618849,39.9134147 595.818814,38.4840655 595.818814,36.9879017 C595.818814,35.2780003 595.658842,33.6616333 595.338894,32.1387524 C595.018946,30.6158714 594.485708,29.2666725 593.739163,28.0911153 C592.992617,26.9155581 592.006126,25.9804698 590.779659,25.2858223 C589.553192,24.5911749 588.0068,24.2438563 586.140437,24.2438563 C584.540697,24.2438563 583.167608,24.564458 582.021128,25.2056711 C580.874648,25.8468841 579.914818,26.7151804 579.141611,27.810586 C578.368403,28.9059916 577.808503,30.1616816 577.461892,31.5776938 C577.115282,32.9937059 576.94198,34.4764888 576.94198,36.026087 C576.94198,37.5222507 577.08862,39.0050336 577.381906,40.4744802 C577.675192,41.9439267 578.181768,43.2664087 578.901651,44.441966 C579.621534,45.6175232 580.568032,46.5793283 581.741175,47.3274102 C582.914317,48.0754921 584.380723,48.4495274 586.140437,48.4495274 Z M606.617003,55.5829868 C606.617003,57.2394538 606.390376,59.1363472 605.937117,61.273724 C605.483857,63.4111008 604.510697,65.4015031 603.017606,67.2449905 C601.524516,69.088478 599.3649,70.6514114 596.538693,71.9338374 C593.712486,73.2162635 589.926492,73.8574669 585.180598,73.8574669 C583.154261,73.8574669 581.087962,73.6036572 578.981638,73.0960302 C576.875314,72.5884033 574.955655,71.8002574 573.222603,70.731569 C571.489552,69.6628806 570.049808,68.2869649 568.903328,66.6037807 C567.756848,64.9205965 567.103631,62.9034774 566.943657,60.5523629 L578.221765,60.5523629 C578.755012,62.6897397 579.794827,64.1725226 581.341242,65.0007561 C582.887657,65.8289896 584.674006,66.2431002 586.700343,66.2431002 C589.899822,66.2431002 592.232741,65.2812951 593.699169,63.357656 C595.165597,61.4340168 595.872138,59.0027872 595.818814,56.0638941 L595.818814,50.6136106 L595.658841,50.6136106 C594.432373,52.8044218 592.686017,54.4207887 590.419719,55.4627599 C588.153421,56.5047311 585.767179,57.0257089 583.26092,57.0257089 C580.16809,57.0257089 577.501897,56.4780143 575.262261,55.3826087 C573.022626,54.2872031 571.182953,52.7910618 569.743187,50.8941399 C568.303421,48.997218 567.250275,46.7797228 566.583717,44.2415879 C565.917159,41.703453 565.583885,39.0184137 565.583885,36.1863894 C565.583885,33.5146684 565.970483,30.9364964 566.74369,28.4517958 C567.516898,25.9670953 568.65003,23.776317 570.14312,21.8793951 C571.63621,19.9824732 573.489214,18.4729735 575.702188,17.3508507 C577.915161,16.2287278 580.461375,15.6676749 583.340906,15.6676749 C586.060464,15.6676749 588.446707,16.1752942 590.499706,17.1905482 C592.552705,18.2058022 594.272399,19.915678 595.658841,22.3202268 L595.818814,22.3202268 L595.818814,16.7897921 L606.617003,16.7897921 L606.617003,55.5829868 Z M643.570805,33.0604915 C643.037558,30.1750328 642.09106,27.9842545 640.731281,26.4880907 C639.371502,24.991927 637.305203,24.2438563 634.532321,24.2438563 C632.719282,24.2438563 631.212884,24.5510996 630.013079,25.1655955 C628.813274,25.7800913 627.853445,26.5415203 627.133562,27.4499055 C626.413679,28.3582906 625.907102,29.3200957 625.613817,30.3353497 C625.320531,31.3506037 625.147228,32.2589752 625.093904,33.0604915 L643.570805,33.0604915 Z M625.093904,40.2741021 C625.253878,43.961077 626.187045,46.6327579 627.893434,48.289225 C629.599823,49.945692 632.052721,50.773913 635.2522,50.773913 C637.54516,50.773913 639.518143,50.1995016 641.171207,49.0506616 C642.824272,47.9018216 643.837425,46.6862068 644.210698,45.4037807 L654.209021,45.4037807 C652.609281,50.3731817 650.156384,53.9265174 646.850255,56.0638941 C643.544126,58.2012709 639.544837,59.2699433 634.852267,59.2699433 C631.599463,59.2699433 628.666651,58.7489655 626.053743,57.7069943 C623.440835,56.6650231 621.227895,55.1822402 619.414856,53.2586011 C617.601818,51.334962 616.202067,49.0373164 615.215561,46.3655955 C614.229054,43.6938745 613.735809,40.7550255 613.735809,37.5489603 C613.735809,34.449764 614.242385,31.5643486 615.255554,28.8926276 C616.268722,26.2209066 617.708466,23.9099026 619.574829,21.9595463 C621.441192,20.00919 623.667463,18.4729735 626.253709,17.3508507 C628.839955,16.2287278 631.706112,15.6676749 634.852267,15.6676749 C638.371694,15.6676749 641.437816,16.3489535 644.050724,17.7115312 C646.663633,19.0741089 648.809918,20.9042103 650.489644,23.2018904 C652.169371,25.4995704 653.382489,28.1178177 654.129034,31.0567108 C654.875579,33.9956039 655.142199,37.0680369 654.9289,40.2741021 L625.093904,40.2741021 Z M233.479584,71.1323251 L273.63285,71.1323251 L273.63285,81.7122873 L246.037478,81.7122873 L246.037478,94.9372401 L269.953467,94.9372401 L269.953467,104.71569 L246.037478,104.71569 L246.037478,128.360302 L233.479584,128.360302 L233.479584,71.1323251 Z M318.505324,128.360302 L307.707135,128.360302 L307.707135,122.589414 L307.467175,122.589414 C306.027409,124.993963 304.161074,126.730555 301.868114,127.799244 C299.575154,128.867932 297.228904,129.402268 294.829295,129.402268 C291.789789,129.402268 289.296899,129.001516 287.350549,128.2 C285.404199,127.398484 283.871138,126.263019 282.75132,124.793573 C281.631503,123.324126 280.844976,121.5341 280.391716,119.42344 C279.938457,117.312781 279.71183,114.97506 279.71183,112.410208 L279.71183,86.9221172 L291.069925,86.9221172 L291.069925,110.326276 C291.069925,113.746079 291.603164,116.297534 292.669657,117.980718 C293.73615,119.663903 295.629147,120.505482 298.348704,120.505482 C301.441535,120.505482 303.681137,119.583752 305.067578,117.740265 C306.454019,115.896777 307.147229,112.864419 307.147229,108.6431 L307.147229,86.9221172 L318.505324,86.9221172 L318.505324,128.360302 Z M341.54146,86.9221172 L349.860065,86.9221172 L349.860065,94.5364839 L341.54146,94.5364839 L341.54146,115.055198 C341.54146,116.978838 341.861403,118.261244 342.501299,118.902457 C343.141195,119.543671 344.420968,119.864272 346.340655,119.864272 C346.980551,119.864272 347.593776,119.837555 348.180347,119.784121 C348.766918,119.730687 349.326819,119.650536 349.860065,119.543667 L349.860065,128.360302 C348.900221,128.520606 347.833744,128.627473 346.660602,128.680907 C345.487459,128.734342 344.340996,128.761059 343.221179,128.761059 C341.461465,128.761059 339.795094,128.640833 338.222017,128.400378 C336.64894,128.159923 335.262519,127.692379 334.062715,126.997732 C332.86291,126.303084 331.916411,125.314562 331.223191,124.032136 C330.52997,122.74971 330.183365,121.066551 330.183365,118.982609 L330.183365,94.5364839 L323.304519,94.5364839 L323.304519,86.9221172 L330.183365,86.9221172 L330.183365,74.4986767 L341.54146,74.4986767 L341.54146,86.9221172 Z M394.092647,128.360302 L383.294458,128.360302 L383.294458,122.589414 L383.054498,122.589414 C381.614732,124.993963 379.748397,126.730555 377.455437,127.799244 C375.162477,128.867932 372.816227,129.402268 370.416617,129.402268 C367.377112,129.402268 364.884222,129.001516 362.937872,128.2 C360.991522,127.398484 359.458461,126.263019 358.338643,124.793573 C357.218825,123.324126 356.432298,121.5341 355.979039,119.42344 C355.525779,117.312781 355.299153,114.97506 355.299153,112.410208 L355.299153,86.9221172 L366.657248,86.9221172 L366.657248,110.326276 C366.657248,113.746079 367.190487,116.297534 368.25698,117.980718 C369.323473,119.663903 371.21647,120.505482 373.936027,120.505482 C377.028857,120.505482 379.268459,119.583752 380.6549,117.740265 C382.041341,115.896777 382.734552,112.864419 382.734552,108.6431 L382.734552,86.9221172 L394.092647,86.9221172 L394.092647,128.360302 Z M402.731198,86.9221172 L413.529387,86.9221172 L413.529387,94.6166352 L413.68936,94.6166352 C414.222606,93.3342091 414.942479,92.1453111 415.848998,91.0499055 C416.755517,89.9544999 417.795332,89.0194116 418.968475,88.2446125 C420.141617,87.4698134 421.394728,86.8686852 422.727844,86.4412098 C424.06096,86.0137345 425.447381,85.8 426.887146,85.8 C427.633692,85.8 428.460211,85.933584 429.366731,86.2007561 L429.366731,96.7807183 C428.833484,96.6738495 428.193598,96.5803407 427.447053,96.500189 C426.700507,96.4200374 425.980635,96.3799622 425.287415,96.3799622 C423.207753,96.3799622 421.448066,96.7272807 420.0083,97.4219282 C418.568534,98.1165756 417.408741,99.0650223 416.528884,100.267297 C415.649027,101.469571 415.022472,102.872204 414.649199,104.475236 C414.275926,106.078269 414.089293,107.814861 414.089293,109.685066 L414.089293,128.360302 L402.731198,128.360302 L402.731198,86.9221172 Z M460.241552,103.192817 C459.708306,100.307358 458.761807,98.1165796 457.402029,96.6204159 C456.04225,95.1242521 453.97595,94.3761815 451.203068,94.3761815 C449.39003,94.3761815 447.883631,94.6834248 446.683826,95.2979206 C445.484021,95.9124164 444.524192,96.6738455 443.804309,97.5822306 C443.084426,98.4906158 442.57785,99.4524209 442.284564,100.467675 C441.991278,101.482929 441.817976,102.3913 441.764651,103.192817 L460.241552,103.192817 Z M441.764651,110.406427 C441.924625,114.093402 442.857793,116.765083 444.564182,118.42155 C446.270571,120.078017 448.723468,120.906238 451.922947,120.906238 C454.215908,120.906238 456.18889,120.331827 457.841955,119.182987 C459.495019,118.034147 460.508172,116.818532 460.881445,115.536106 L470.879768,115.536106 C469.280028,120.505507 466.827131,124.058842 463.521002,126.196219 C460.214874,128.333596 456.215584,129.402268 451.523015,129.402268 C448.270211,129.402268 445.337398,128.881291 442.72449,127.839319 C440.111582,126.797348 437.898642,125.314565 436.085604,123.390926 C434.272565,121.467287 432.872814,119.169642 431.886308,116.497921 C430.899802,113.8262 430.406556,110.887351 430.406556,107.681285 C430.406556,104.582089 430.913133,101.696674 431.926301,99.0249527 C432.93947,96.3532318 434.379214,94.0422278 436.245577,92.0918715 C438.11194,90.1415151 440.338211,88.6052986 442.924457,87.4831758 C445.510703,86.361053 448.37686,85.8 451.523015,85.8 C455.042442,85.8 458.108564,86.4812786 460.721472,87.8438563 C463.33438,89.206434 465.480665,91.0365355 467.160392,93.3342155 C468.840119,95.6318955 470.053236,98.2501428 470.799782,101.189036 C471.546327,104.127929 471.812946,107.200362 471.599647,110.406427 L441.764651,110.406427 Z M487.117045,114.894896 C487.117045,116.123888 487.370333,117.179202 487.876917,118.06087 C488.383502,118.942537 489.036719,119.663891 489.836589,120.224953 C490.636459,120.786014 491.556295,121.200125 492.596126,121.467297 C493.635957,121.734469 494.715765,121.868053 495.835583,121.868053 C496.635452,121.868053 497.475303,121.774544 498.35516,121.587524 C499.235017,121.400503 500.034875,121.106618 500.754758,120.70586 C501.47464,120.305102 502.074534,119.770766 502.554456,119.102836 C503.034378,118.434905 503.274335,117.593326 503.274335,116.578072 C503.274335,114.86817 502.141203,113.585764 499.874905,112.730813 C497.608607,111.875862 494.449169,111.020924 490.396495,110.165974 C488.74343,109.791933 487.130384,109.351105 485.557306,108.843478 C483.984229,108.335851 482.584478,107.667931 481.358011,106.839698 C480.131544,106.011464 479.145052,104.969508 478.398507,103.7138 C477.651962,102.458091 477.278695,100.921874 477.278695,99.105104 C477.278695,96.433383 477.798603,94.2426046 478.838433,92.5327032 C479.878264,90.8228018 481.251353,89.4736029 482.957742,88.4850662 C484.664131,87.4965294 486.58379,86.8018924 488.716777,86.4011342 C490.849763,86.0003761 493.036041,85.8 495.275676,85.8 C497.515312,85.8 499.688259,86.0137345 501.794583,86.4412098 C503.900907,86.8686852 505.780573,87.590039 507.433637,88.605293 C509.086702,89.620547 510.459791,90.9697458 511.552947,92.6529301 C512.646102,94.3361143 513.299319,96.4601006 513.512618,99.0249527 L502.714429,99.0249527 C502.554455,96.8341415 501.727935,95.3513586 500.234845,94.5765595 C498.741754,93.8017605 496.982067,93.4143667 494.95573,93.4143667 C494.315834,93.4143667 493.622624,93.4544419 492.876079,93.5345936 C492.129534,93.6147452 491.449655,93.7884045 490.836421,94.0555766 C490.223187,94.3227487 489.70328,94.7101424 489.276683,95.2177694 C488.850085,95.7253964 488.63679,96.406675 488.63679,97.2616257 C488.63679,98.2768797 489.010057,99.1051008 489.756602,99.7463138 C490.503147,100.387527 491.476308,100.908505 492.676112,101.309263 C493.875917,101.710021 495.249007,102.070698 496.795422,102.391304 C498.341837,102.711911 499.91489,103.059229 501.51463,103.43327 C503.167694,103.807311 504.780741,104.261497 506.353819,104.795841 C507.926896,105.330185 509.326647,106.038181 510.553114,106.919849 C511.779581,107.801517 512.766073,108.896906 513.512618,110.206049 C514.259163,111.515192 514.63243,113.131559 514.63243,115.055198 C514.63243,117.780354 514.085861,120.064641 512.992705,121.908129 C511.89955,123.751616 510.473136,125.234399 508.713423,126.356522 C506.953709,127.478645 504.940734,128.26679 502.674436,128.720983 C500.408138,129.175176 498.101881,129.402268 495.755596,129.402268 C493.355986,129.402268 491.009737,129.161817 488.716777,128.680907 C486.423816,128.199998 484.384179,127.398493 482.597803,126.276371 C480.811427,125.154248 479.345021,123.671465 478.198541,121.827977 C477.052061,119.98449 476.425505,117.673486 476.318856,114.894896 L487.117045,114.894896 Z M274.752662,192.000378 C272.513026,194.885837 270.033467,196.902956 267.31391,198.051796 C264.594352,199.200636 261.848173,199.775047 259.075291,199.775047 C254.702669,199.775047 250.770035,199.013618 247.27727,197.490737 C243.784505,195.967856 240.838362,193.870587 238.438752,191.198866 C236.039143,188.527145 234.19947,185.38792 232.919678,181.781096 C231.639886,178.174273 231,174.286977 231,170.119093 C231,165.844339 231.639886,161.876893 232.919678,158.216635 C234.19947,154.556377 236.039143,151.363719 238.438752,148.638563 C240.838362,145.913408 243.784505,143.776063 247.27727,142.226465 C250.770035,140.676867 254.702669,139.902079 259.075291,139.902079 C262.008147,139.902079 264.847643,140.342907 267.593863,141.224575 C270.340082,142.106243 272.819642,143.402008 275.032615,145.111909 C277.245588,146.821811 279.07193,148.932439 280.511696,151.443856 C281.951462,153.955274 282.831305,156.840689 283.151253,160.100189 L271.153266,160.100189 C270.40672,156.894124 268.966976,154.489611 266.83399,152.886578 C264.701004,151.283546 262.114797,150.482042 259.075291,150.482042 C256.249085,150.482042 253.849511,151.029736 251.876499,152.125142 C249.903486,153.220547 248.303771,154.689972 247.077304,156.533459 C245.850836,158.376947 244.957662,160.474216 244.397753,162.825331 C243.837844,165.176445 243.557894,167.607675 243.557894,170.119093 C243.557894,172.523642 243.837844,174.861362 244.397753,177.132325 C244.957662,179.403288 245.850836,181.447124 247.077304,183.263894 C248.303771,185.080664 249.903486,186.536731 251.876499,187.632136 C253.849511,188.727542 256.249085,189.275236 259.075291,189.275236 C263.234615,189.275236 266.447377,188.219922 268.713675,186.109263 C270.979973,183.998603 272.299738,180.939529 272.673011,176.931947 L260.03513,176.931947 L260.03513,167.554253 L284.031106,167.554253 L284.031106,198.492628 L276.032447,198.492628 L274.752662,192.000378 Z M292.989603,157.054442 L303.787792,157.054442 L303.787792,164.74896 L303.947765,164.74896 C304.481012,163.466534 305.200884,162.277636 306.107403,161.182231 C307.013922,160.086825 308.053738,159.151737 309.22688,158.376938 C310.400022,157.602139 311.653133,157.00101 312.98625,156.573535 C314.319366,156.14606 315.705786,155.932325 317.145552,155.932325 C317.892097,155.932325 318.718617,156.065909 319.625136,156.333081 L319.625136,166.913043 C319.09189,166.806175 318.452003,166.712666 317.705458,166.632514 C316.958913,166.552363 316.239041,166.512287 315.54582,166.512287 C313.466159,166.512287 311.706471,166.859606 310.266706,167.554253 C308.82694,168.248901 307.667146,169.197347 306.787289,170.399622 C305.907432,171.601896 305.280877,173.004529 304.907604,174.607561 C304.534332,176.210594 304.347698,177.947187 304.347698,179.817391 L304.347698,198.492628 L292.989603,198.492628 L292.989603,157.054442 Z M332.742936,177.813611 C332.742936,179.470078 332.902908,181.086445 333.222855,182.66276 C333.542803,184.239075 334.089373,185.655066 334.86258,186.910775 C335.635788,188.166484 336.662272,189.168364 337.942064,189.916446 C339.221856,190.664528 340.821571,191.038563 342.741259,191.038563 C344.660947,191.038563 346.273993,190.664528 347.580447,189.916446 C348.886902,189.168364 349.926717,188.166484 350.699924,186.910775 C351.473132,185.655066 352.019701,184.239075 352.339649,182.66276 C352.659597,181.086445 352.819569,179.470078 352.819569,177.813611 C352.819569,176.157144 352.659597,174.527418 352.339649,172.924386 C352.019701,171.321353 351.473132,169.905362 350.699924,168.676371 C349.926717,167.447379 348.886902,166.445499 347.580447,165.670699 C346.273993,164.8959 344.660947,164.508507 342.741259,164.508507 C340.821571,164.508507 339.221856,164.8959 337.942064,165.670699 C336.662272,166.445499 335.635788,167.447379 334.86258,168.676371 C334.089373,169.905362 333.542803,171.321353 333.222855,172.924386 C332.902908,174.527418 332.742936,176.157144 332.742936,177.813611 Z M321.384841,177.813611 C321.384841,174.500677 321.891418,171.495036 322.904586,168.796597 C323.917755,166.098159 325.357499,163.800514 327.223862,161.903592 C329.090225,160.00667 331.329827,158.537245 333.942735,157.495274 C336.555643,156.453303 339.488455,155.932325 342.741259,155.932325 C345.994063,155.932325 348.940206,156.453303 351.579777,157.495274 C354.219347,158.537245 356.47228,160.00667 358.338643,161.903592 C360.205006,163.800514 361.64475,166.098159 362.657919,168.796597 C363.671087,171.495036 364.177664,174.500677 364.177664,177.813611 C364.177664,181.126545 363.671087,184.118827 362.657919,186.790548 C361.64475,189.462269 360.205006,191.746556 358.338643,193.643478 C356.47228,195.5404 354.219347,196.996466 351.579777,198.01172 C348.940206,199.026974 345.994063,199.534594 342.741259,199.534594 C339.488455,199.534594 336.555643,199.026974 333.942735,198.01172 C331.329827,196.996466 329.090225,195.5404 327.223862,193.643478 C325.357499,191.746556 323.917755,189.462269 322.904586,186.790548 C321.891418,184.118827 321.384841,181.126545 321.384841,177.813611 Z M410.329923,198.492628 L399.531734,198.492628 L399.531734,192.721739 L399.291775,192.721739 C397.852009,195.126288 395.985674,196.862881 393.692714,197.931569 C391.399753,199.000257 389.053504,199.534594 386.653894,199.534594 C383.614389,199.534594 381.121498,199.133841 379.175149,198.332325 C377.228799,197.530809 375.695738,196.395344 374.57592,194.925898 C373.456102,193.456451 372.669575,191.666425 372.216316,189.555766 C371.763056,187.445106 371.53643,185.107385 371.53643,182.542533 L371.53643,157.054442 L382.894525,157.054442 L382.894525,180.458601 C382.894525,183.878404 383.427763,186.429859 384.494256,188.113043 C385.56075,189.796228 387.453746,190.637807 390.173304,190.637807 C393.266134,190.637807 395.505736,189.716077 396.892177,187.87259 C398.278618,186.029102 398.971828,182.996744 398.971828,178.775425 L398.971828,157.054442 L410.329923,157.054442 L410.329923,198.492628 Z M439.844973,191.038563 C441.711336,191.038563 443.271059,190.664528 444.524188,189.916446 C445.777318,189.168364 446.790471,188.193201 447.563679,186.990926 C448.336886,185.788652 448.883456,184.386019 449.203404,182.782987 C449.523352,181.179954 449.683323,179.550229 449.683323,177.893762 C449.683323,176.237295 449.510021,174.607569 449.16341,173.004537 C448.8168,171.401504 448.243569,169.972155 447.443699,168.716446 C446.643829,167.460737 445.617345,166.445499 444.364215,165.670699 C443.111086,164.8959 441.578025,164.508507 439.764987,164.508507 C437.898624,164.508507 436.338901,164.8959 435.085771,165.670699 C433.832642,166.445499 432.819489,167.447379 432.046281,168.676371 C431.273074,169.905362 430.726504,171.321353 430.406556,172.924386 C430.086608,174.527418 429.926637,176.18386 429.926637,177.893762 C429.926637,179.550229 430.099939,181.179954 430.446549,182.782987 C430.79316,184.386019 431.35306,185.788652 432.126268,186.990926 C432.899475,188.193201 433.925959,189.168364 435.205751,189.916446 C436.485543,190.664528 438.031935,191.038563 439.844973,191.038563 Z M418.968475,157.054442 L429.766663,157.054442 L429.766663,162.344423 L429.926637,162.344423 C431.313078,160.100178 433.072765,158.470452 435.205751,157.455198 C437.338738,156.439945 439.684987,155.932325 442.244571,155.932325 C445.497375,155.932325 448.296877,156.546812 450.643162,157.775803 C452.989447,159.004795 454.935768,160.63452 456.482183,162.665028 C458.028598,164.695536 459.175061,167.059974 459.921606,169.758412 C460.668151,172.45685 461.041418,175.275474 461.041418,178.214367 C461.041418,180.992957 460.668151,183.664637 459.921606,186.22949 C459.175061,188.794342 458.041929,191.065271 456.522176,193.042344 C455.002423,195.019418 453.109426,196.595709 450.843129,197.771267 C448.576831,198.946824 445.923969,199.534594 442.884463,199.534594 C440.32488,199.534594 437.965299,199.013616 435.805651,197.971645 C433.646002,196.929673 431.872984,195.393457 430.486543,193.362949 L430.32657,193.362949 L430.32657,213 L418.968475,213 L418.968475,157.054442 Z" id="Knowledge-Futures-Gr" fill="#000000"></path>
    </g>
</svg>