<svg width="655" height="200" viewBox="0 0 655 200" fill="none" xmlns="http://www.w3.org/2000/svg">
<path fill-rule="evenodd" clip-rule="evenodd" d="M0 100L90 0H124.979L34.9794 100L124.979 200H90L0 100Z" fill="#000"/>
<path fill-rule="evenodd" clip-rule="evenodd" d="M69.9587 99.9999L81.6587 86.9999H133.32L107.49 58.299L124.979 38.866L180 99.9999L124.979 161.134L107.49 141.701L133.32 113H81.6587L69.9587 99.9999Z" fill="#000"/>
<path fill-rule="evenodd" clip-rule="evenodd" d="M233.479 36H246.037V59.7248L268.354 36H284.031L261.715 58.6026L286.191 93.228H270.433L253.236 67.4994L246.037 74.7932V93.228H233.479V36ZM290.03 51.7898H300.828V57.5607H301.068C302.508 55.1561 304.374 53.4062 306.667 52.3108C308.96 51.2154 311.306 50.6677 313.706 50.6677C316.746 50.6677 319.238 51.0818 321.185 51.91C323.131 52.7383 324.664 53.8871 325.784 55.3565C326.904 56.826 327.69 58.616 328.144 60.7267C328.597 62.8373 328.823 65.175 328.823 67.7399V93.228H317.465V69.8238C317.465 66.404 316.932 63.8526 315.866 62.1694C314.799 60.4862 312.906 59.6446 310.187 59.6446C307.094 59.6446 304.854 60.5663 303.468 62.4098C302.081 64.2533 301.388 67.2857 301.388 71.507V93.228H290.03V51.7898ZM347.54 72.549C347.54 74.2054 347.7 75.8218 348.02 77.3981C348.34 78.9744 348.887 80.3904 349.66 81.6461C350.433 82.9018 351.46 83.9037 352.74 84.6518C354.019 85.3999 355.619 85.7739 357.539 85.7739C359.458 85.7739 361.071 85.3999 362.378 84.6518C363.684 83.9037 364.724 82.9018 365.497 81.6461C366.271 80.3904 366.817 78.9744 367.137 77.3981C367.457 75.8218 367.617 74.2054 367.617 72.549C367.617 70.8925 367.457 69.2628 367.137 67.6597C366.817 66.0567 366.271 64.6407 365.497 63.4117C364.724 62.1827 363.684 61.1809 362.378 60.4061C361.071 59.6313 359.458 59.2439 357.539 59.2439C355.619 59.2439 354.019 59.6313 352.74 60.4061C351.46 61.1809 350.433 62.1827 349.66 63.4117C348.887 64.6407 348.34 66.0567 348.02 67.6597C347.7 69.2628 347.54 70.8925 347.54 72.549ZM336.182 72.549C336.182 69.236 336.689 66.2304 337.702 63.5319C338.715 60.8335 340.155 58.5359 342.021 56.6389C343.888 54.742 346.127 53.2726 348.74 52.2306C351.353 51.1887 354.286 50.6677 357.539 50.6677C360.792 50.6677 363.738 51.1887 366.377 52.2306C369.017 53.2726 371.27 54.742 373.136 56.6389C375.002 58.5359 376.442 60.8335 377.455 63.5319C378.469 66.2304 378.975 69.236 378.975 72.549C378.975 75.8619 378.469 78.8542 377.455 81.5259C376.442 84.1976 375.002 86.4819 373.136 88.3788C371.27 90.2757 369.017 91.7318 366.377 92.7471C363.738 93.7623 360.792 94.2699 357.539 94.2699C354.286 94.2699 351.353 93.7623 348.74 92.7471C346.127 91.7318 343.888 90.2757 342.021 88.3788C340.155 86.4819 338.715 84.1976 337.702 81.5259C336.689 78.8542 336.182 75.8619 336.182 72.549ZM433.606 93.228H421.928L414.569 65.4155H414.409L407.37 93.228H395.612L382.495 51.7898H394.492L402.091 79.9229H402.251L409.13 51.7898H420.168L427.207 79.8427H427.367L434.966 51.7898H446.644L433.606 93.228ZM451.763 36H463.121V93.228H451.763V36ZM499.915 68.0605C499.382 65.175 498.435 62.9843 497.075 61.4881C495.716 59.9919 493.649 59.2439 490.876 59.2439C489.063 59.2439 487.557 59.5511 486.357 60.1656C485.157 60.7801 484.197 61.5415 483.478 62.4499C482.758 63.3583 482.251 64.3201 481.958 65.3354C481.665 66.3506 481.491 67.259 481.438 68.0605H499.915ZM481.438 75.2741C481.598 78.9611 482.531 81.6328 484.237 83.2892C485.944 84.9457 488.397 85.7739 491.596 85.7739C493.889 85.7739 495.862 85.1995 497.515 84.0507C499.168 82.9018 500.181 81.6862 500.555 80.4038H510.553C508.953 85.3732 506.5 88.9265 503.194 91.0639C499.888 93.2013 495.889 94.2699 491.196 94.2699C487.943 94.2699 485.011 93.749 482.398 92.707C479.785 91.665 477.572 90.1822 475.759 88.2586C473.946 86.335 472.546 84.0373 471.56 81.3656C470.573 78.6939 470.08 75.755 470.08 72.549C470.08 69.4498 470.586 66.5643 471.6 63.8926C472.613 61.2209 474.052 58.9099 475.919 56.9595C477.785 55.0092 480.011 53.473 482.598 52.3509C485.184 51.2287 488.05 50.6677 491.196 50.6677C494.716 50.6677 497.782 51.349 500.395 52.7115C503.008 54.0741 505.154 55.9042 506.834 58.2019C508.513 60.4996 509.726 63.1178 510.473 66.0567C511.22 68.9956 511.486 72.068 511.273 75.2741H481.438ZM547.347 72.3887C547.347 70.6788 547.187 69.0357 546.867 67.4594C546.547 65.883 546 64.4938 545.227 63.2915C544.454 62.0892 543.454 61.1141 542.228 60.366C541.001 59.6179 539.455 59.2439 537.588 59.2439C535.722 59.2439 534.149 59.6179 532.869 60.366C531.59 61.1141 530.563 62.1026 529.79 63.3316C529.017 64.5606 528.457 65.9632 528.11 67.5395C527.763 69.1158 527.59 70.7589 527.59 72.4688C527.59 74.0718 527.777 75.6748 528.15 77.2779C528.523 78.8809 529.123 80.3103 529.95 81.566C530.776 82.8217 531.816 83.8369 533.069 84.6117C534.322 85.3865 535.829 85.7739 537.588 85.7739C539.455 85.7739 541.015 85.3999 542.268 84.6518C543.521 83.9037 544.521 82.9018 545.267 81.6461C546.014 80.3904 546.547 78.9611 546.867 77.358C547.187 75.755 547.347 74.0986 547.347 72.3887ZM547.507 87.938H547.347C546.014 90.1822 544.267 91.7986 542.108 92.7871C539.948 93.7757 537.509 94.2699 534.789 94.2699C531.696 94.2699 528.977 93.6688 526.63 92.4665C524.284 91.2643 522.351 89.6345 520.831 87.5773C519.312 85.5201 518.165 83.1557 517.392 80.4839C516.619 77.8122 516.232 75.0337 516.232 72.1482C516.232 69.3696 516.619 66.6846 517.392 64.093C518.165 61.5014 519.312 59.2171 520.831 57.2401C522.351 55.263 524.257 53.6734 526.55 52.4711C528.843 51.2688 531.509 50.6677 534.549 50.6677C537.002 50.6677 539.335 51.1887 541.548 52.2306C543.761 53.2726 545.507 54.8088 546.787 56.8393H546.947V36H558.305V93.228H547.507V87.938ZM586.14 83.4495C587.74 83.4495 589.153 83.1289 590.38 82.4877C591.606 81.8465 592.619 80.9916 593.419 79.9229C594.219 78.8542 594.819 77.6386 595.219 76.276C595.619 74.9134 595.819 73.4841 595.819 71.9879C595.819 70.278 595.659 68.6616 595.339 67.1388C595.019 65.6159 594.486 64.2667 593.739 63.0911C592.992 61.9156 592.006 60.9805 590.78 60.2858C589.553 59.5912 588.007 59.2439 586.14 59.2439C584.541 59.2439 583.168 59.5645 582.021 60.2057C580.875 60.8469 579.915 61.7152 579.142 62.8106C578.368 63.906 577.808 65.1617 577.462 66.5777C577.115 67.9937 576.942 69.4765 576.942 71.0261C576.942 72.5223 577.089 74.005 577.382 75.4745C577.675 76.9439 578.182 78.2664 578.902 79.442C579.621 80.6175 580.568 81.5793 581.741 82.3274C582.914 83.0755 584.381 83.4495 586.14 83.4495ZM606.617 90.583C606.617 92.2395 606.39 94.1364 605.937 96.2737C605.484 98.4111 604.511 100.402 603.017 102.245C601.524 104.088 599.365 105.651 596.539 106.934C593.712 108.216 589.926 108.857 585.181 108.857C583.154 108.857 581.088 108.604 578.982 108.096C576.875 107.588 574.956 106.8 573.223 105.732C571.489 104.663 570.05 103.287 568.903 101.604C567.757 99.9206 567.104 97.9035 566.944 95.5524H578.222C578.755 97.6897 579.795 99.1725 581.341 100.001C582.888 100.829 584.674 101.243 586.7 101.243C589.9 101.243 592.233 100.281 593.699 98.3577C595.165 96.434 595.872 94.0028 595.819 91.0639V85.6136H595.659C594.432 87.8044 592.686 89.4208 590.42 90.4628C588.153 91.5047 585.767 92.0257 583.261 92.0257C580.168 92.0257 577.502 91.478 575.262 90.3826C573.023 89.2872 571.183 87.7911 569.743 85.8941C568.303 83.9972 567.25 81.7797 566.584 79.2416C565.917 76.7035 565.584 74.0184 565.584 71.1864C565.584 68.5147 565.97 65.9365 566.744 63.4518C567.517 60.9671 568.65 58.7763 570.143 56.8794C571.636 54.9825 573.489 53.473 575.702 52.3509C577.915 51.2287 580.461 50.6677 583.341 50.6677C586.06 50.6677 588.447 51.1753 590.5 52.1905C592.553 53.2058 594.272 54.9157 595.659 57.3202H595.819V51.7898H606.617V90.583ZM643.571 68.0605C643.037 65.175 642.091 62.9843 640.731 61.4881C639.371 59.9919 637.305 59.2439 634.532 59.2439C632.719 59.2439 631.213 59.5511 630.013 60.1656C628.813 60.7801 627.853 61.5415 627.133 62.4499C626.414 63.3583 625.907 64.3201 625.614 65.3354C625.32 66.3506 625.147 67.259 625.094 68.0605H643.571ZM625.094 75.2741C625.254 78.9611 626.187 81.6328 627.893 83.2892C629.6 84.9457 632.053 85.7739 635.252 85.7739C637.545 85.7739 639.518 85.1995 641.171 84.0507C642.824 82.9018 643.837 81.6862 644.211 80.4038H654.209C652.609 85.3732 650.156 88.9265 646.85 91.0639C643.544 93.2013 639.545 94.2699 634.852 94.2699C631.599 94.2699 628.667 93.749 626.054 92.707C623.441 91.665 621.228 90.1822 619.415 88.2586C617.602 86.335 616.202 84.0373 615.215 81.3656C614.229 78.6939 613.736 75.755 613.736 72.549C613.736 69.4498 614.242 66.5643 615.255 63.8926C616.269 61.2209 617.708 58.9099 619.575 56.9595C621.441 55.0092 623.667 53.473 626.254 52.3509C628.84 51.2287 631.706 50.6677 634.852 50.6677C638.372 50.6677 641.438 51.349 644.051 52.7115C646.664 54.0741 648.81 55.9042 650.49 58.2019C652.169 60.4996 653.382 63.1178 654.129 66.0567C654.875 68.9956 655.142 72.068 654.929 75.2741H625.094ZM233.479 106.132H273.633V116.712H246.037V129.937H269.953V139.716H246.037V163.36H233.479V106.132ZM318.505 163.36H307.707V157.589H307.467C306.027 159.994 304.161 161.731 301.868 162.799C299.575 163.868 297.229 164.402 294.829 164.402C291.79 164.402 289.297 164.002 287.35 163.2C285.404 162.398 283.871 161.263 282.751 159.794C281.631 158.324 280.845 156.534 280.392 154.423C279.938 152.313 279.712 149.975 279.712 147.41V121.922H291.07V145.326C291.07 148.746 291.603 151.298 292.67 152.981C293.736 154.664 295.629 155.505 298.349 155.505C301.441 155.505 303.681 154.584 305.067 152.74C306.454 150.897 307.147 147.864 307.147 143.643V121.922H318.505V163.36ZM341.541 121.922H349.86V129.536H341.541V150.055C341.541 151.979 341.861 153.261 342.501 153.902C343.141 154.544 344.421 154.864 346.341 154.864C346.98 154.864 347.594 154.838 348.18 154.784C348.767 154.731 349.327 154.651 349.86 154.544V163.36C348.9 163.521 347.834 163.627 346.661 163.681C345.487 163.734 344.341 163.761 343.221 163.761C341.461 163.761 339.795 163.641 338.222 163.4C336.649 163.16 335.262 162.692 334.063 161.998C332.863 161.303 331.916 160.315 331.223 159.032C330.53 157.75 330.183 156.067 330.183 153.983V129.536H323.304V121.922H330.183V109.499H341.541V121.922ZM394.093 163.36H383.294V157.589H383.054C381.615 159.994 379.748 161.731 377.455 162.799C375.162 163.868 372.816 164.402 370.417 164.402C367.377 164.402 364.884 164.002 362.938 163.2C360.991 162.398 359.458 161.263 358.339 159.794C357.219 158.324 356.432 156.534 355.979 154.423C355.526 152.313 355.299 149.975 355.299 147.41V121.922H366.657V145.326C366.657 148.746 367.19 151.298 368.257 152.981C369.323 154.664 371.216 155.505 373.936 155.505C377.029 155.505 379.268 154.584 380.655 152.74C382.041 150.897 382.734 147.864 382.734 143.643V121.922H394.093V163.36ZM402.731 121.922H413.529V129.617H413.689C414.223 128.334 414.942 127.145 415.849 126.05C416.755 124.954 417.795 124.019 418.968 123.245C420.142 122.47 421.395 121.869 422.728 121.441C424.061 121.014 425.447 120.8 426.887 120.8C427.634 120.8 428.46 120.934 429.367 121.201V131.781C428.833 131.674 428.194 131.58 427.447 131.5C426.7 131.42 425.981 131.38 425.287 131.38C423.208 131.38 421.448 131.727 420.008 132.422C418.568 133.117 417.409 134.065 416.529 135.267C415.649 136.47 415.022 137.872 414.649 139.475C414.276 141.078 414.089 142.815 414.089 144.685V163.36H402.731V121.922ZM460.241 138.193C459.708 135.307 458.762 133.117 457.402 131.62C456.042 130.124 453.976 129.376 451.203 129.376C449.39 129.376 447.884 129.683 446.684 130.298C445.484 130.912 444.524 131.674 443.804 132.582C443.084 133.491 442.578 134.452 442.284 135.468C441.991 136.483 441.818 137.391 441.765 138.193H460.241ZM441.765 145.406C441.925 149.093 442.858 151.765 444.564 153.422C446.27 155.078 448.723 155.906 451.923 155.906C454.216 155.906 456.189 155.332 457.842 154.183C459.495 153.034 460.508 151.819 460.881 150.536H470.88C469.28 155.506 466.827 159.059 463.521 161.196C460.215 163.334 456.215 164.402 451.523 164.402C448.27 164.402 445.337 163.881 442.724 162.839C440.111 161.797 437.899 160.315 436.086 158.391C434.272 156.467 432.873 154.17 431.886 151.498C430.9 148.826 430.406 145.887 430.406 142.681C430.406 139.582 430.913 136.697 431.926 134.025C432.939 131.353 434.379 129.042 436.245 127.092C438.112 125.142 440.338 123.605 442.924 122.483C445.511 121.361 448.377 120.8 451.523 120.8C455.042 120.8 458.108 121.481 460.721 122.844C463.334 124.206 465.481 126.037 467.16 128.334C468.84 130.632 470.053 133.25 470.8 136.189C471.546 139.128 471.813 142.2 471.6 145.406H441.765ZM487.117 149.895C487.117 151.124 487.37 152.179 487.877 153.061C488.383 153.943 489.037 154.664 489.836 155.225C490.636 155.786 491.556 156.2 492.596 156.467C493.636 156.734 494.716 156.868 495.835 156.868C496.635 156.868 497.475 156.775 498.355 156.588C499.235 156.401 500.035 156.107 500.755 155.706C501.475 155.305 502.074 154.771 502.554 154.103C503.034 153.435 503.274 152.593 503.274 151.578C503.274 149.868 502.141 148.586 499.875 147.731C497.609 146.876 494.449 146.021 490.396 145.166C488.743 144.792 487.13 144.351 485.557 143.843C483.984 143.336 482.584 142.668 481.358 141.84C480.131 141.011 479.145 139.97 478.398 138.714C477.652 137.458 477.279 135.922 477.279 134.105C477.279 131.433 477.799 129.243 478.838 127.533C479.878 125.823 481.251 124.474 482.958 123.485C484.664 122.497 486.584 121.802 488.717 121.401C490.85 121 493.036 120.8 495.276 120.8C497.515 120.8 499.688 121.014 501.794 121.441C503.901 121.869 505.78 122.59 507.434 123.605C509.087 124.621 510.46 125.97 511.553 127.653C512.646 129.336 513.299 131.46 513.513 134.025H502.714C502.554 131.834 501.728 130.351 500.235 129.577C498.742 128.802 496.982 128.414 494.956 128.414C494.316 128.414 493.623 128.454 492.876 128.535C492.129 128.615 491.45 128.788 490.836 129.056C490.223 129.323 489.703 129.71 489.277 130.218C488.85 130.725 488.637 131.407 488.637 132.262C488.637 133.277 489.01 134.105 489.757 134.746C490.503 135.388 491.476 135.909 492.676 136.309C493.876 136.71 495.249 137.071 496.795 137.391C498.342 137.712 499.915 138.059 501.515 138.433C503.168 138.807 504.781 139.261 506.354 139.796C507.927 140.33 509.327 141.038 510.553 141.92C511.779 142.802 512.766 143.897 513.513 145.206C514.259 146.515 514.632 148.132 514.632 150.055C514.632 152.78 514.086 155.065 512.993 156.908C511.899 158.752 510.473 160.234 508.713 161.357C506.954 162.479 504.941 163.267 502.674 163.721C500.408 164.175 498.102 164.402 495.755 164.402C493.356 164.402 491.01 164.162 488.717 163.681C486.424 163.2 484.384 162.398 482.598 161.276C480.811 160.154 479.345 158.671 478.198 156.828C477.052 154.984 476.425 152.673 476.319 149.895H487.117Z" fill="#000"/>
</svg>
