<svg width="115" height="115" viewBox="0 0 115 115" fill="none" xmlns="http://www.w3.org/2000/svg">
<path d="M37.5808 44.3749L38.3308 44.3674L38.3308 44.3674L37.5808 44.3749ZM39.3462 43.6816L38.761 44.1508L38.761 44.1508L39.3462 43.6816ZM37.2646 51.9101L38.0127 51.9633L38.0127 51.9633L37.2646 51.9101ZM35.108 52.2954L34.4421 52.6404L34.4421 52.6404L35.108 52.2954ZM28.6449 45.7702L28.9857 45.1021L28.9857 45.1021L28.6449 45.7702ZM27.3008 46.8114L28.0387 46.6775L28.0387 46.6774L27.3008 46.8114ZM27.5347 48.1004L28.2726 47.9665L28.2726 47.9665L27.5347 48.1004ZM26.2463 48.7752L25.716 49.3056L25.716 49.3056L26.2463 48.7752ZM24.9887 49.5528L25.7001 49.3154L25.7001 49.3153L24.9887 49.5528ZM25.2736 50.4064L25.985 50.1691L25.985 50.169L25.2736 50.4064ZM23.9547 51.6034L24.2593 50.918L24.2593 50.918L23.9547 51.6034ZM21.4709 50.4999L21.1664 51.1854L21.1664 51.1854L21.4709 50.4999ZM19.4519 49.603L19.7564 48.9177L19.7564 48.9177L19.4519 49.603ZM18.1427 50.9492L17.4661 51.2728L17.4661 51.2728L18.1427 50.9492ZM19.7183 54.2442L19.0417 54.5678L19.0417 54.5678L19.7183 54.2442ZM20.6644 56.2229L19.9878 56.5464L19.9878 56.5464L20.6644 56.2229ZM19.1805 57.4113L19.6306 56.8114L19.6306 56.8114L19.1805 57.4113ZM12.373 54.084L12.5358 53.3519L12.5358 53.3519L12.373 54.084ZM12.0156 54.5779L11.3645 54.9502L11.3645 54.9502L12.0156 54.5779ZM13.9707 57.9994L14.622 57.6274L14.622 57.6274L13.9707 57.9994ZM15.9244 61.4183L16.5755 61.0461L16.5755 61.0461L15.9244 61.4183ZM15.569 61.9452L15.4676 62.6883L15.4676 62.6883L15.569 61.9452ZM10.4707 61.25L10.3693 61.9931L10.3693 61.9931L10.4707 61.25ZM7.26405 60.8128L7.36539 60.0696L7.36539 60.0696L7.26405 60.8128ZM6.31568 62.3835L6.92591 61.9475L6.92591 61.9475L6.31568 62.3835ZM7.47106 64L8.08118 63.5638L8.08118 63.5638L7.47106 64ZM8.37286 65.2615L7.76267 65.6976L7.76267 65.6976L8.37286 65.2615ZM7.24751 67.214L7.29931 67.9622L7.29931 67.9622L7.24751 67.214ZM4.33837 67.8651L4.55946 68.5818L4.55946 68.5818L4.33837 67.8651ZM3.22039 68.1981L3.0195 67.4755L3.0195 67.4755L3.22039 68.1981ZM2.53593 69.6542L3.20519 69.3157L3.20519 69.3157L2.53593 69.6542ZM6.04247 73.9548L5.6465 74.5917L5.6465 74.5917L6.04247 73.9548ZM6.07168 76.1294L5.75237 75.4508L5.75237 75.4508L6.07168 76.1294ZM4.21185 77.0044L4.53111 77.683L4.53111 77.683L4.21185 77.0044ZM1.56531 78.2496L1.24595 77.5709L1.24594 77.5709L1.56531 78.2496ZM1.47453 79.918L1.83747 79.2616L1.83747 79.2616L1.47453 79.918ZM7.71781 82.4952L7.9633 81.7865L7.9633 81.7865L7.71781 82.4952ZM10.435 83.464L10.699 82.762L10.699 82.762L10.435 83.464ZM10.337 85.252L10.1311 84.5308L10.1308 84.5309L10.337 85.252ZM9.84629 85.3923L9.64008 84.6712L9.63973 84.6713L9.84629 85.3923ZM9.27604 85.8383L8.61784 85.4787L8.61784 85.4787L9.27604 85.8383ZM7.72073 92.6528L6.9739 92.5838L6.9739 92.5838L7.72073 92.6528ZM7.52167 94.6046L6.77714 94.5142L6.77714 94.5142L7.52167 94.6046ZM7.70547 95.3216L8.30934 94.8768L8.30934 94.8768L7.70547 95.3216ZM23.9711 108.5L24.2562 107.806L24.256 107.806L23.9711 108.5ZM65.9668 92.0643L65.217 92.0478L65.217 92.0478L65.9668 92.0643ZM65.4899 91.2238L65.1337 91.8838L65.1337 91.8838L65.4899 91.2238ZM59.0335 89.2598L58.9408 90.0041L58.9408 90.0041L59.0335 89.2598ZM58.6541 87.6026L58.5168 86.8652L58.5168 86.8652L58.6541 87.6026ZM69.6705 88.1289L69.4744 88.8529L69.4744 88.8529L69.6705 88.1289ZM71.1081 86.6959L70.4676 87.0862L70.4676 87.0862L71.1081 86.6959ZM69.913 85.658L69.6054 86.3421L69.6054 86.3421L69.913 85.658ZM69.6281 83.672L70.021 84.3109L70.021 84.3109L69.6281 83.672ZM70.7227 82.999L71.1155 83.638L71.1155 83.638L70.7227 82.999ZM73.7691 81.1245L74.1627 81.763L74.1627 81.763L73.7691 81.1245ZM68.4998 76.5977L69.137 76.9933L69.137 76.9932L68.4998 76.5977ZM71.8721 73.2056L72.2362 73.8613L72.2362 73.8613L71.8721 73.2056ZM71.994 71.5735L71.6788 72.2541L71.6788 72.2541L71.994 71.5735ZM59.9711 72L59.5388 71.3872L60.3138 72.6672L59.9711 72ZM64.2238 68.9981L63.7912 68.3854L63.7912 68.3854L64.2238 68.9981ZM68.3461 66.0882L67.9138 65.4753L67.9138 65.4753L68.3461 66.0882ZM68.5391 65.8628L67.8677 65.5286L67.8676 65.5286L68.5391 65.8628ZM62.6934 63.5539L63.3643 63.8893L63.3643 63.8893L62.6934 63.5539ZM63.7217 61.4988L64.3924 61.8345L64.3924 61.8345L63.7217 61.4988ZM64.662 59.6197L65.3328 59.9552L65.3328 59.9552L64.662 59.6197ZM63.6695 58.1799L63.7444 58.9261L63.7444 58.9261L63.6695 58.1799ZM62.9715 58.25L62.8965 57.5037L62.8965 57.5037L62.9715 58.25ZM61.8119 58.3664L61.8866 59.1126L61.8866 59.1126L61.8119 58.3664ZM60.7354 57.1788L61.4707 57.3267L61.4707 57.3267L60.7354 57.1788ZM60.8476 56.6205L61.583 56.7678L61.583 56.7678L60.8476 56.6205ZM60.4151 55.7029L60.6559 54.9926L60.6559 54.9926L60.4151 55.7029ZM57.2161 57.0067L57.7093 57.5718L57.7093 57.5718L57.2161 57.0067ZM55.7752 56.1067L55.0525 55.906L55.0525 55.906L55.7752 56.1067ZM56.2216 54.4981L56.9443 54.6986L56.9443 54.6986L56.2216 54.4981ZM56.9517 51.868L56.2291 51.6672L56.2291 51.6672L56.9517 51.868ZM55.6667 50.7086L55.9629 51.3976L55.9629 51.3976L55.6667 50.7086ZM48.5188 57.8037L49.2456 57.9889L49.2456 57.9889L48.5188 57.8037ZM48.0209 57.7039L47.2812 57.5801L47.2812 57.5801L48.0209 57.7039ZM48.5132 44.842L49.2579 44.7525L49.2579 44.7525L48.5132 44.842ZM47.8593 44.6096L47.3291 44.0791L47.3291 44.0792L47.8593 44.6096ZM44.4905 53.2384L45.2381 53.2984L45.2381 53.2984L44.4905 53.2384ZM43.9306 53.2647L44.6689 53.1329L44.6689 53.1329L43.9306 53.2647ZM38.3308 44.3674C38.3295 44.235 38.4038 44.1365 38.5159 44.0917C38.571 44.0697 38.6196 44.0684 38.6538 44.0762C38.6817 44.0824 38.7188 44.098 38.761 44.1508L39.9313 43.2124C39.4012 42.5514 38.5919 42.4459 37.9591 42.6989C37.3345 42.9486 36.8228 43.5667 36.8308 44.3823L38.3308 44.3674ZM38.0127 51.9633C38.1893 49.4818 38.3569 47.0083 38.3308 44.3674L36.8308 44.3823C36.8563 46.9551 36.6933 49.3729 36.5164 51.8568L38.0127 51.9633ZM34.4421 52.6404C34.8736 53.4731 35.7601 53.7255 36.472 53.6013C37.188 53.4764 37.9441 52.9272 38.0127 51.9633L36.5164 51.8568C36.5111 51.9313 36.4846 51.978 36.4448 52.0164C36.3977 52.0617 36.3186 52.1054 36.2142 52.1236C35.9905 52.1627 35.8369 52.0718 35.7739 51.9503L34.4421 52.6404ZM28.304 46.4382C31.3368 47.9858 32.9796 49.8178 34.4421 52.6404L35.7739 51.9503C34.1865 48.8866 32.3321 46.8097 28.9857 45.1021L28.304 46.4382ZM28.0387 46.6774C28.0203 46.5759 28.0588 46.4991 28.1171 46.4535C28.1466 46.4304 28.1771 46.4191 28.2033 46.416C28.2263 46.4134 28.2589 46.4152 28.304 46.4382L28.9857 45.1021C27.6765 44.434 26.3203 45.61 26.5628 46.9454L28.0387 46.6774ZM28.2726 47.9665L28.0387 46.6775L26.5628 46.9453L26.7967 48.2343L28.2726 47.9665ZM25.716 49.3056C26.7636 50.3532 28.5371 49.424 28.2726 47.9665L26.7967 48.2343C26.7978 48.2404 26.798 48.2442 26.798 48.2458C26.7981 48.2475 26.7979 48.2478 26.7981 48.2469C26.7984 48.2448 26.7993 48.242 26.8005 48.2398C26.8015 48.2379 26.8017 48.2382 26.7999 48.2399C26.798 48.2418 26.7948 48.2444 26.7904 48.2467C26.7859 48.249 26.782 48.2502 26.7794 48.2507C26.7769 48.2512 26.7768 48.2508 26.7789 48.2511C26.7814 48.2514 26.7843 48.2522 26.7862 48.2532C26.787 48.2536 26.7867 48.2535 26.7854 48.2525C26.784 48.2516 26.781 48.2493 26.7767 48.2449L25.716 49.3056ZM25.7001 49.3153C25.6976 49.3078 25.6967 49.303 25.6964 49.3009C25.6961 49.2988 25.6962 49.2986 25.6962 49.2998C25.6961 49.301 25.696 49.3028 25.6955 49.3051C25.695 49.3072 25.6944 49.3092 25.6938 49.3107C25.6925 49.3138 25.6919 49.314 25.6936 49.312C25.6954 49.3099 25.6988 49.3067 25.7038 49.3036C25.7088 49.3005 25.7132 49.2989 25.7159 49.2982C25.7184 49.2976 25.718 49.2981 25.7147 49.2978C25.713 49.2977 25.711 49.2974 25.7088 49.2968C25.7067 49.2963 25.7049 49.2956 25.7038 49.2951C25.7027 49.2946 25.703 49.2946 25.7048 49.2958C25.7065 49.297 25.7104 49.2999 25.716 49.3056L26.7767 48.2449C25.6495 47.1177 23.7725 48.2779 24.2773 49.7902L25.7001 49.3153ZM25.985 50.169L25.7001 49.3154L24.2773 49.7902L24.5622 50.6438L25.985 50.169ZM23.6502 52.2887C25.0183 52.8968 26.4595 51.5911 25.985 50.1691L24.5621 50.6438C24.6233 50.8271 24.4377 50.9973 24.2593 50.918L23.6502 52.2887ZM21.1664 51.1854C21.9944 51.5531 22.8223 51.9208 23.6502 52.2887L24.2593 50.918C23.4313 50.55 22.6033 50.1822 21.7753 49.8145L21.1664 51.1854ZM19.1474 50.2884C19.8204 50.5875 20.4935 50.8864 21.1664 51.1854L21.7753 49.8145C21.1023 49.5156 20.4294 49.2167 19.7564 48.9177L19.1474 50.2884ZM18.8193 50.6256C18.719 50.4159 18.9344 50.1938 19.1474 50.2884L19.7564 48.9177C18.27 48.2572 16.7641 49.8049 17.4661 51.2728L18.8193 50.6256ZM20.395 53.9207C19.8698 52.8224 19.3447 51.7241 18.8193 50.6256L17.4661 51.2728C17.9914 52.3712 18.5166 53.4695 19.0417 54.5678L20.395 53.9207ZM21.3411 55.8993C21.0257 55.2398 20.7103 54.5802 20.395 53.9207L19.0417 54.5678C19.3571 55.2273 19.6724 55.8868 19.9878 56.5464L21.3411 55.8993ZM18.7304 58.0113C20.1558 59.0808 22.157 57.6055 21.3411 55.8993L19.9878 56.5464C20.028 56.6305 20.0231 56.6835 20.0155 56.7135C20.0062 56.7502 19.9822 56.7906 19.9406 56.8238C19.8989 56.8571 19.8502 56.8745 19.8046 56.8761C19.7653 56.8775 19.7066 56.8684 19.6306 56.8114L18.7304 58.0113ZM12.2103 54.8161C14.8824 55.4101 16.8581 56.6064 18.7304 58.0113L19.6306 56.8114C17.6707 55.3409 15.4979 54.0103 12.5358 53.3519L12.2103 54.8161ZM12.7211 54.4108C12.7211 54.6638 12.485 54.8772 12.2103 54.8161L12.5358 53.3519C11.8461 53.1985 11.2211 53.7326 11.2211 54.4108H12.7211ZM12.6667 54.2057C12.7018 54.267 12.7211 54.3379 12.7211 54.4108H11.2211C11.2211 54.6012 11.2711 54.7867 11.3645 54.9502L12.6667 54.2057ZM14.622 57.6274C13.9707 56.4873 13.3193 55.3471 12.6667 54.2057L11.3645 54.9502C12.0169 56.0913 12.6682 57.2313 13.3195 58.3714L14.622 57.6274ZM16.5755 61.0461C15.9236 59.9058 15.2728 58.7666 14.622 57.6274L13.3195 58.3714C13.9703 59.5107 14.6212 60.65 15.2733 61.7905L16.5755 61.0461ZM16.7211 61.5937C16.7211 61.4004 16.6704 61.212 16.5755 61.0461L15.2733 61.7905C15.2396 61.7317 15.2211 61.6636 15.2211 61.5937H16.7211ZM15.4676 62.6883C16.132 62.7789 16.7211 62.2615 16.7211 61.5937H15.2211C15.2211 61.3552 15.4313 61.1694 15.6703 61.202L15.4676 62.6883ZM10.3693 61.9931C12.0691 62.2248 13.7688 62.4565 15.4676 62.6883L15.6703 61.202C13.9715 60.9703 12.2717 60.7386 10.572 60.5068L10.3693 61.9931ZM7.16272 61.5559C8.23143 61.7016 9.30039 61.8474 10.3693 61.9931L10.572 60.5068C9.50301 60.3611 8.43408 60.2154 7.36539 60.0696L7.16272 61.5559ZM6.92591 61.9475C6.79914 61.7701 6.94527 61.5262 7.16272 61.5559L7.36539 60.0696C5.84623 59.8625 4.81329 61.5709 5.70544 62.8195L6.92591 61.9475ZM8.08118 63.5638C7.696 63.025 7.31089 62.4863 6.92591 61.9475L5.70544 62.8195C6.09055 63.3585 6.47578 63.8974 6.86094 64.4361L8.08118 63.5638ZM8.98305 64.8255C8.68245 64.4048 8.3818 63.9843 8.08118 63.5638L6.86094 64.4361C7.16156 64.8567 7.46215 65.2771 7.76267 65.6976L8.98305 64.8255ZM7.29931 67.9622C8.04798 67.9103 8.66781 67.4445 9.00508 66.8865C9.34556 66.3232 9.4763 65.5156 8.98305 64.8255L7.76267 65.6976C7.81247 65.7673 7.84639 65.9037 7.72137 66.1105C7.59314 66.3227 7.37878 66.4531 7.19572 66.4658L7.29931 67.9622ZM4.55946 68.5818C5.55208 68.2756 6.36936 68.0266 7.29931 67.9622L7.19572 66.4658C6.06677 66.5439 5.08916 66.8486 4.11727 67.1485L4.55946 68.5818ZM3.42129 68.9207C3.82387 68.8088 4.20279 68.6918 4.55946 68.5818L4.11727 67.1485C3.75814 67.2593 3.39873 67.3701 3.0195 67.4755L3.42129 68.9207ZM3.20519 69.3157C3.17268 69.2514 3.17054 69.177 3.20842 69.0981C3.24805 69.0156 3.32407 68.9477 3.42129 68.9207L3.0195 67.4755C1.98473 67.7632 1.33644 68.9444 1.86667 69.9927L3.20519 69.3157ZM6.43844 73.3178C4.97497 72.408 4.11926 71.1229 3.20519 69.3157L1.86667 69.9927C2.81554 71.8687 3.82499 73.4594 5.6465 74.5917L6.43844 73.3178ZM6.39099 76.808C7.14346 76.454 7.43399 75.7079 7.41332 75.0537C7.3929 74.4076 7.07363 73.7127 6.43844 73.3178L5.6465 74.5917C5.79451 74.6837 5.90707 74.8799 5.91407 75.1011C5.92081 75.3144 5.83434 75.4122 5.75237 75.4508L6.39099 76.808ZM4.53111 77.683C5.15102 77.3914 5.77095 77.0998 6.39099 76.808L5.75237 75.4508C5.13238 75.7425 4.5125 76.0341 3.89259 76.3257L4.53111 77.683ZM1.88467 78.9282C2.76699 78.5129 3.64902 78.098 4.53111 77.683L3.89259 76.3257C3.01052 76.7407 2.12839 77.1557 1.24595 77.5709L1.88467 78.9282ZM1.83747 79.2616C1.79464 79.238 1.77622 79.2135 1.76657 79.1952C1.7555 79.1742 1.74829 79.146 1.75034 79.112C1.75437 79.0451 1.79211 78.9717 1.88467 78.9282L1.24594 77.5709C0.0449297 78.1362 -0.155949 79.8734 1.11159 80.5743L1.83747 79.2616ZM7.9633 81.7865C5.77371 81.0281 3.77897 80.3352 1.83747 79.2616L1.11159 80.5743C3.18395 81.7203 5.30049 82.4516 7.47233 83.2039L7.9633 81.7865ZM10.699 82.762C9.75872 82.4084 8.84558 82.0921 7.9633 81.7865L7.47233 83.2039C8.35707 83.5104 9.25201 83.8204 10.171 84.166L10.699 82.762ZM10.5429 85.9732C12.0834 85.5334 12.2984 83.3635 10.699 82.762L10.171 84.166C10.2388 84.1915 10.2654 84.2231 10.2779 84.2431C10.2932 84.2675 10.3032 84.3015 10.3009 84.342C10.2986 84.3827 10.2841 84.421 10.2608 84.4511C10.2402 84.4777 10.2035 84.5102 10.1311 84.5308L10.5429 85.9732ZM10.0525 86.1134L10.5432 85.9731L10.1308 84.5309L9.64008 84.6712L10.0525 86.1134ZM9.93423 86.1978C9.94997 86.169 9.98677 86.1323 10.0529 86.1133L9.63973 84.6713C9.22322 84.7907 8.84277 85.067 8.61784 85.4787L9.93423 86.1978ZM8.46755 92.7217C8.69126 90.299 8.90718 88.0779 9.93423 86.1978L8.61784 85.4787C7.41596 87.6789 7.19165 90.2257 6.9739 92.5838L8.46755 92.7217ZM8.26619 94.6951C8.34624 94.036 8.40748 93.3723 8.46755 92.7217L6.9739 92.5838C6.91349 93.2381 6.85415 93.8802 6.77714 94.5142L8.26619 94.6951ZM8.30934 94.8768C8.27653 94.8323 8.25722 94.769 8.26619 94.6951L6.77714 94.5142C6.72438 94.9485 6.83079 95.3987 7.1016 95.7664L8.30934 94.8768ZM24.256 107.806C17.9644 105.223 12.1788 100.13 8.30934 94.8768L7.1016 95.7664C11.0957 101.189 17.0866 106.484 23.6862 109.194L24.256 107.806ZM65.217 92.0478C65.0269 100.704 58.8379 106.24 50.5435 108.835C42.2411 111.433 32.0222 110.998 24.2562 107.806L23.686 109.194C31.7823 112.521 42.3615 112.967 50.9914 110.267C59.6293 107.565 66.5071 101.624 66.7167 92.0808L65.217 92.0478ZM65.1337 91.8838C65.1742 91.9057 65.2188 91.9653 65.217 92.0478L66.7167 92.0808C66.73 91.4722 66.4139 90.8702 65.8461 90.5638L65.1337 91.8838ZM58.9408 90.0041C61.29 90.2966 63.5948 91.0532 65.1337 91.8838L65.8461 90.5638C64.1285 89.6367 61.6423 88.8289 59.1262 88.5156L58.9408 90.0041ZM58.5168 86.8652C58.0912 86.9445 57.7112 87.1564 57.476 87.5189C57.2438 87.8767 57.215 88.2861 57.3036 88.6385C57.4776 89.3308 58.11 89.9006 58.9408 90.0041L59.1262 88.5156C58.8681 88.4834 58.7714 88.3251 58.7583 88.2728C58.7533 88.253 58.7663 88.2861 58.7343 88.3355C58.6992 88.3895 58.6776 88.3611 58.7914 88.3399L58.5168 86.8652ZM69.8665 87.405C66.9022 86.6023 62.3762 86.1466 58.5168 86.8652L58.7914 88.3399C62.3863 87.6705 66.6809 88.0964 69.4744 88.8529L69.8665 87.405ZM70.4676 87.0862C70.4774 87.1022 70.474 87.0983 70.4732 87.1019C70.4687 87.1206 70.4467 87.175 70.3752 87.2424C70.2165 87.392 70.0005 87.4413 69.8665 87.405L69.4744 88.8529C70.2074 89.0513 70.944 88.7676 71.4042 88.3338C71.8711 87.8936 72.23 87.0957 71.7485 86.3056L70.4676 87.0862ZM69.6054 86.3421C70.0147 86.5261 70.2564 86.7394 70.4676 87.0862L71.7485 86.3056C71.3703 85.685 70.8891 85.2746 70.2205 84.974L69.6054 86.3421ZM69.2352 83.0332C68.5533 83.4525 68.3238 84.1786 68.4305 84.8257C68.5342 85.4546 68.9537 86.049 69.6054 86.3421L70.2205 84.974C70.0449 84.895 69.9357 84.734 69.9105 84.5817C69.8986 84.5095 69.9081 84.454 69.9234 84.417C69.9367 84.3848 69.9616 84.3474 70.021 84.3109L69.2352 83.0332ZM70.3299 82.3601C69.965 82.5844 69.6001 82.8088 69.2352 83.0332L70.021 84.3109C70.3857 84.0866 70.7506 83.8623 71.1155 83.638L70.3299 82.3601ZM73.3756 80.4861C72.3612 81.1113 71.3458 81.7356 70.3299 82.3601L71.1155 83.638C72.1312 83.0135 73.1474 82.3888 74.1627 81.763L73.3756 80.4861ZM73.2211 80.7628C73.2211 80.65 73.2796 80.5452 73.3756 80.4861L74.1627 81.763C74.5097 81.5491 74.7211 81.1706 74.7211 80.7628H73.2211ZM73.4007 81.0534C73.2905 80.9983 73.2211 80.8857 73.2211 80.7628H74.7211C74.7211 80.3179 74.4698 79.9108 74.0715 79.7117L73.4007 81.0534ZM68.571 78.6385L73.4007 81.0534L74.0715 79.7117L69.2418 77.2969L68.571 78.6385ZM67.8626 76.2021C67.3157 77.0829 67.6898 78.1979 68.571 78.6385L69.2418 77.2969C69.1037 77.2278 69.0828 77.0806 69.137 76.9933L67.8626 76.2021ZM71.508 72.5499C69.8759 73.4562 68.8056 74.6832 67.8626 76.2021L69.137 76.9932C69.9939 75.6131 70.8962 74.6053 72.2362 73.8613L71.508 72.5499ZM71.6788 72.2541C71.7154 72.271 71.7119 72.2797 71.705 72.2667C71.7004 72.2582 71.7071 72.2634 71.7041 72.2922C71.697 72.3592 71.6416 72.4757 71.508 72.5499L72.2362 73.8613C72.7789 73.5599 73.1355 73.0229 73.1958 72.4491C73.2598 71.8405 72.9787 71.203 72.3093 70.893L71.6788 72.2541ZM60.3138 72.6672C61.6994 71.9554 63.726 71.4634 65.8468 71.3527C67.9691 71.2418 70.0894 71.5179 71.6788 72.2541L72.3093 70.893C70.4236 70.0196 68.0367 69.7362 65.7685 69.8547C63.4988 69.9732 61.2515 70.4992 59.6284 71.3329L60.3138 72.6672ZM63.7912 68.3854C62.374 69.3861 60.957 70.3866 59.5388 71.3872L60.4034 72.6129C61.822 71.6121 63.2393 70.6114 64.6564 69.6108L63.7912 68.3854ZM67.9138 65.4753C66.5388 66.4454 65.1649 67.4155 63.7912 68.3854L64.6564 69.6108C66.0302 68.6408 67.4038 67.6709 68.7785 66.701L67.9138 65.4753ZM67.8676 65.5286C67.8775 65.5088 67.8928 65.4901 67.9138 65.4753L68.7785 66.701C68.9635 66.5705 69.1112 66.3965 69.2105 66.197L67.8676 65.5286ZM68.006 65.75C67.8913 65.75 67.8188 65.6267 67.8677 65.5286L69.2105 66.197C69.6558 65.3025 69.0103 64.25 68.006 64.25V65.75ZM63.5876 65.75H68.006V64.25H63.5876V65.75ZM62.0226 63.2185C61.4408 64.3822 62.2875 65.75 63.5876 65.75V64.25C63.4016 64.25 63.2815 64.0548 63.3643 63.8893L62.0226 63.2185ZM63.0511 61.1631C62.7082 61.848 62.3653 62.5331 62.0226 63.2185L63.3643 63.8893C63.7068 63.2043 64.0495 62.5195 64.3924 61.8345L63.0511 61.1631ZM63.9912 59.2843C63.6779 59.9106 63.3645 60.5368 63.0511 61.1631L64.3924 61.8345C64.7059 61.2082 65.0194 60.5818 65.3328 59.9552L63.9912 59.2843ZM63.7444 58.9261C63.9392 58.9066 64.0789 59.1089 63.9912 59.2843L65.3328 59.9552C65.9488 58.7232 64.9654 57.2961 63.5946 57.4336L63.7444 58.9261ZM63.0465 58.9962C63.2791 58.9729 63.5118 58.9495 63.7444 58.9261L63.5946 57.4336C63.3619 57.457 63.1292 57.4804 62.8965 57.5037L63.0465 58.9962ZM61.8866 59.1126C62.2732 59.0739 62.6599 59.0351 63.0465 58.9962L62.8965 57.5037C62.5099 57.5426 62.1235 57.5814 61.7371 57.6201L61.8866 59.1126ZM60.0002 57.0309C59.7682 58.1839 60.7177 59.2297 61.8866 59.1126L61.7371 57.6201C61.571 57.6367 61.438 57.4891 61.4707 57.3267L60.0002 57.0309ZM60.1122 56.4732C60.075 56.659 60.0376 56.8448 60.0002 57.0309L61.4707 57.3267C61.5081 57.1406 61.5456 56.9543 61.583 56.7678L60.1122 56.4732ZM60.1742 56.4132C60.1566 56.4072 60.1378 56.3958 60.1232 56.3815C60.1099 56.3685 60.1069 56.36 60.1084 56.3634C60.11 56.3672 60.1145 56.3798 60.1164 56.4015C60.1184 56.423 60.1173 56.4478 60.1122 56.4732L61.583 56.7678C61.7007 56.18 61.5146 55.2838 60.6559 54.9926L60.1742 56.4132ZM57.7093 57.5718C58.2336 57.1142 58.7079 56.7561 59.1458 56.5486C59.5721 56.3466 59.8952 56.3186 60.1742 56.4132L60.6559 54.9926C59.8874 54.732 59.1469 54.8882 58.5035 55.1931C57.8717 55.4925 57.2703 55.964 56.723 56.4417L57.7093 57.5718ZM55.0525 55.906C54.8392 56.6745 55.1338 57.4052 55.7307 57.7775C56.3262 58.1488 57.1107 58.0942 57.7093 57.5718L56.723 56.4417C56.6522 56.5035 56.6014 56.5142 56.5797 56.5163C56.5553 56.5185 56.5373 56.5127 56.5245 56.5047C56.5118 56.4968 56.5 56.4842 56.4923 56.4636C56.4855 56.4457 56.4729 56.3973 56.4979 56.3073L55.0525 55.906ZM55.499 54.2975C55.3502 54.8337 55.2014 55.3699 55.0525 55.906L56.4979 56.3073C56.6467 55.771 56.7955 55.2348 56.9443 54.6986L55.499 54.2975ZM56.2291 51.6672C55.9855 52.544 55.7422 53.4208 55.499 54.2975L56.9443 54.6986C57.1876 53.8219 57.4309 52.9453 57.6744 52.0687L56.2291 51.6672ZM55.9629 51.3976C56.0125 51.3763 56.0482 51.3764 56.0742 51.3813C56.1035 51.3868 56.1361 51.4019 56.166 51.4291C56.2249 51.4827 56.2574 51.5654 56.2291 51.6672L57.6744 52.0687C58.0478 50.7246 56.7384 49.4315 55.3705 50.0196L55.9629 51.3976ZM49.2456 57.9889C50.0879 54.6835 52.7792 52.7663 55.9629 51.3976L55.3705 50.0196C52.0564 51.4443 48.8109 53.6205 47.792 57.6185L49.2456 57.9889ZM48.2704 58.75C48.7456 58.75 49.1355 58.4207 49.2456 57.9889L47.792 57.6184C47.844 57.4146 48.0305 57.25 48.2704 57.25V58.75ZM47.2812 57.5801C47.1798 58.1864 47.645 58.75 48.2704 58.75V57.25C48.5829 57.25 48.8105 57.5298 48.7606 57.8276L47.2812 57.5801ZM47.7686 44.9315C48.3541 49.8025 48.0729 52.8466 47.2812 57.5801L48.7606 57.8276C49.5666 53.0094 49.8661 49.8126 49.2579 44.7525L47.7686 44.9315ZM48.1274 45.25C47.9446 45.25 47.7906 45.1142 47.7686 44.9315L49.2579 44.7525C49.1891 44.1803 48.7026 43.75 48.1274 43.75V45.25ZM48.3895 45.1401C48.3148 45.2147 48.2183 45.25 48.1274 45.25V43.75C47.8354 43.75 47.546 43.8623 47.3291 44.0791L48.3895 45.1401ZM45.2381 53.2984C45.5161 49.8357 46.6175 46.9112 48.3895 45.1401L47.3291 44.0792C45.2138 46.1935 44.0371 49.5145 43.7429 53.1783L45.2381 53.2984ZM44.2089 54.25C44.7537 54.25 45.1955 53.8289 45.2381 53.2984L43.7429 53.1783C43.7619 52.942 43.9593 52.75 44.2089 52.75V54.25ZM43.1922 53.3964C43.2786 53.8805 43.6995 54.25 44.2089 54.25V52.75C44.4438 52.75 44.6307 52.919 44.6689 53.1329L43.1922 53.3964ZM38.761 44.1508C40.8162 46.7136 42.5131 49.5905 43.1922 53.3964L44.6689 53.1329C43.9318 49.0019 42.085 45.8982 39.9313 43.2124L38.761 44.1508ZM28.2335 90C28.2335 95.9108 33.01 100.75 38.4708 100.75V99.25C33.89 99.25 29.7335 95.1349 29.7335 90H28.2335ZM38.9708 78.25C36.1913 78.25 33.5064 79.757 31.539 81.9249C29.5674 84.0973 28.2335 87.0207 28.2335 90H29.7335C29.7335 87.4564 30.8828 84.8799 32.6497 82.933C34.4207 80.9816 36.7295 79.75 38.9708 79.75V78.25ZM49.2208 88.5C49.2208 82.5373 44.3797 78.25 38.9708 78.25V79.75C43.6034 79.75 47.7208 83.417 47.7208 88.5H49.2208ZM38.4708 100.75C41.2738 100.75 43.9644 99.0945 45.923 96.8092C47.8881 94.5164 49.2208 91.474 49.2208 88.5H47.7208C47.7208 91.0489 46.5639 93.7565 44.7841 95.833C42.998 97.917 40.6885 99.25 38.4708 99.25V100.75Z" fill="#474747"/>
<path d="M79.4711 15C79.2201 13.7452 78.8248 10.5876 78.4827 7.62683C78.3591 6.55662 79.8926 6.0195 80.552 6.87152C81.4749 8.06419 82.3906 9 82.9711 9C84.4711 9 85.9711 7.5 90.4711 7.5C94.9711 7.5 94.4711 7.5 97.9711 9C101.471 10.5 100.471 11 103.471 11C104.198 11 105.158 10.7858 106.203 10.4547C106.856 10.2477 107.097 10.7217 106.471 11C101.971 13 103.846 13 101.971 15C101.351 15.6619 100.68 15.8903 100.057 15.8833C99.1807 15.8735 98.5817 16.3146 99.3495 16.7371C99.9558 17.0707 100.804 17.3541 101.971 17.5C104.9 17.8661 107.214 19.6563 108.225 20.7238C108.389 20.8978 108.601 21.0217 108.837 21.061L109.394 21.1539C110.479 21.3346 110.591 23.1701 109.624 23.6925C109.157 23.9451 108.755 24.216 108.471 24.5C106.971 26 105.471 27.5 103.846 27.5H98.7072C97.652 27.5 97.42 28.7073 98.4581 28.8967C98.8153 28.9618 99.1585 29 99.4711 29C101.471 29 103.971 32 103.471 35C102.971 38 109.471 42 108.471 42C107.471 42 105.471 39.5 101.971 39.5C98.4711 39.5 99.9711 41 95.9711 42C91.9711 43 86.4711 40 82.9711 36.5C79.4711 33 79.4711 30 77.9711 29C76.4711 28 77.9711 26 73.9711 26C72.4074 26 70.7801 26.4775 69.3691 27.0826C68.677 27.3794 67.9386 26.5325 68.4711 26C69.9711 24.5 73.4711 26 75.4711 24.5C77.4711 23 77.9711 21.5 79.4711 20C80.9711 18.5 87.4711 20.5 84.9711 19C82.4711 17.5 79.9711 17.5 79.4711 15Z" stroke="#474747" stroke-width="1.5"/>
</svg>
