<svg width="146" height="115" viewBox="0 0 146 115" fill="none" xmlns="http://www.w3.org/2000/svg">
<path d="M122.125 95.5C122.125 96.752 121.504 97.9052 120.538 98.7538C119.571 99.6033 118.283 100.125 117 100.125C115.693 100.125 114.399 99.7125 113.441 98.9866C112.488 98.2648 111.875 97.2435 111.875 96C111.875 94.7405 112.503 93.4562 113.48 92.4796C114.456 91.5031 115.741 90.875 117 90.875C118.283 90.875 119.571 91.3967 120.538 92.2462C121.504 93.0948 122.125 94.248 122.125 95.5Z" stroke="#BDBDBD" stroke-width="0.75"/>
<path d="M113.625 102.5C113.625 103.386 112.809 104.125 112 104.125C111.136 104.125 110.375 103.536 110.375 102.7C110.375 102.257 110.578 101.794 110.901 101.438C111.226 101.08 111.632 100.875 112 100.875C112.809 100.875 113.625 101.614 113.625 102.5Z" stroke="#BDBDBD" stroke-width="0.75"/>
<path d="M130.375 50C130.375 53.9231 133.929 57.125 137.5 57.125C141.126 57.125 144.625 54.6238 144.625 50.75C144.625 48.7881 143.738 46.8124 142.385 45.324C141.029 43.8332 139.248 42.875 137.5 42.875C133.929 42.875 130.375 46.0769 130.375 50Z" stroke="#BDBDBD" stroke-width="0.75"/>
<path d="M140.375 60C140.375 60.5486 140.672 61.0746 141.17 61.4757C141.668 61.8765 142.336 62.125 143 62.125C143.687 62.125 144.36 61.9257 144.851 61.5847C145.338 61.2468 145.625 60.7888 145.625 60.25C145.625 59.6929 145.319 59.0991 144.811 58.6337C144.306 58.1701 143.643 57.875 143 57.875C142.336 57.875 141.668 58.1235 141.17 58.5243C140.672 58.9254 140.375 59.4514 140.375 60Z" stroke="#BDBDBD" stroke-width="0.75"/>
<path d="M0.375 111.5C0.375 112.149 0.817992 112.798 1.60586 113.306C2.38523 113.808 3.43915 114.125 4.5 114.125C5.57852 114.125 6.63835 113.875 7.4152 113.443C8.19735 113.009 8.625 112.436 8.625 111.8C8.625 111.14 8.16917 110.413 7.37549 109.831C6.59196 109.256 5.54362 108.875 4.5 108.875C3.43915 108.875 2.38523 109.192 1.60586 109.694C0.817992 110.202 0.375 110.851 0.375 111.5Z" stroke="#BDBDBD" stroke-width="0.75"/>
<path d="M34.625 6.5C34.625 7.9739 33.6141 9.37277 31.9166 10.4238C30.2279 11.4693 27.9226 12.125 25.5 12.125C23.0793 12.125 21.0347 11.4706 19.6056 10.4386C18.1783 9.40799 17.375 8.01242 17.375 6.5C17.375 5.0261 18.3859 3.62723 20.0834 2.57619C21.7721 1.53067 24.0774 0.875 26.5 0.875C28.9207 0.875 30.9653 1.52942 32.3944 2.56138C33.8217 3.59201 34.625 4.98758 34.625 6.5Z" stroke="#BDBDBD" stroke-width="0.75"/>
<path d="M20.125 14.5C20.125 14.9494 20.1049 15.1357 19.9416 15.2776C19.85 15.3571 19.6825 15.4473 19.3662 15.5156C19.0507 15.5837 18.6112 15.625 18 15.625C17.3663 15.625 16.9613 15.4708 16.7216 15.272C16.4891 15.0792 16.375 14.8148 16.375 14.5C16.375 14.1852 16.4891 13.9208 16.7216 13.728C16.9613 13.5292 17.3663 13.375 18 13.375C18.6341 13.375 19.19 13.53 19.5748 13.7609C19.9672 13.9963 20.125 14.2693 20.125 14.5Z" stroke="#BDBDBD" stroke-width="0.75"/>
<path d="M15.125 17.5C15.125 17.5265 15.1139 17.5771 15.0526 17.6524C14.9909 17.7281 14.8936 17.809 14.7662 17.8843C14.5049 18.0389 14.1952 18.125 14 18.125C13.6548 18.125 13.375 17.8452 13.375 17.5C13.375 17.1548 13.6548 16.875 14 16.875C14.1952 16.875 14.5049 16.9611 14.7662 17.1157C14.8936 17.191 14.9909 17.2719 15.0526 17.3476C15.1139 17.4229 15.125 17.4735 15.125 17.5Z" stroke="#BDBDBD" stroke-width="0.75"/>
</svg>
