<svg width="132" height="103" viewBox="0 0 132 103" fill="none" xmlns="http://www.w3.org/2000/svg">
<g clip-path="url(#clip0)">
<path fill-rule="evenodd" clip-rule="evenodd" d="M6.40956 76.0853L4.38287 76.6204L2.74389 75.2128L2.69379 77.3998L0.921791 78.5111L2.91231 79.304L3.46844 81.4526L4.75727 79.7677L6.87086 79.9486L5.66832 78.1186L6.40956 76.0853ZM4.56321 79.3287L3.61956 80.533L3.23581 78.997L1.81137 78.4459L3.08628 77.6199L3.11988 76.0634L4.29359 77.0862L5.76257 76.6993L5.22353 78.1512L6.10118 79.4688L4.56321 79.3287Z" fill="#BDBDBD"/>
</g>
<g clip-path="url(#clip1)">
<path fill-rule="evenodd" clip-rule="evenodd" d="M77.2969 3.55885L74.8519 3.50607L73.4674 1.39988L72.7069 3.83604L70.362 4.51142L72.3386 6.04167L72.2702 8.63006L74.2581 7.15583L76.5698 8.03947L75.8108 5.60006L77.2969 3.55885ZM74.1819 6.60104L72.7358 7.64755L72.8002 5.80162L71.3805 4.7248L73.0761 4.20927L73.6151 2.47479L74.6018 3.9997L76.3736 4.03896L75.3015 5.49337L75.8613 7.25358L74.1819 6.60104Z" fill="#BDBDBD"/>
</g>
<g clip-path="url(#clip2)">
<path fill-rule="evenodd" clip-rule="evenodd" d="M67.4665 93.9982L63.6245 93.9152L61.4488 90.6055L60.2537 94.4338L56.5688 95.4951L59.6749 97.8997L59.5674 101.967L62.6913 99.6506L66.324 101.039L65.1313 97.2058L67.4665 93.9982ZM62.5715 98.7788L60.2991 100.423L60.4004 97.5225L58.1693 95.8304L60.8339 95.0203L61.6809 92.2946L63.2314 94.6909L66.0157 94.7526L64.331 97.0381L65.2106 99.8042L62.5715 98.7788Z" fill="#BDBDBD"/>
</g>
<g clip-path="url(#clip3)">
<path fill-rule="evenodd" clip-rule="evenodd" d="M30.9975 13.2794L28.5837 12.9511L27.498 11.0023L26.4149 12.9825L24.0015 13.2841L25.7515 14.8126L25.3332 17.0024L27.5013 15.9811L29.6708 16.9995L29.2496 14.8402L30.9975 13.2794ZM27.501 15.5013L25.9274 16.2221L26.2412 14.6623L24.9812 13.5834L26.73 13.3422L27.4986 11.932L28.2691 13.3412L30.0183 13.58L28.7597 14.6906L29.0756 16.25L27.501 15.5013Z" fill="#BDBDBD"/>
</g>
<g clip-path="url(#clip4)">
<path fill-rule="evenodd" clip-rule="evenodd" d="M129.793 17.8634L127.271 15.4453L127.85 11.8914L124.695 13.7197L121.576 12.1644L122.177 15.6845L119.603 18.3418L123.12 18.7116L124.698 21.8752L126.257 18.5751L129.793 17.8634ZM123.576 18.0542L121.043 17.758L122.894 15.878L122.441 13.3731L124.723 14.4692L126.966 13.165L126.531 15.7229L128.357 17.4764L125.824 17.9707L124.712 20.3636L123.576 18.0542Z" fill="#BDBDBD"/>
</g>
<defs>
<clipPath id="clip0">
<rect width="6" height="6" fill="white" transform="translate(0 76.4257) rotate(-23.8469)"/>
</clipPath>
<clipPath id="clip1">
<rect width="7" height="7" fill="white" transform="translate(70 1.87616) rotate(-7.8211)"/>
</clipPath>
<clipPath id="clip2">
<rect width="11" height="11" fill="white" transform="translate(56 91.3539) rotate(-7.8211)"/>
</clipPath>
<clipPath id="clip3">
<rect width="6.99602" height="5.99866" fill="white" transform="translate(24 11.0046) rotate(-0.0380165)"/>
</clipPath>
<clipPath id="clip4">
<rect width="10" height="10" fill="white" transform="translate(123.741 9.04187) rotate(34.7431)"/>
</clipPath>
</defs>
</svg>
