<svg width="113" height="113" viewBox="0 0 113 113" fill="none" xmlns="http://www.w3.org/2000/svg">
<rect x="1" y="19" width="37.0364" height="37.0364" stroke="#474747" stroke-width="2"/>
<path d="M37.6758 19H70.7121C72.9213 19 74.7121 20.7909 74.7121 23V56.0364H37.6758V19Z" stroke="#474747" stroke-width="2"/>
<path d="M74.9636 55.9818H108C110.209 55.9818 112 57.7727 112 59.9818V93.0182H74.9636V55.9818Z" fill="#BDBDBD" stroke="#474747" stroke-width="2"/>
<path d="M75 21.0001L111 56.0001H75V21.0001Z" fill="#474747"/>
<path d="M19.5422 48.1204C23.0565 48.1204 25.5591 46.6827 26.8237 44.1402C27.0367 43.7142 27.1432 43.3548 27.1432 42.9422C27.1432 42.3165 26.6906 41.8639 26.0516 41.8639C25.5191 41.8639 25.1863 42.1168 24.9334 42.7026C24.0282 44.859 22.0581 45.9107 19.5555 45.9107C15.7617 45.9107 13.3523 42.9022 13.3523 38.1899C13.3523 33.5175 15.7883 30.4825 19.5422 30.4825C21.9117 30.4825 23.975 31.7071 24.8802 33.9701C25.1464 34.649 25.5591 34.9685 26.1448 34.9685C26.7971 34.9685 27.223 34.5425 27.223 33.8769C27.223 33.5974 27.1565 33.2646 27.0234 32.9318C25.8919 30.0698 23.0432 28.2727 19.5422 28.2727C14.2841 28.2727 10.8896 32.1597 10.8896 38.1899C10.8896 44.2733 14.2442 48.1204 19.5422 48.1204Z" fill="#474747"/>
<path d="M51.8839 48.1204C52.6161 48.1204 53.082 47.6412 53.082 46.8824V41.0785H57.5147C61.1222 41.0785 63.6913 38.536 63.6913 34.8886C63.6913 31.2545 61.1488 28.7253 57.5414 28.7253H51.8839C51.1518 28.7253 50.6859 29.2045 50.6859 29.9633V46.8824C50.6859 47.6412 51.1518 48.1204 51.8839 48.1204ZM53.082 38.9487V30.8552H56.9157C59.6712 30.8552 61.2287 32.3461 61.2287 34.8886C61.2287 37.4444 59.6579 38.9487 56.9157 38.9487H53.082Z" fill="#474747"/>
<path d="M93.8053 79.6364C94.3244 79.6364 94.6306 79.3169 94.6173 78.7578L94.5108 76.2818L96.7738 77.7727C96.9202 77.8659 97.0933 77.9192 97.2929 77.9192C97.7056 77.9192 98.1049 77.5997 98.1049 77.0672C98.1049 76.7344 97.9452 76.5081 97.6124 76.3218L95.2296 75.0305L97.6124 73.7393C97.9452 73.5529 98.1049 73.3266 98.1049 72.9939C98.1049 72.4614 97.7056 72.1419 97.2929 72.1419C97.0933 72.1419 96.9202 72.1952 96.7738 72.2883L94.5108 73.7393L94.6173 71.1568C94.6306 70.5978 94.3244 70.2783 93.8053 70.2783C93.2595 70.2783 92.9267 70.6244 92.94 71.1568L93.0465 73.7393L90.7569 72.2883C90.6105 72.1952 90.4374 72.1419 90.2378 72.1419C89.8251 72.1419 89.4257 72.4614 89.4257 72.9939C89.4257 73.3266 89.5855 73.5529 89.9183 73.7393L92.3011 75.0305L89.9183 76.3218C89.5855 76.5081 89.4257 76.7344 89.4257 77.0672C89.4257 77.5997 89.8251 77.9192 90.2378 77.9192C90.4374 77.9192 90.6105 77.8659 90.7569 77.7727L93.0465 76.2818L92.94 78.7578C92.9267 79.2903 93.2595 79.6364 93.8053 79.6364Z" fill="#474747"/>
</svg>
