<svg width="200" height="200" viewBox="0 0 200 200" fill="none" xmlns="http://www.w3.org/2000/svg">
<g clip-path="url(#clip0)">
<path fill-rule="evenodd" clip-rule="evenodd" d="M91.3921 105.258C73.3783 101.067 60.3432 84.6532 60.3432 65.5384C60.3432 43.0382 78.2571 24.794 100.36 24.794C122.463 24.794 140.377 43.0382 140.377 65.5384V185.403L163.72 199V65.5384C163.72 29.8925 135.351 1 100.36 1C65.3695 1 37 29.8925 37 65.5384C37 96.148 58.0755 122.361 87.268 128.694C88.6553 128.974 90.0272 129.056 91.7948 129.056L91.7894 105.352C91.6384 105.263 91.5069 105.261 91.3972 105.258L91.3921 105.258ZM91.2038 105.253C91.1721 105.252 91.1441 105.25 91.12 105.249L91.1472 105.251L91.2038 105.253ZM127.871 65.5831H104.528V164.158L127.871 177.755V65.5831Z" fill="#BDBDBD"/>
<path d="M91.3921 105.258L91.1655 106.232L91.2684 106.256L91.3741 106.258L91.3921 105.258ZM140.377 185.403H139.377V185.978L139.874 186.268L140.377 185.403ZM163.72 199L163.217 199.864L164.72 200.74V199H163.72ZM87.268 128.694L87.056 129.671L87.063 129.673L87.07 129.674L87.268 128.694ZM91.7948 129.056L91.7951 130.056L92.795 130.056L92.7948 129.056L91.7948 129.056ZM91.7894 105.352L92.7894 105.352L92.7893 104.78L92.2961 104.49L91.7894 105.352ZM91.3972 105.258L91.4173 104.259L91.4152 104.259L91.3972 105.258ZM91.12 105.249L91.1797 104.251L91.0526 106.247L91.12 105.249ZM91.2038 105.253L91.1638 106.252L91.2442 104.254L91.2038 105.253ZM91.1472 105.251L91.0798 106.248L91.0935 106.249L91.1072 106.25L91.1472 105.251ZM104.528 65.5831V64.5831H103.528V65.5831H104.528ZM127.871 65.5831H128.871V64.5831H127.871V65.5831ZM104.528 164.158H103.528V164.733L104.025 165.022L104.528 164.158ZM127.871 177.755L127.368 178.619L128.871 179.494V177.755H127.871ZM59.3432 65.5384C59.3432 85.1091 72.6899 101.933 91.1655 106.232L91.6188 104.284C74.0666 100.2 61.3432 84.1974 61.3432 65.5384H59.3432ZM100.36 23.794C77.6878 23.794 59.3432 42.503 59.3432 65.5384H61.3432C61.3432 43.5733 78.8263 25.794 100.36 25.794V23.794ZM141.377 65.5384C141.377 42.503 123.032 23.794 100.36 23.794V25.794C121.894 25.794 139.377 43.5733 139.377 65.5384H141.377ZM141.377 185.403V65.5384H139.377V185.403H141.377ZM164.223 198.136L140.88 184.539L139.874 186.268L163.217 199.864L164.223 198.136ZM162.72 65.5384V199H164.72V65.5384H162.72ZM100.36 2C134.781 2 162.72 30.4274 162.72 65.5384H164.72C164.72 29.3576 135.92 0 100.36 0V2ZM38 65.5384C38 30.4274 65.939 2 100.36 2V0C64.8 0 36 29.3576 36 65.5384H38ZM87.48 127.717C58.7555 121.485 38 95.6858 38 65.5384H36C36 96.6102 57.3954 123.237 87.056 129.671L87.48 127.717ZM91.7946 128.056C90.0568 128.056 88.7599 127.975 87.4661 127.714L87.07 129.674C88.5507 129.973 89.9975 130.056 91.7951 130.056L91.7946 128.056ZM90.7894 105.352L90.7948 129.056L92.7948 129.056L92.7894 105.352L90.7894 105.352ZM91.377 106.258C91.4071 106.259 91.4144 106.259 91.4191 106.259C91.421 106.26 91.4122 106.259 91.397 106.256C91.3813 106.253 91.3615 106.249 91.3396 106.241C91.3177 106.233 91.2985 106.223 91.2828 106.214L92.2961 104.49C91.9059 104.261 91.5458 104.261 91.4173 104.259L91.377 106.258ZM91.3741 106.258L91.3791 106.258L91.4152 104.259L91.4102 104.259L91.3741 106.258ZM91.0603 106.247C91.0922 106.249 91.1267 106.251 91.1635 106.252L91.2442 104.254C91.2175 104.253 91.1961 104.252 91.1797 104.251L91.0603 106.247ZM91.2146 104.253L91.1874 104.251L91.0526 106.247L91.0798 106.248L91.2146 104.253ZM91.2438 104.254L91.1873 104.252L91.1072 106.25L91.1638 106.252L91.2438 104.254ZM104.528 66.5831H127.871V64.5831H104.528V66.5831ZM105.528 164.158V65.5831H103.528V164.158H105.528ZM128.375 176.891L105.031 163.294L104.025 165.022L127.368 178.619L128.375 176.891ZM126.871 65.5831V177.755H128.871V65.5831H126.871Z" fill="#474747"/>
</g>
<defs>
<clipPath id="clip0">
<rect width="200" height="200" fill="white"/>
</clipPath>
</defs>
</svg>
