<svg width="200" height="200" viewBox="0 0 200 200" fill="none" xmlns="http://www.w3.org/2000/svg">
<g clip-path="url(#clip0)">
<path fill-rule="evenodd" clip-rule="evenodd" d="M91.3921 105.258C73.3783 101.067 60.3432 84.6532 60.3432 65.5384C60.3432 43.0382 78.2571 24.794 100.36 24.794C122.463 24.794 140.377 43.0382 140.377 65.5384V185.403L163.72 199V65.5384C163.72 29.8925 135.351 1 100.36 1C65.3695 1 37 29.8925 37 65.5384C37 96.148 58.0755 122.361 87.268 128.694C88.6553 128.974 90.0272 129.056 91.7948 129.056L91.7894 105.352C91.6384 105.263 91.5069 105.261 91.3972 105.258L91.3921 105.258ZM91.2038 105.253C91.1721 105.252 91.1441 105.25 91.12 105.249L91.1472 105.251L91.2038 105.253ZM127.871 65.5831H104.528V164.158L127.871 177.755V65.5831Z" fill="#E0E0E0"/>
<path d="M91.3921 105.258L91.0522 106.719L91.2066 106.755L91.3651 106.758L91.3921 105.258ZM140.377 185.403H138.877V186.266L139.622 186.7L140.377 185.403ZM163.72 199L162.965 200.296L165.22 201.61V199H163.72ZM87.268 128.694L86.95 130.16L86.9605 130.162L86.971 130.164L87.268 128.694ZM91.7948 129.056L91.7952 130.556L93.2952 130.556L93.2948 129.056L91.7948 129.056ZM91.7894 105.352L93.2894 105.352L93.2892 104.494L92.5494 104.059L91.7894 105.352ZM91.3972 105.258L91.4274 103.759L91.4242 103.759L91.3972 105.258ZM91.12 105.249L91.2096 103.752L91.0189 106.746L91.12 105.249ZM91.2038 105.253L91.1438 106.752L91.2644 103.754L91.2038 105.253ZM91.1472 105.251L91.0462 106.747L91.0667 106.749L91.0872 106.75L91.1472 105.251ZM104.528 65.5831V64.0831H103.028V65.5831H104.528ZM127.871 65.5831H129.371V64.0831H127.871V65.5831ZM104.528 164.158H103.028V165.02L103.773 165.454L104.528 164.158ZM127.871 177.755L127.116 179.051L129.371 180.364V177.755H127.871ZM58.8432 65.5384C58.8432 85.337 72.3457 102.366 91.0522 106.719L91.7321 103.797C74.4108 99.7668 61.8432 83.9695 61.8432 65.5384H58.8432ZM100.36 23.294C77.4032 23.294 58.8432 42.2354 58.8432 65.5384H61.8432C61.8432 43.8409 79.111 26.294 100.36 26.294V23.294ZM141.877 65.5384C141.877 42.2354 123.317 23.294 100.36 23.294V26.294C121.609 26.294 138.877 43.8409 138.877 65.5384H141.877ZM141.877 185.403V65.5384H138.877V185.403H141.877ZM164.475 197.704L141.132 184.107L139.622 186.7L162.965 200.296L164.475 197.704ZM162.22 65.5384V199H165.22V65.5384H162.22ZM100.36 2.5C134.496 2.5 162.22 30.6948 162.22 65.5384H165.22C165.22 29.0902 136.205 -0.5 100.36 -0.5V2.5ZM38.5 65.5384C38.5 30.6948 66.2238 2.5 100.36 2.5V-0.5C64.5152 -0.5 35.5 29.0902 35.5 65.5384H38.5ZM87.586 127.228C59.0955 121.048 38.5 95.4547 38.5 65.5384H35.5C35.5 96.8413 57.0554 123.675 86.95 130.16L87.586 127.228ZM91.7945 127.556C90.0717 127.556 88.8122 127.476 87.5651 127.224L86.971 130.164C88.4984 130.473 89.9827 130.556 91.7952 130.556L91.7945 127.556ZM90.2894 105.352L90.2948 129.056L93.2948 129.056L93.2894 105.352L90.2894 105.352ZM91.3669 106.758C91.4305 106.759 91.3764 106.761 91.3067 106.748C91.219 106.732 91.121 106.699 91.0295 106.645L92.5494 104.059C92.0397 103.759 91.5653 103.762 91.4274 103.759L91.3669 106.758ZM91.3651 106.758L91.3701 106.758L91.4242 103.759L91.4192 103.759L91.3651 106.758ZM91.0304 106.746C91.0662 106.748 91.1041 106.75 91.1433 106.752L91.2644 103.754C91.2402 103.753 91.2221 103.752 91.2096 103.752L91.0304 106.746ZM91.2483 103.754L91.2211 103.752L91.0189 106.746L91.0462 106.747L91.2483 103.754ZM91.2638 103.754L91.2073 103.752L91.0872 106.75L91.1438 106.752L91.2638 103.754ZM104.528 67.0831H127.871V64.0831H104.528V67.0831ZM106.028 164.158V65.5831H103.028V164.158H106.028ZM128.626 176.459L105.283 162.862L103.773 165.454L127.116 179.051L128.626 176.459ZM126.371 65.5831V177.755H129.371V65.5831H126.371Z" fill="#474747"/>
</g>
<defs>
<clipPath id="clip0">
<rect width="200" height="200" fill="white"/>
</clipPath>
</defs>
</svg>
