<svg width="150" height="110" viewBox="0 0 150 110" fill="none" xmlns="http://www.w3.org/2000/svg">
<path d="M137.095 92.0533H134.963C134.462 92.0533 134.054 92.4609 134.054 92.9619V95.0938C134.054 95.5949 134.462 96.0024 134.963 96.0024H137.095C137.596 96.0024 138.003 95.5949 138.003 95.0938V92.9619C138.003 92.4609 137.596 92.0533 137.095 92.0533ZM137.121 94.5326C137.121 94.8569 136.858 95.1206 136.533 95.1206H135.524C135.2 95.1206 134.936 94.8569 134.936 94.5326V93.5231C134.936 93.1989 135.2 92.9352 135.524 92.9352H136.533C136.858 92.9352 137.121 93.1989 137.121 93.5231V94.5326Z" fill="#BDBDBD"/>
<path d="M142.092 92H139.96C139.459 92 139.051 92.4076 139.051 92.9086V95.0405C139.051 95.5415 139.459 95.9491 139.96 95.9491H142.092C142.593 95.9491 143 95.5415 143 95.0405V92.9086C143 92.4076 142.593 92 142.092 92ZM142.118 94.4793C142.118 94.8035 141.855 95.0672 141.53 95.0672H140.521C140.197 95.0672 139.933 94.8035 139.933 94.4793V93.4698C139.933 93.1456 140.197 92.8819 140.521 92.8819H141.53C141.855 92.8819 142.118 93.1456 142.118 93.4698V94.4793Z" fill="#BDBDBD"/>
<path d="M142.092 97.0507H139.96C139.459 97.0507 139.051 97.4582 139.051 97.9592V100.091C139.051 100.592 139.459 101 139.96 101H142.092C142.593 101 143 100.592 143 100.091V97.9592C143 97.4582 142.593 97.0507 142.092 97.0507ZM142.118 99.53C142.118 99.8542 141.855 100.118 141.53 100.118H140.521C140.197 100.118 139.933 99.8542 139.933 99.53V98.5204C139.933 98.1962 140.197 97.9325 140.521 97.9325H141.53C141.855 97.9325 142.118 98.1962 142.118 98.5204V99.53Z" fill="#BDBDBD"/>
<path d="M137.041 97.0507H134.909C134.408 97.0507 134 97.4582 134 97.9592V100.091C134 100.592 134.408 101 134.909 101H137.041C137.542 101 137.949 100.592 137.949 100.091V97.9592C137.949 97.4582 137.542 97.0507 137.041 97.0507ZM137.067 99.53C137.067 99.8542 136.804 100.118 136.479 100.118H135.47C135.146 100.118 134.882 99.8542 134.882 99.53V98.5204C134.882 98.1962 135.146 97.9325 135.47 97.9325H136.479C136.804 97.9325 137.067 98.1962 137.067 98.5204V99.53Z" fill="#BDBDBD"/>
<path d="M147.699 43H142.301C141.032 43 140 44.0321 140 45.3008V50.6992C140 51.9679 141.032 53 142.301 53H147.699C148.968 53 150 51.9679 150 50.6992V45.3008C150 44.0321 148.968 43 147.699 43ZM149.375 50.8125C149.375 51.6335 148.52 52.375 147.699 52.375H142.187C141.367 52.375 140.625 51.5202 140.625 50.6992V45.1875C140.625 44.3665 141.48 43.625 142.301 43.625H147.699C148.52 43.625 149.375 44.4798 149.375 45.3008V50.8125Z" fill="#BDBDBD"/>
<line x1="141.875" y1="48.375" x2="146.875" y2="48.375" stroke="#BDBDBD" stroke-width="0.5"/>
<line x1="141.877" y1="45.875" x2="146.877" y2="45.875" stroke="#BDBDBD" stroke-width="0.5"/>
<line x1="141.875" y1="47.1254" x2="146.875" y2="47.1254" stroke="#BDBDBD" stroke-width="0.5"/>
<path d="M7.69927 49H2.30071C1.03207 49 0 50.0321 0 51.3008V56.6992C0 57.9679 1.03207 59 2.30071 59H7.69927C8.96791 59 9.99999 57.9679 9.99999 56.6992V51.3008C9.99999 50.0321 8.96791 49 7.69927 49ZM9.37499 56.8125C9.37499 57.6335 8.52022 58.375 7.69927 58.375H2.1875C1.36655 58.375 0.624999 57.5202 0.624999 56.6992V51.1875C0.624999 50.3665 1.47977 49.625 2.30071 49.625H7.69927C8.52022 49.625 9.37499 50.4798 9.37499 51.3008V56.8125Z" fill="#BDBDBD"/>
<line x1="1.875" y1="54.375" x2="6.87499" y2="54.375" stroke="#BDBDBD" stroke-width="0.5"/>
<line x1="1.87714" y1="51.875" x2="6.87713" y2="51.875" stroke="#BDBDBD" stroke-width="0.5"/>
<line x1="1.875" y1="53.1254" x2="6.87499" y2="53.1254" stroke="#BDBDBD" stroke-width="0.5"/>
<path d="M137.79 2.475L137.55 2.54398C137.566 2.60207 137.575 2.64301 137.578 2.6829L137.579 2.69446L137.581 2.70591C137.615 2.91449 137.638 3.24542 137.638 3.47V3.47006V3.47012V3.47018V3.47024V3.47029V3.47035V3.47041V3.47047V3.47053V3.47059V3.47065V3.47071V3.47077V3.47083V3.47089V3.47095V3.47101V3.47107V3.47113V3.47119V3.47125V3.47132V3.47138V3.47144V3.4715V3.47156V3.47162V3.47168V3.47175V3.47181V3.47187V3.47193V3.47199V3.47206V3.47212V3.47218V3.47224V3.4723V3.47237V3.47243V3.47249V3.47256V3.47262V3.47268V3.47275V3.47281V3.47287V3.47294V3.473V3.47306V3.47313V3.47319V3.47325V3.47332V3.47338V3.47345V3.47351V3.47358V3.47364V3.47371V3.47377V3.47383V3.4739V3.47396V3.47403V3.47409V3.47416V3.47423V3.47429V3.47436V3.47442V3.47449V3.47455V3.47462V3.47468V3.47475V3.47482V3.47488V3.47495V3.47502V3.47508V3.47515V3.47521V3.47528V3.47535V3.47541V3.47548V3.47555V3.47562V3.47568V3.47575V3.47582V3.47588V3.47595V3.47602V3.47609V3.47615V3.47622V3.47629V3.47636V3.47642V3.47649V3.47656V3.47663V3.4767V3.47676V3.47683V3.4769V3.47697V3.47704V3.47711V3.47718V3.47724V3.47731V3.47738V3.47745V3.47752V3.47759V3.47766V3.47773V3.4778V3.47786V3.47793V3.478V3.47807V3.47814V3.47821V3.47828V3.47835V3.47842V3.47849V3.47856V3.47863V3.4787V3.47877V3.47884V3.47891V3.47898V3.47905V3.47912V3.47919V3.47926V3.47933V3.4794V3.47947V3.47954V3.47961V3.47968V3.47975V3.47983V3.4799V3.47997V3.48004V3.48011V3.48018V3.48025V3.48032V3.48039V3.48046V3.48053V3.48061V3.48068V3.48075V3.48082V3.48089V3.48096V3.48103V3.48111V3.48118V3.48125V3.48132V3.48139V3.48146V3.48154V3.48161V3.48168V3.48175V3.48182V3.48189V3.48197V3.48204V3.48211V3.48218V3.48225V3.48233V3.4824V3.48247V3.48254V3.48261V3.48269V3.48276V3.48283V3.4829V3.48298V3.48305V3.48312V3.48319V3.48327V3.48334V3.48341V3.48348V3.48356V3.48363V3.4837V3.48377V3.48385V3.48392V3.48399V3.48407V3.48414V3.48421V3.48428V3.48436V3.48443V3.4845V3.48458V3.48465V3.48472V3.48479V3.48487V3.48494V3.48501V3.48509V3.48516V3.48523V3.4853V3.48538V3.48545V3.48552V3.4856V3.48567V3.48574V3.48582V3.48589V3.48596V3.48604V3.48611V3.48618V3.48626V3.48633V3.4864V3.48647V3.48655V3.48662V3.48669V3.48677V3.48684V3.48691V3.48699V3.48706V3.48713V3.48721V3.48728V3.48735V3.48743V3.4875V3.48757V3.48765V3.48772V3.48779V3.48787V3.48794V3.48801V3.48809V3.48816V3.48823V3.48831V3.48838V3.48845V3.48853V3.4886V3.48867V3.48874V3.48882V3.48889V3.48896V3.48904V3.48911V3.48918V3.48926V3.48933V3.4894V3.48948V3.48955V3.48962V3.4897V3.48977V3.48984V3.48991V3.48999V3.49006V3.49013V3.49021V3.49028V3.49035V3.49042V3.4905V3.49057V3.49064V3.49072V3.49079V3.49086V3.49093V3.49101V3.49108V3.49115V3.49123V3.4913V3.49137V3.49144V3.49152V3.49159V3.49166V3.49173V3.49181V3.49188V3.49195V3.49202V3.4921V3.49217V3.49224V3.49231V3.49238V3.49246V3.49253V3.4926V3.49267V3.49275V3.49282V3.49289V3.49296V3.49303V3.49311V3.49318V3.49325V3.49332V3.49339V3.49346V3.49354V3.49361V3.49368V3.49375V3.49382V3.49389V3.49397V3.49404V3.49411V3.49418V3.49425V3.49432V3.49439V3.49447V3.49454V3.49461V3.49468V3.49475V3.49482V3.49489V3.49496V3.49503V3.4951V3.49517V3.49525V3.49532V3.49539V3.49546V3.49553V3.4956V3.49567V3.49574V3.49581V3.49588V3.49595V3.49602V3.49609V3.49616V3.49623V3.4963V3.49637V3.49644V3.49651V3.49658V3.49665V3.49672V3.49679V3.49686V3.49693V3.497V3.49707V3.49714V3.4972V3.49727V3.49734V3.49741V3.49748V3.49755V3.49762V3.49769V3.49776V3.49782V3.49789V3.49796V3.49803V3.4981V3.49817V3.49823V3.4983V3.49837V3.49844V3.49851V3.49858V3.49864V3.49871V3.49878V3.49885V3.49891V3.49898V3.49905V3.49912V3.49918V3.49925V3.49932V3.49938V3.49945V3.49952V3.49959V3.49965V3.49972V3.49979V3.49985V3.49992V3.49998V3.50005V3.50012V3.50018V3.50025V3.50032V3.50038V3.50045V3.50051V3.50058V3.50064V3.50071V3.50077V3.50084V3.50091V3.50097V3.50104V3.5011V3.50117V3.50123V3.50129V3.50136V3.50142V3.50149V3.50155V3.50162V3.50168V3.50174V3.50181V3.50187V3.50194V3.502V3.50206V3.50213V3.50219V3.50225V3.50232V3.50238V3.50244V3.50251V3.50257V3.50263V3.5027V3.50276V3.50282V3.50288V3.50294V3.50301V3.50307V3.50313V3.50319V3.50325V3.50332V3.50338V3.50344V3.5035V3.50356V3.50362V3.50368V3.50375V3.50381V3.50387V3.50393V3.50399V3.50405V3.50411V3.50417V3.50423V3.50429V3.50435V3.50441V3.50447V3.50453V3.50459V3.50465V3.50471V3.50476V3.50482V3.50488V3.50494V3.505V3.66389L137.775 3.72803C137.775 3.72832 137.775 3.72864 137.775 3.72899C137.781 3.73858 137.795 3.7685 137.802 3.83494C137.804 3.87305 137.798 3.91262 137.789 3.94873C137.778 3.98699 137.766 4.0124 137.763 4.01788L137.743 4.05452L137.735 4.09585C137.728 4.13565 137.715 4.16795 137.702 4.18703C137.7 4.19054 137.698 4.19306 137.696 4.19481L137.558 4.22908L137.523 4.37821C137.512 4.42487 137.498 4.47565 137.484 4.51974C137.479 4.5312 137.476 4.54041 137.474 4.54599C137.471 4.55673 137.468 4.56663 137.466 4.57507C137.384 4.79935 137.262 4.99046 137.122 5.12456L137.045 5.19837V5.305C137.045 5.30661 137.045 5.30837 137.045 5.31028C137.045 5.33323 137.045 5.37675 137.052 5.42063C137.053 5.43618 137.054 5.45266 137.054 5.47371L137.055 5.47768C137.055 5.49978 137.056 5.52858 137.059 5.55788C137.065 5.62398 137.08 5.70551 137.125 5.79183C137.215 5.95975 137.39 6.08593 137.659 6.2108C137.775 6.26704 137.903 6.32338 138.029 6.37889C138.048 6.38736 138.068 6.39581 138.087 6.40423C138.235 6.46939 138.379 6.53425 138.512 6.60239C138.645 6.67087 138.758 6.73862 138.845 6.80698C138.932 6.8754 138.976 6.93268 138.996 6.97652C139.041 7.08874 139.063 7.18222 139.074 7.255H138.105C138.073 7.13166 138.031 7.00458 137.98 6.87646L137.98 6.87643L137.977 6.8707C137.725 6.28717 137.206 5.97966 136.339 5.59177L136.337 5.59128L136.248 5.55201L136.13 5.50003C136.091 5.48267 136.054 5.46654 136.027 5.4545L136.024 5.45097L136.019 5.44883C136.02 5.43391 136.021 5.42113 136.023 5.40396L136.025 5.38953V5.375C136.025 5.37509 136.025 5.37242 136.026 5.35613L136.026 5.35379C136.027 5.34171 136.029 5.31848 136.029 5.295V5.18369L135.947 5.10921C135.883 5.05151 135.821 4.98015 135.766 4.89691C135.845 4.74944 135.916 4.59146 135.974 4.42076L135.974 4.42032L135.977 4.41142L135.981 4.41241L135.986 4.39892C136.171 4.2318 136.287 4.00229 136.348 3.76686C136.441 3.55248 136.498 3.29347 136.476 3.01562L136.476 3.01562L136.476 3.01178C136.453 2.76096 136.382 2.52714 136.255 2.33875C136.247 2.15923 136.236 1.97082 136.22 1.79502C136.322 1.7656 136.43 1.75 136.53 1.75C136.757 1.75 137.011 1.83025 137.179 1.96823L137.179 1.96874C137.351 2.10897 137.483 2.31403 137.55 2.54427L137.79 2.475ZM137.79 2.475C137.711 2.2 137.552 1.95 137.337 1.775L138.051 3.815C138.032 3.625 137.963 3.54 137.888 3.505V3.47C137.888 3.235 137.865 2.89 137.827 2.665C137.823 2.6 137.809 2.54 137.79 2.475ZM135.266 6.19574C135.413 6.26652 135.576 6.33798 135.739 6.40938C135.771 6.42347 135.803 6.43756 135.835 6.45164C136.033 6.53841 136.228 6.62607 136.407 6.71851C136.587 6.81131 136.744 6.90498 136.866 7.00132C136.987 7.09785 137.059 7.18509 137.093 7.26121C137.176 7.47023 137.205 7.63564 137.213 7.75H130.252C130.26 7.63594 130.29 7.46996 130.376 7.25959C130.407 7.18264 130.477 7.09417 130.598 6.99606C130.718 6.8992 130.872 6.80494 131.051 6.71173C131.277 6.59423 131.512 6.492 131.745 6.39052C131.896 6.32506 132.045 6.25992 132.191 6.19119C132.547 6.02356 132.762 5.86509 132.873 5.67176C132.964 5.51477 132.971 5.34275 132.975 5.24185C132.976 5.22215 132.976 5.20516 132.978 5.19152L132.978 5.18078V5.17C132.978 5.16221 132.979 5.15303 132.98 5.13412L132.98 5.13188C132.981 5.11569 132.983 5.09098 132.983 5.065V4.9559L132.903 4.88171C132.697 4.69046 132.519 4.41659 132.405 4.09573V4.09294L132.399 4.08097L132.383 4.03286L132.376 4.02544C132.356 3.97553 132.339 3.91533 132.324 3.84639L132.289 3.68505L132.128 3.65472C132.125 3.65275 132.114 3.64501 132.098 3.6209C132.073 3.58263 132.05 3.52459 132.035 3.45786L132.028 3.42344L132.011 3.39239C131.984 3.34039 131.935 3.22256 131.946 3.09881L131.946 3.09777C131.956 2.99725 131.978 2.94473 131.993 2.91989C132.007 2.89803 132.017 2.89282 132.023 2.89054L132.176 2.82625V2.66V2.65991V2.65982V2.65974V2.65965V2.65956V2.65947V2.65939V2.6593V2.65921V2.65913V2.65904V2.65895V2.65887V2.65878V2.65869V2.65861V2.65852V2.65844V2.65835V2.65826V2.65818V2.65809V2.65801V2.65792V2.65784V2.65775V2.65767V2.65758V2.6575V2.65741V2.65733V2.65724V2.65716V2.65707V2.65699V2.65691V2.65682V2.65674V2.65665V2.65657V2.65649V2.6564V2.65632V2.65624V2.65615V2.65607V2.65599V2.65591V2.65582V2.65574V2.65566V2.65557V2.65549V2.65541V2.65533V2.65524V2.65516V2.65508V2.655V2.65492V2.65483V2.65475V2.65467V2.65459V2.65451V2.65443V2.65435V2.65426V2.65418V2.6541V2.65402V2.65394V2.65386V2.65378V2.6537V2.65362V2.65354V2.65346V2.65338V2.6533V2.65322V2.65314V2.65306V2.65298V2.6529V2.65282V2.65274V2.65266V2.65258V2.6525V2.65242V2.65234V2.65226V2.65218V2.6521V2.65202V2.65195V2.65187V2.65179V2.65171V2.65163V2.65155V2.65147V2.65139V2.65132V2.65124V2.65116V2.65108V2.651V2.65093V2.65085V2.65077V2.65069V2.65061V2.65054V2.65046V2.65038V2.6503V2.65023V2.65015V2.65007V2.64999V2.64992V2.64984V2.64976V2.64969V2.64961V2.64953V2.64945V2.64938V2.6493V2.64922V2.64915V2.64907V2.64899V2.64892V2.64884V2.64877V2.64869V2.64861V2.64854V2.64846V2.64838V2.64831V2.64823V2.64816V2.64808V2.648V2.64793V2.64785V2.64778V2.6477V2.64763V2.64755V2.64747V2.6474V2.64732V2.64725V2.64717V2.6471V2.64702V2.64695V2.64687V2.6468V2.64672V2.64665V2.64657V2.6465V2.64642V2.64635V2.64627V2.6462V2.64612V2.64605V2.64597V2.6459V2.64582V2.64575V2.64567V2.6456V2.64552V2.64545V2.64538V2.6453V2.64523V2.64515V2.64508V2.645V2.64493V2.64486V2.64478V2.64471V2.64463V2.64456V2.64448V2.64441V2.64434V2.64426V2.64419V2.64411V2.64404V2.64397V2.64389V2.64382V2.64375V2.64367V2.6436V2.64352V2.64345V2.64338V2.6433V2.64323V2.64316V2.64308V2.64301V2.64293V2.64286V2.64279V2.64271V2.64264V2.64257V2.64249V2.64242V2.64235V2.64227V2.6422V2.64213V2.64205V2.64198V2.64191V2.64183V2.64176V2.64169V2.64161V2.64154V2.64147V2.64139V2.64132V2.64125V2.64117V2.6411V2.64103V2.64095V2.64088V2.64081V2.64073V2.64066V2.64059V2.64051V2.64044V2.64037V2.64029V2.64022V2.64015V2.64007V2.64V2.63993V2.63985V2.63978V2.63971V2.63963V2.63956V2.63949V2.63941V2.63934V2.63927V2.63919V2.63912V2.63905V2.63897V2.6389V2.63883V2.63875V2.63868V2.63861V2.63853V2.63846V2.63839V2.63831V2.63824V2.63817V2.63809V2.63802V2.63795V2.63787V2.6378V2.63773V2.63765V2.63758V2.63751V2.63743V2.63736V2.63729V2.63721V2.63714V2.63707V2.63699V2.63692V2.63684V2.63677V2.6367V2.63662V2.63655V2.63648V2.6364V2.63633V2.63625V2.63618V2.63611V2.63603V2.63596V2.63589V2.63581V2.63574V2.63566V2.63559V2.63552V2.63544V2.63537V2.63529V2.63522V2.63514V2.63507V2.635V2.63492V2.63485V2.63477V2.6347V2.63462V2.63455V2.63448V2.6344V2.63433V2.63425V2.63418V2.6341V2.63403V2.63395V2.63388V2.6338V2.63373V2.63365V2.63358V2.6335V2.63343V2.63335V2.63328V2.6332V2.63313V2.63305V2.63298V2.6329V2.63283V2.63275V2.63268V2.6326V2.63253V2.63245V2.63237V2.6323V2.63222V2.63215V2.63207V2.632V2.63192V2.63184V2.63177V2.63169V2.63162V2.63154V2.63146V2.63139V2.63131V2.63123V2.63116V2.63108V2.63101V2.63093V2.63085V2.63078V2.6307V2.63062V2.63055V2.63047V2.63039V2.63031V2.63024V2.63016V2.63008V2.63001V2.62993V2.62985V2.62977V2.6297V2.62962V2.62954V2.62946V2.62939V2.62931V2.62923V2.62915V2.62907V2.629V2.62892V2.62884V2.62876V2.62868V2.62861V2.62853V2.62845V2.62837V2.62829V2.62821V2.62813V2.62805V2.62798V2.6279V2.62782V2.62774V2.62766V2.62758V2.6275V2.62742V2.62734V2.62726V2.62718V2.6271V2.62702V2.62694V2.62686V2.62678V2.6267V2.62662V2.62654V2.62646V2.62638V2.6263V2.62622V2.62614V2.62606V2.62598V2.6259V2.62582V2.62574V2.62565V2.62557V2.62549V2.62541V2.62533V2.62525V2.62517V2.62508V2.625V2.62492V2.62484V2.62476V2.62467V2.62459V2.62451V2.62443V2.62434V2.62426V2.62418V2.62409V2.62401V2.62393V2.62385V2.62376V2.62368V2.6236V2.62351V2.62343V2.62335V2.62326V2.62318V2.62309V2.62301V2.62293V2.62284V2.62276V2.62267V2.62259V2.6225V2.62242V2.62233V2.62225V2.62216V2.62208V2.62199V2.62191V2.62182V2.62174V2.62165V2.62156V2.62148V2.62139V2.62131V2.62122V2.62113V2.62105V2.62096V2.62087V2.62079V2.6207V2.62061V2.62053V2.62044V2.62035V2.62026V2.62018V2.62009V2.62C132.176 2.30577 132.199 1.86856 132.251 1.59086L132.253 1.58162L132.254 1.57228C132.261 1.50469 132.277 1.4342 132.297 1.36498L132.297 1.36498L132.298 1.36182C132.387 1.04004 132.573 0.755379 132.816 0.559431L132.816 0.559447L132.818 0.557389C133.055 0.360759 133.411 0.25 133.731 0.25C134.052 0.25 134.408 0.360537 134.651 0.558636L134.651 0.558653L134.653 0.560672C134.897 0.754429 135.08 1.04221 135.17 1.3619C135.192 1.44124 135.206 1.50652 135.214 1.57228L135.214 1.57974L135.216 1.58715C135.264 1.86874 135.291 2.3137 135.291 2.62V2.62009V2.62018V2.62026V2.62035V2.62044V2.62053V2.62062V2.6207V2.62079V2.62088V2.62097V2.62105V2.62114V2.62123V2.62132V2.62141V2.62149V2.62158V2.62167V2.62176V2.62185V2.62193V2.62202V2.62211V2.6222V2.62229V2.62237V2.62246V2.62255V2.62264V2.62272V2.62281V2.6229V2.62299V2.62308V2.62316V2.62325V2.62334V2.62343V2.62352V2.6236V2.62369V2.62378V2.62387V2.62396V2.62404V2.62413V2.62422V2.62431V2.62439V2.62448V2.62457V2.62466V2.62475V2.62483V2.62492V2.62501V2.6251V2.62519V2.62527V2.62536V2.62545V2.62554V2.62562V2.62571V2.6258V2.62589V2.62598V2.62606V2.62615V2.62624V2.62633V2.62642V2.6265V2.62659V2.62668V2.62677V2.62686V2.62694V2.62703V2.62712V2.62721V2.62729V2.62738V2.62747V2.62756V2.62765V2.62773V2.62782V2.62791V2.628V2.62809V2.62817V2.62826V2.62835V2.62844V2.62853V2.62861V2.6287V2.62879V2.62888V2.62896V2.62905V2.62914V2.62923V2.62932V2.6294V2.62949V2.62958V2.62967V2.62976V2.62984V2.62993V2.63002V2.63011V2.6302V2.63028V2.63037V2.63046V2.63055V2.63063V2.63072V2.63081V2.6309V2.63099V2.63107V2.63116V2.63125V2.63134V2.63143V2.63151V2.6316V2.63169V2.63178V2.63187V2.63195V2.63204V2.63213V2.63222V2.6323V2.63239V2.63248V2.63257V2.63266V2.63274V2.63283V2.63292V2.63301V2.6331V2.63318V2.63327V2.63336V2.63345V2.63354V2.63362V2.63371V2.6338V2.63389V2.63397V2.63406V2.63415V2.63424V2.63433V2.63441V2.6345V2.63459V2.63468V2.63477V2.63485V2.63494V2.63503V2.63512V2.63521V2.63529V2.63538V2.63547V2.63556V2.63564V2.63573V2.63582V2.63591V2.636V2.63608V2.63617V2.63626V2.63635V2.63644V2.63652V2.63661V2.6367V2.63679V2.63687V2.63696V2.63705V2.63714V2.63723V2.63731V2.6374V2.63749V2.63758V2.63767V2.63775V2.63784V2.63793V2.63802V2.63811V2.63819V2.63828V2.63837V2.63846V2.63854V2.63863V2.63872V2.63881V2.6389V2.63898V2.63907V2.63916V2.63925V2.63934V2.63942V2.63951V2.6396V2.63969V2.63978V2.63986V2.63995V2.64004V2.64013V2.64021V2.6403V2.64039V2.64048V2.64057V2.64065V2.64074V2.64083V2.64092V2.64101V2.64109V2.64118V2.64127V2.64136V2.64145V2.64153V2.64162V2.64171V2.6418V2.64188V2.64197V2.64206V2.64215V2.64224V2.64232V2.64241V2.6425V2.64259V2.64268V2.64276V2.64285V2.64294V2.64303V2.64312V2.6432V2.64329V2.64338V2.64347V2.64355V2.64364V2.64373V2.64382V2.64391V2.64399V2.64408V2.64417V2.64426V2.64435V2.64443V2.64452V2.64461V2.6447V2.64479V2.64487V2.64496V2.64505V2.64514V2.64522V2.64531V2.6454V2.64549V2.64558V2.64566V2.64575V2.64584V2.64593V2.64602V2.6461V2.64619V2.64628V2.64637V2.64646V2.64654V2.64663V2.64672V2.64681V2.64689V2.64698V2.64707V2.64716V2.64725V2.64733V2.64742V2.64751V2.6476V2.64769V2.64777V2.64786V2.64795V2.64804V2.64812V2.64821V2.6483V2.64839V2.64848V2.64856V2.64865V2.64874V2.64883V2.64892V2.649V2.64909V2.64918V2.64927V2.64936V2.64944V2.64953V2.64962V2.64971V2.64979V2.64988V2.64997V2.65006V2.65015V2.65023V2.65032V2.65041V2.6505V2.65059V2.65067V2.65076V2.65085V2.65094V2.65103V2.65111V2.6512V2.65129V2.65138V2.65146V2.65155V2.65164V2.65173V2.65182V2.6519V2.65199V2.65208V2.65217V2.65226V2.65234V2.65243V2.65252V2.65261V2.6527V2.65278V2.65287V2.65296V2.65305V2.65313V2.65322V2.65331V2.6534V2.65349V2.65357V2.65366V2.65375V2.65384V2.65393V2.65401V2.6541V2.65419V2.65428V2.65437V2.65445V2.65454V2.65463V2.65472V2.6548V2.65489V2.65498V2.65507V2.65516V2.65524V2.65533V2.65542V2.65551V2.6556V2.65568V2.65577V2.65586V2.65595V2.65604V2.65612V2.65621V2.6563V2.65639V2.65647V2.65656V2.65665V2.65674V2.65683V2.65691V2.657V2.65709V2.65718V2.65727V2.65735V2.65744V2.65753V2.65762V2.65771V2.65779V2.65788V2.65797V2.65806V2.65814V2.65823V2.65832V2.65841V2.6585V2.65858V2.65867V2.65876V2.65885V2.65894V2.65902V2.65911V2.6592V2.65929V2.65937V2.65946V2.65955V2.65964V2.65973V2.65981V2.6599V2.65999V2.66008V2.66017V2.66025V2.66034V2.66043V2.66052V2.66061V2.66069V2.66078V2.66087V2.66096V2.66104V2.66113V2.66122V2.66131V2.6614V2.66148V2.66157V2.66166V2.66175V2.66184V2.66192V2.66201V2.6621V2.66219V2.66228V2.66236V2.66245V2.66254V2.66263V2.66271V2.6628V2.66289V2.66298V2.66307V2.66315V2.66324V2.66333V2.66342V2.66351V2.66359V2.66368V2.66377V2.66386V2.66395V2.66403V2.66412V2.66421V2.6643V2.66438V2.66447V2.66456V2.66465V2.66474V2.66482V2.66491V2.665V2.82836L135.441 2.89396L135.441 2.89402C135.443 2.89498 135.453 2.89912 135.466 2.92101C135.481 2.94608 135.502 2.99807 135.511 3.09543C135.52 3.22542 135.471 3.34599 135.447 3.39239L135.429 3.42573L135.422 3.46284C135.41 3.52411 135.388 3.58017 135.363 3.61833C135.344 3.64793 135.331 3.6549 135.328 3.65601L135.175 3.68982L135.139 3.84321C135.123 3.91159 135.105 3.97927 135.084 4.03724C135.082 4.0422 135.08 4.04584 135.08 4.04767C135.079 4.04796 135.079 4.04821 135.079 4.0484C135.074 4.06167 135.07 4.07335 135.068 4.08013C135.066 4.084 135.065 4.0876 135.065 4.09079C134.949 4.41139 134.779 4.68206 134.577 4.87336L134.498 4.94734V5.055C134.498 5.05683 134.498 5.05871 134.498 5.06065C134.498 5.09492 134.498 5.1462 134.504 5.19588C134.506 5.22119 134.507 5.24687 134.508 5.27794L134.508 5.28218C134.509 5.31234 134.51 5.34918 134.514 5.38652C134.521 5.4686 134.538 5.56557 134.592 5.66783C134.697 5.86782 134.91 6.02815 135.266 6.19574ZM135.266 6.19574C135.266 6.19589 135.267 6.19604 135.267 6.19619L135.373 5.97L135.265 6.19527C135.265 6.19543 135.266 6.19558 135.266 6.19574ZM132.13 3.6553C132.13 3.65532 132.129 3.65523 132.129 3.65495L132.13 3.6553Z" stroke="#BDBDBD" stroke-width="0.5"/>
<path d="M17.5 6.3125V9.5C17.5 10.3943 18.2307 11.125 19.125 11.125H21.8883L22.3125 11.5492V12.25C22.3125 12.4901 22.1151 12.6875 21.875 12.6875H18.7194H18.6156L18.5423 12.7611L16.6869 14.6233C16.6868 14.6234 16.6866 14.6236 16.6865 14.6237C16.625 14.6846 16.5469 14.7261 16.462 14.7428C16.3768 14.7595 16.2886 14.7507 16.2085 14.7175C16.1284 14.6842 16.0599 14.628 16.0117 14.5558C15.9635 14.4837 15.9377 14.399 15.9375 14.3123V12.9375V12.6875H15.6875C15.4474 12.6875 15.25 12.4901 15.25 12.25V6.75C15.25 6.50995 15.4474 6.3125 15.6875 6.3125H17.5ZM22.4574 10.0107L22.3842 9.9375H22.2806H19.125C18.8849 9.9375 18.6875 9.74005 18.6875 9.5V4.6875C18.6875 4.44745 18.8849 4.25 19.125 4.25H25.3125C25.5526 4.25 25.75 4.44745 25.75 4.6875V9.5C25.75 9.74005 25.5526 9.9375 25.3125 9.9375H25.0625V10.1875V11.5625C25.0625 11.8026 24.8651 12 24.625 12C24.4982 12 24.3931 11.9505 24.3255 11.879L24.3256 11.8789L24.3205 11.8738L22.4574 10.0107Z" stroke="#BDBDBD" stroke-width="0.5"/>
<path fill-rule="evenodd" clip-rule="evenodd" d="M26.7 103.4C26.94 103.4 27.18 103.34 27.36 103.22C28.2 103.7 28.74 104.6 28.8 105.56C28.8 105.86 29.1 106.1 29.4 106.1C29.76 106.1 30 105.86 30 105.5V105.38C29.88 103.94 29.1 102.74 27.9 102.08C27.84 101.48 27.36 101 26.7 101C26.04 101 25.5 101.54 25.5 102.2C25.5 102.86 26.04 103.4 26.7 103.4ZM23.4 106.1C23.4 105.68 23.16 105.32 22.86 105.08C23.04 104.24 23.58 103.52 24.36 103.1C24.54 103.04 24.72 102.86 24.72 102.56C24.72 102.26 24.48 101.96 24.12 101.96C24 101.96 23.94 101.96 23.82 102.02C22.68 102.62 21.9 103.7 21.66 105.02C21.24 105.26 21 105.68 21 106.1C21 106.76 21.54 107.3 22.2 107.3C22.86 107.3 23.4 106.76 23.4 106.1ZM28.68 106.82C28.02 106.82 27.48 107.36 27.48 108.02V108.2C27 108.56 26.4 108.74 25.8 108.74C25.08 108.74 24.42 108.5 23.88 108.08C23.76 107.96 23.64 107.9 23.46 107.9C23.1 107.9 22.86 108.14 22.86 108.5C22.86 108.68 22.92 108.86 23.04 108.98C23.76 109.64 24.72 110 25.8 110C26.7 110 27.6 109.7 28.26 109.22C28.38 109.28 28.56 109.28 28.68 109.28C29.34 109.28 29.88 108.74 29.88 108.08C29.88 107.42 29.34 106.82 28.68 106.82Z" fill="#BDBDBD"/>
</svg>
