<svg width="162" height="106" viewBox="0 0 162 106" fill="none" xmlns="http://www.w3.org/2000/svg">
<circle cx="3" cy="48" r="2.5" fill="white" stroke="#BDBDBD"/>
<circle cx="4" cy="60" r="2.5" fill="white" stroke="#BDBDBD"/>
<line x1="3.5" y1="50" x2="3.5" y2="58" stroke="#BDBDBD"/>
<circle cx="27.6669" cy="91.2145" r="2.5" transform="rotate(38.3927 27.6669 91.2145)" fill="white" stroke="#BDBDBD"/>
<circle cx="20.9981" cy="101.241" r="2.5" transform="rotate(38.3927 20.9981 101.241)" fill="white" stroke="#BDBDBD"/>
<line x1="26.8167" y1="93.0925" x2="21.8483" y2="99.3627" stroke="#BDBDBD"/>
<circle cx="135.238" cy="18.2381" r="2.5" transform="rotate(132.341 135.238 18.2381)" fill="white" stroke="#BDBDBD"/>
<circle cx="122.561" cy="5.55595" r="2.5" transform="rotate(132.341 122.561 5.55595)" fill="white" stroke="#BDBDBD"/>
<line x1="133.636" y1="16.3433" x2="124.349" y2="6.50716" stroke="#BDBDBD"/>
<circle cx="143.904" cy="83.111" r="2.5" transform="rotate(-45 143.904 83.111)" fill="white" stroke="#BDBDBD"/>
<circle cx="41.2426" cy="4.24261" r="2.5" transform="rotate(-45 41.2426 4.24261)" fill="white" stroke="#BDBDBD"/>
<line x1="145.672" y1="84.1716" x2="151.328" y2="89.8284" stroke="#BDBDBD"/>
<line x1="157.481" y1="75.1374" x2="153.481" y2="89.1374" stroke="#BDBDBD"/>
<circle cx="153.096" cy="90.8891" r="2.5" transform="rotate(-45 153.096 90.8891)" fill="white" stroke="#BDBDBD"/>
<circle cx="157.243" cy="73.2427" r="2.5" transform="rotate(-45 157.243 73.2427)" fill="white" stroke="#BDBDBD"/>
<circle cx="143.904" cy="83.111" r="2.5" transform="rotate(-45 143.904 83.111)" fill="white" stroke="#BDBDBD"/>
<circle cx="153.096" cy="90.8891" r="2.5" transform="rotate(-45 153.096 90.8891)" fill="white" stroke="#BDBDBD"/>
<circle cx="157.243" cy="73.2427" r="2.5" transform="rotate(-45 157.243 73.2427)" fill="white" stroke="#BDBDBD"/>
</svg>
