<svg width="85" height="85" viewBox="0 0 85 85" fill="none" xmlns="http://www.w3.org/2000/svg">
<path d="M66.75 2V1.25H66H51.1848H50.4348V2V37.0948C50.4348 41.1112 50.2913 43.8159 50.0217 45.2651C49.7704 46.6165 49.1782 47.3868 48.3238 47.7696C47.3494 48.2061 45.4526 48.467 42.5 48.467C39.5474 48.467 37.6506 48.2061 36.6762 47.7696C35.8218 47.3868 35.2296 46.6165 34.9783 45.2651C34.7087 43.8159 34.5652 41.1112 34.5652 37.0948V2V1.25H33.8152H19H18.25V2V33.9583C18.25 41.7671 18.7029 47.5529 19.6349 51.2646L19.6348 51.2646L19.6384 51.2781C20.6589 55.043 22.9018 57.7666 26.3431 59.3896C29.7376 60.9904 35.159 61.75 42.5 61.75C49.841 61.75 55.2624 60.9904 58.6569 59.3896C62.0998 57.7659 64.3159 55.0395 65.2782 51.2713C66.2692 47.5542 66.75 41.7651 66.75 33.9583V2Z" stroke="#474747" stroke-width="1.5"/>
<rect x="17.75" y="70.75" width="49.5" height="11.5" stroke="#474747" stroke-width="1.5"/>
</svg>
