<svg width="85" height="85" viewBox="0 0 85 85" fill="none" xmlns="http://www.w3.org/2000/svg">
<path d="M67 2V1H66H51.1848H50.1848V2V37.0948C50.1848 41.1125 50.0408 43.7957 49.7759 45.2194C49.5354 46.5126 48.9824 47.2006 48.2216 47.5414C47.3009 47.9539 45.453 48.217 42.5 48.217C39.547 48.217 37.6991 47.9539 36.7784 47.5414C36.0176 47.2006 35.4646 46.5126 35.2241 45.2194C34.9593 43.7957 34.8152 41.1125 34.8152 37.0948V2V1H33.8152H19H18V2V33.9583C18 41.7704 18.4525 47.5821 19.3924 51.3254L19.3947 51.3345L19.3971 51.3435C20.436 55.1766 22.7266 57.9604 26.2365 59.6157C29.684 61.2415 35.1529 62 42.5 62C49.8471 62 55.316 61.2415 58.7635 59.6157C62.2755 57.9594 64.5397 55.172 65.5201 51.3345C66.5197 47.5841 67 41.7679 67 33.9583V2Z" stroke="#474747" stroke-width="2"/>
<rect x="17.5" y="70.5" width="50" height="12" stroke="#474747"/>
</svg>
