<svg width="424" height="212" viewBox="0 0 424 212" fill="none" xmlns="http://www.w3.org/2000/svg">
<path fill-rule="evenodd" clip-rule="evenodd" d="M2.47958 0H15.0375V23.7248L37.3537 0H53.0311L30.7148 22.6026L55.1907 57.228H39.4334L22.2363 31.4994L15.0375 38.7932V57.228H2.47958V0ZM59.0301 15.7898H69.8283V21.5607H70.0682C71.508 19.1561 73.3743 17.4062 75.6673 16.3108C77.9603 15.2154 80.3065 14.6677 82.7061 14.6677C85.7456 14.6677 88.2385 15.0818 90.1849 15.91C92.1312 16.7383 93.6643 17.8871 94.7841 19.3565C95.9039 20.826 96.6904 22.616 97.1437 24.7267C97.597 26.8373 97.8236 29.175 97.8236 31.7399V57.228H86.4655V33.8238C86.4655 30.404 85.9322 27.8526 84.8658 26.1694C83.7993 24.4862 81.9063 23.6446 79.1867 23.6446C76.0939 23.6446 73.8543 24.5663 72.4678 26.4098C71.0814 28.2533 70.3882 31.2857 70.3882 35.507V57.228H59.0301V15.7898ZM116.54 36.549C116.54 38.2054 116.7 39.8218 117.02 41.3981C117.34 42.9744 117.887 44.3904 118.66 45.6461C119.433 46.9018 120.46 47.9037 121.74 48.6518C123.019 49.3999 124.619 49.7739 126.539 49.7739C128.458 49.7739 130.072 49.3999 131.378 48.6518C132.684 47.9037 133.724 46.9018 134.497 45.6461C135.271 44.3904 135.817 42.9744 136.137 41.3981C136.457 39.8218 136.617 38.2054 136.617 36.549C136.617 34.8925 136.457 33.2628 136.137 31.6597C135.817 30.0567 135.271 28.6407 134.497 27.4117C133.724 26.1827 132.684 25.1808 131.378 24.406C130.072 23.6313 128.458 23.2439 126.539 23.2439C124.619 23.2439 123.019 23.6313 121.74 24.406C120.46 25.1808 119.433 26.1827 118.66 27.4117C117.887 28.6407 117.34 30.0567 117.02 31.6597C116.7 33.2628 116.54 34.8925 116.54 36.549ZM105.182 36.549C105.182 33.236 105.689 30.2304 106.702 27.5319C107.715 24.8335 109.155 22.5359 111.021 20.6389C112.888 18.742 115.127 17.2726 117.74 16.2306C120.353 15.1887 123.286 14.6677 126.539 14.6677C129.792 14.6677 132.738 15.1887 135.377 16.2306C138.017 17.2726 140.27 18.742 142.136 20.6389C144.003 22.5359 145.442 24.8335 146.455 27.5319C147.469 30.2304 147.975 33.236 147.975 36.549C147.975 39.8619 147.469 42.8542 146.455 45.5259C145.442 48.1976 144.003 50.4819 142.136 52.3788C140.27 54.2757 138.017 55.7318 135.377 56.7471C132.738 57.7623 129.792 58.2699 126.539 58.2699C123.286 58.2699 120.353 57.7623 117.74 56.7471C115.127 55.7318 112.888 54.2757 111.021 52.3788C109.155 50.4819 107.715 48.1976 106.702 45.5259C105.689 42.8542 105.182 39.8619 105.182 36.549ZM202.606 57.228H190.928L183.569 29.4155H183.409L176.37 57.228H164.612L151.495 15.7898H163.493L171.091 43.9229H171.251L178.13 15.7898H189.168L196.207 43.8427H196.367L203.966 15.7898H215.644L202.606 57.228ZM220.763 0H232.121V57.228H220.763V0ZM268.915 32.0605C268.382 29.175 267.435 26.9843 266.075 25.4881C264.716 23.9919 262.649 23.2439 259.876 23.2439C258.063 23.2439 256.557 23.5511 255.357 24.1656C254.157 24.7801 253.198 25.5415 252.478 26.4499C251.758 27.3583 251.251 28.3201 250.958 29.3354C250.665 30.3506 250.491 31.259 250.438 32.0605H268.915ZM250.438 39.2741C250.598 42.9611 251.531 45.6328 253.238 47.2892C254.944 48.9457 257.397 49.7739 260.596 49.7739C262.889 49.7739 264.862 49.1995 266.515 48.0507C268.168 46.9018 269.182 45.6862 269.555 44.4038H279.553C277.953 49.3732 275.5 52.9265 272.194 55.0639C268.888 57.2013 264.889 58.2699 260.196 58.2699C256.944 58.2699 254.011 57.749 251.398 56.707C248.785 55.665 246.572 54.1822 244.759 52.2586C242.946 50.335 241.546 48.0373 240.56 45.3656C239.573 42.6939 239.08 39.755 239.08 36.549C239.08 33.4498 239.586 30.5643 240.6 27.8926C241.613 25.2209 243.053 22.9099 244.919 20.9595C246.785 19.0092 249.012 17.473 251.598 16.3509C254.184 15.2287 257.05 14.6677 260.196 14.6677C263.716 14.6677 266.782 15.349 269.395 16.7115C272.008 18.0741 274.154 19.9042 275.834 22.2019C277.513 24.4996 278.727 27.1178 279.473 30.0567C280.22 32.9956 280.486 36.068 280.273 39.2741H250.438ZM316.347 36.3887C316.347 34.6788 316.187 33.0357 315.867 31.4594C315.547 29.883 315.001 28.4938 314.227 27.2915C313.454 26.0892 312.454 25.1141 311.228 24.366C310.001 23.6179 308.455 23.2439 306.589 23.2439C304.722 23.2439 303.149 23.6179 301.869 24.366C300.59 25.1141 299.563 26.1026 298.79 27.3316C298.017 28.5606 297.457 29.9632 297.11 31.5395C296.764 33.1158 296.59 34.7589 296.59 36.4688C296.59 38.0718 296.777 39.6748 297.15 41.2779C297.523 42.8809 298.123 44.3103 298.95 45.566C299.776 46.8217 300.816 47.8369 302.069 48.6117C303.322 49.3865 304.829 49.7739 306.589 49.7739C308.455 49.7739 310.015 49.3999 311.268 48.6518C312.521 47.9037 313.521 46.9018 314.267 45.6461C315.014 44.3904 315.547 42.9611 315.867 41.358C316.187 39.755 316.347 38.0986 316.347 36.3887ZM316.507 51.938H316.347C315.014 54.1822 313.267 55.7986 311.108 56.7871C308.948 57.7757 306.509 58.2699 303.789 58.2699C300.696 58.2699 297.977 57.6688 295.63 56.4665C293.284 55.2643 291.351 53.6345 289.831 51.5773C288.312 49.5201 287.165 47.1557 286.392 44.4839C285.619 41.8122 285.232 39.0337 285.232 36.1482C285.232 33.3696 285.619 30.6846 286.392 28.093C287.165 25.5014 288.312 23.2171 289.831 21.2401C291.351 19.263 293.257 17.6734 295.55 16.4711C297.843 15.2688 300.51 14.6677 303.549 14.6677C306.002 14.6677 308.335 15.1887 310.548 16.2306C312.761 17.2726 314.507 18.8088 315.787 20.8393H315.947V0H327.305V57.228H316.507V51.938ZM355.14 47.4495C356.74 47.4495 358.153 47.1289 359.38 46.4877C360.606 45.8465 361.619 44.9916 362.419 43.9229C363.219 42.8542 363.819 41.6386 364.219 40.276C364.619 38.9134 364.819 37.4841 364.819 35.9879C364.819 34.278 364.659 32.6616 364.339 31.1388C364.019 29.6159 363.486 28.2667 362.739 27.0911C361.993 25.9156 361.006 24.9805 359.78 24.2858C358.553 23.5912 357.007 23.2439 355.14 23.2439C353.541 23.2439 352.168 23.5645 351.021 24.2057C349.875 24.8469 348.915 25.7152 348.142 26.8106C347.368 27.906 346.809 29.1617 346.462 30.5777C346.115 31.9937 345.942 33.4765 345.942 35.0261C345.942 36.5223 346.089 38.005 346.382 39.4745C346.675 40.9439 347.182 42.2664 347.902 43.442C348.622 44.6175 349.568 45.5793 350.741 46.3274C351.914 47.0755 353.381 47.4495 355.14 47.4495ZM375.617 54.583C375.617 56.2395 375.39 58.1363 374.937 60.2737C374.484 62.4111 373.511 64.4015 372.018 66.245C370.524 68.0885 368.365 69.6514 365.539 70.9338C362.712 72.2163 358.926 72.8575 354.181 72.8575C352.154 72.8575 350.088 72.6037 347.982 72.096C345.875 71.5884 343.956 70.8003 342.223 69.7316C340.49 68.6629 339.05 67.287 337.903 65.6038C336.757 63.9206 336.104 61.9035 335.944 59.5524H347.222C347.755 61.6897 348.795 63.1725 350.341 64.0008C351.888 64.829 353.674 65.2431 355.7 65.2431C358.9 65.2431 361.233 64.2813 362.699 62.3577C364.166 60.434 364.872 58.0028 364.819 55.0639V49.6136H364.659C363.432 51.8044 361.686 53.4208 359.42 54.4628C357.153 55.5047 354.767 56.0257 352.261 56.0257C349.168 56.0257 346.502 55.478 344.262 54.3826C342.023 53.2872 340.183 51.7911 338.743 49.8941C337.303 47.9972 336.25 45.7797 335.584 43.2416C334.917 40.7035 334.584 38.0184 334.584 35.1864C334.584 32.5147 334.971 29.9365 335.744 27.4518C336.517 24.9671 337.65 22.7763 339.143 20.8794C340.636 18.9825 342.489 17.473 344.702 16.3509C346.915 15.2287 349.461 14.6677 352.341 14.6677C355.06 14.6677 357.447 15.1753 359.5 16.1905C361.553 17.2058 363.272 18.9157 364.659 21.3202H364.819V15.7898H375.617V54.583ZM412.571 32.0605C412.038 29.175 411.091 26.9843 409.731 25.4881C408.371 23.9919 406.305 23.2439 403.532 23.2439C401.719 23.2439 400.213 23.5511 399.013 24.1656C397.813 24.7801 396.853 25.5415 396.134 26.4499C395.414 27.3583 394.907 28.3201 394.614 29.3354C394.321 30.3506 394.147 31.259 394.094 32.0605H412.571ZM394.094 39.2741C394.254 42.9611 395.187 45.6328 396.893 47.2892C398.6 48.9457 401.053 49.7739 404.252 49.7739C406.545 49.7739 408.518 49.1995 410.171 48.0507C411.824 46.9018 412.837 45.6862 413.211 44.4038H423.209C421.609 49.3732 419.156 52.9265 415.85 55.0639C412.544 57.2013 408.545 58.2699 403.852 58.2699C400.599 58.2699 397.667 57.749 395.054 56.707C392.441 55.665 390.228 54.1822 388.415 52.2586C386.602 50.335 385.202 48.0373 384.216 45.3656C383.229 42.6939 382.736 39.755 382.736 36.549C382.736 33.4498 383.242 30.5643 384.256 27.8926C385.269 25.2209 386.708 22.9099 388.575 20.9595C390.441 19.0092 392.667 17.473 395.254 16.3509C397.84 15.2287 400.706 14.6677 403.852 14.6677C407.372 14.6677 410.438 15.349 413.051 16.7115C415.664 18.0741 417.81 19.9042 419.49 22.2019C421.169 24.4996 422.382 27.1178 423.129 30.0567C423.876 32.9956 424.142 36.068 423.929 39.2741H394.094ZM2.47958 70.1323H42.6328V80.7123H15.0375V93.9372H38.9535V103.716H15.0375V127.36H2.47958V70.1323ZM87.5053 127.36H76.7071V121.589H76.4672C75.0274 123.994 73.1611 125.731 70.8681 126.799C68.5751 127.868 66.2289 128.402 63.8293 128.402C60.7898 128.402 58.2969 128.002 56.3506 127.2C54.4042 126.398 52.8711 125.263 51.7513 123.794C50.6315 122.324 49.845 120.534 49.3917 118.423C48.9385 116.313 48.7118 113.975 48.7118 111.41V85.9221H60.0699V109.326C60.0699 112.746 60.6032 115.298 61.6696 116.981C62.7361 118.664 64.6291 119.505 67.3487 119.505C70.4415 119.505 72.6811 118.584 74.0676 116.74C75.454 114.897 76.1472 111.864 76.1472 107.643V85.9221H87.5053V127.36ZM110.541 85.9221H118.86V93.5365H110.541V114.055C110.541 115.979 110.861 117.261 111.501 117.902C112.141 118.544 113.421 118.864 115.341 118.864C115.981 118.864 116.594 118.838 117.18 118.784C117.767 118.731 118.327 118.651 118.86 118.544V127.36C117.9 127.521 116.834 127.627 115.661 127.681C114.487 127.734 113.341 127.761 112.221 127.761C110.461 127.761 108.795 127.641 107.222 127.4C105.649 127.16 104.263 126.692 103.063 125.998C101.863 125.303 100.916 124.315 100.223 123.032C99.53 121.75 99.1834 120.067 99.1834 117.983V93.5365H92.3045V85.9221H99.1834V73.4987H110.541V85.9221ZM163.093 127.36H152.294V121.589H152.055C150.615 123.994 148.748 125.731 146.455 126.799C144.162 127.868 141.816 128.402 139.417 128.402C136.377 128.402 133.884 128.002 131.938 127.2C129.992 126.398 128.458 125.263 127.339 123.794C126.219 122.324 125.432 120.534 124.979 118.423C124.526 116.313 124.299 113.975 124.299 111.41V85.9221H135.657V109.326C135.657 112.746 136.19 115.298 137.257 116.981C138.323 118.664 140.216 119.505 142.936 119.505C146.029 119.505 148.268 118.584 149.655 116.74C151.041 114.897 151.735 111.864 151.735 107.643V85.9221H163.093V127.36ZM171.731 85.9221H182.529V93.6166H182.689C183.223 92.3342 183.942 91.1453 184.849 90.0499C185.756 88.9545 186.795 88.0194 187.968 87.2446C189.142 86.4698 190.395 85.8687 191.728 85.4412C193.061 85.0137 194.447 84.8 195.887 84.8C196.634 84.8 197.46 84.9336 198.367 85.2008V95.7807C197.833 95.6738 197.194 95.5803 196.447 95.5002C195.701 95.42 194.981 95.38 194.287 95.38C192.208 95.38 190.448 95.7273 189.008 96.4219C187.569 97.1166 186.409 98.065 185.529 99.2673C184.649 100.47 184.022 101.872 183.649 103.475C183.276 105.078 183.089 106.815 183.089 108.685V127.36H171.731V85.9221ZM229.242 102.193C228.708 99.3074 227.762 97.1166 226.402 95.6204C225.042 94.1243 222.976 93.3762 220.203 93.3762C218.39 93.3762 216.884 93.6834 215.684 94.2979C214.484 94.9124 213.524 95.6738 212.804 96.5822C212.084 97.4906 211.578 98.4524 211.285 99.4677C210.991 100.483 210.818 101.391 210.765 102.193H229.242ZM210.765 109.406C210.925 113.093 211.858 115.765 213.564 117.422C215.271 119.078 217.723 119.906 220.923 119.906C223.216 119.906 225.189 119.332 226.842 118.183C228.495 117.034 229.508 115.819 229.881 114.536H239.88C238.28 119.506 235.827 123.059 232.521 125.196C229.215 127.334 225.216 128.402 220.523 128.402C217.27 128.402 214.337 127.881 211.724 126.839C209.112 125.797 206.899 124.315 205.086 122.391C203.273 120.467 201.873 118.17 200.886 115.498C199.9 112.826 199.407 109.887 199.407 106.681C199.407 103.582 199.913 100.697 200.926 98.025C201.939 95.3532 203.379 93.0422 205.246 91.0919C207.112 89.1415 209.338 87.6053 211.924 86.4832C214.511 85.3611 217.377 84.8 220.523 84.8C224.042 84.8 227.109 85.4813 229.721 86.8439C232.334 88.2064 234.481 90.0365 236.16 92.3342C237.84 94.6319 239.053 97.2501 239.8 100.189C240.546 103.128 240.813 106.2 240.6 109.406H210.765ZM256.117 113.895C256.117 115.124 256.37 116.179 256.877 117.061C257.384 117.943 258.037 118.664 258.837 119.225C259.636 119.786 260.556 120.2 261.596 120.467C262.636 120.734 263.716 120.868 264.836 120.868C265.635 120.868 266.475 120.775 267.355 120.588C268.235 120.401 269.035 120.107 269.755 119.706C270.475 119.305 271.075 118.771 271.554 118.103C272.034 117.435 272.274 116.593 272.274 115.578C272.274 113.868 271.141 112.586 268.875 111.731C266.609 110.876 263.449 110.021 259.396 109.166C257.743 108.792 256.13 108.351 254.557 107.843C252.984 107.336 251.584 106.668 250.358 105.84C249.132 105.011 248.145 103.97 247.398 102.714C246.652 101.458 246.279 99.9219 246.279 98.1051C246.279 95.4334 246.799 93.2426 247.838 91.5327C248.878 89.8228 250.251 88.4736 251.958 87.4851C253.664 86.4965 255.584 85.8019 257.717 85.4011C259.85 85.0004 262.036 84.8 264.276 84.8C266.515 84.8 268.688 85.0137 270.795 85.4412C272.901 85.8687 274.781 86.59 276.434 87.6053C278.087 88.6205 279.46 89.9697 280.553 91.6529C281.646 93.3361 282.299 95.4601 282.513 98.025H271.714C271.554 95.8341 270.728 94.3514 269.235 93.5766C267.742 92.8018 265.982 92.4144 263.956 92.4144C263.316 92.4144 262.623 92.4544 261.876 92.5346C261.13 92.6147 260.45 92.7884 259.836 93.0556C259.223 93.3228 258.703 93.7101 258.277 94.2178C257.85 94.7254 257.637 95.4067 257.637 96.2616C257.637 97.2769 258.01 98.1051 258.757 98.7463C259.503 99.3875 260.476 99.9085 261.676 100.309C262.876 100.71 264.249 101.071 265.795 101.391C267.342 101.712 268.915 102.059 270.515 102.433C272.168 102.807 273.781 103.261 275.354 103.796C276.927 104.33 278.327 105.038 279.553 105.92C280.78 106.802 281.766 107.897 282.513 109.206C283.259 110.515 283.632 112.132 283.632 114.055C283.632 116.78 283.086 119.065 281.993 120.908C280.9 122.752 279.473 124.234 277.713 125.357C275.954 126.479 273.941 127.267 271.674 127.721C269.408 128.175 267.102 128.402 264.756 128.402C262.356 128.402 260.01 128.162 257.717 127.681C255.424 127.2 253.384 126.398 251.598 125.276C249.811 124.154 248.345 122.671 247.199 120.828C246.052 118.984 245.425 116.673 245.319 113.895H256.117ZM43.7527 191C41.513 193.886 39.0335 195.903 36.3139 197.052C33.5943 198.201 30.8482 198.775 28.0753 198.775C23.7027 198.775 19.77 198.014 16.2773 196.491C12.7845 194.968 9.83836 192.871 7.43875 190.199C5.03914 187.527 3.19947 184.388 1.91968 180.781C0.639886 177.174 0 173.287 0 169.119C0 164.844 0.639886 160.877 1.91968 157.217C3.19947 153.556 5.03914 150.364 7.43875 147.639C9.83836 144.913 12.7845 142.776 16.2773 141.226C19.77 139.677 23.7027 138.902 28.0753 138.902C31.0081 138.902 33.8477 139.343 36.5939 140.225C39.3401 141.106 41.8197 142.402 44.0326 144.112C46.2456 145.822 48.0719 147.932 49.5117 150.444C50.9515 152.955 51.8313 155.841 52.1512 159.1H40.1533C39.4067 155.894 37.967 153.49 35.834 151.887C33.701 150.284 31.1148 149.482 28.0753 149.482C25.2491 149.482 22.8495 150.03 20.8765 151.125C18.9035 152.221 17.3038 153.69 16.0773 155.533C14.8508 157.377 13.9577 159.474 13.3978 161.825C12.8378 164.176 12.5579 166.608 12.5579 169.119C12.5579 171.524 12.8378 173.861 13.3978 176.132C13.9577 178.403 14.8508 180.447 16.0773 182.264C17.3038 184.081 18.9035 185.537 20.8765 186.632C22.8495 187.728 25.2491 188.275 28.0753 188.275C32.2346 188.275 35.4474 187.22 37.7137 185.109C39.98 182.999 41.2997 179.94 41.673 175.932H29.0351V166.554H53.0311V197.493H45.0324L43.7527 191ZM61.9896 156.054H72.7878V163.749H72.9478C73.481 162.467 74.2009 161.278 75.1074 160.182C76.0139 159.087 77.0537 158.152 78.2269 157.377C79.4 156.602 80.6531 156.001 81.9862 155.574C83.3194 155.146 84.7058 154.932 86.1455 154.932C86.8921 154.932 87.7186 155.066 88.6251 155.333V165.913C88.0919 165.806 87.452 165.713 86.7054 165.633C85.9589 165.552 85.239 165.512 84.5458 165.512C82.4661 165.512 80.7065 165.86 79.2667 166.554C77.8269 167.249 76.6671 168.197 75.7873 169.4C74.9074 170.602 74.2809 172.005 73.9076 173.608C73.5343 175.211 73.3477 176.947 73.3477 178.817V197.493H61.9896V156.054ZM101.743 176.814C101.743 178.47 101.903 180.086 102.223 181.663C102.543 183.239 103.089 184.655 103.863 185.911C104.636 187.166 105.662 188.168 106.942 188.916C108.222 189.665 109.822 190.039 111.741 190.039C113.661 190.039 115.274 189.665 116.58 188.916C117.887 188.168 118.927 187.166 119.7 185.911C120.473 184.655 121.02 183.239 121.34 181.663C121.66 180.086 121.82 178.47 121.82 176.814C121.82 175.157 121.66 173.527 121.34 171.924C121.02 170.321 120.473 168.905 119.7 167.676C118.927 166.447 117.887 165.446 116.58 164.671C115.274 163.896 113.661 163.509 111.741 163.509C109.822 163.509 108.222 163.896 106.942 164.671C105.662 165.446 104.636 166.447 103.863 167.676C103.089 168.905 102.543 170.321 102.223 171.924C101.903 173.527 101.743 175.157 101.743 176.814ZM90.3848 176.814C90.3848 173.501 90.8914 170.495 91.9046 167.797C92.9177 165.098 94.3575 162.801 96.2239 160.904C98.0902 159.007 100.33 157.537 102.943 156.495C105.556 155.453 108.488 154.932 111.741 154.932C114.994 154.932 117.94 155.453 120.58 156.495C123.219 157.537 125.472 159.007 127.339 160.904C129.205 162.801 130.645 165.098 131.658 167.797C132.671 170.495 133.178 173.501 133.178 176.814C133.178 180.127 132.671 183.119 131.658 185.791C130.645 188.462 129.205 190.747 127.339 192.643C125.472 194.54 123.219 195.996 120.58 197.012C117.94 198.027 114.994 198.535 111.741 198.535C108.488 198.535 105.556 198.027 102.943 197.012C100.33 195.996 98.0902 194.54 96.2239 192.643C94.3575 190.747 92.9177 188.462 91.9046 185.791C90.8914 183.119 90.3848 180.127 90.3848 176.814ZM179.33 197.493H168.532V191.722H168.292C166.852 194.126 164.986 195.863 162.693 196.932C160.4 198 158.054 198.535 155.654 198.535C152.614 198.535 150.121 198.134 148.175 197.332C146.229 196.531 144.696 195.395 143.576 193.926C142.456 192.456 141.67 190.666 141.216 188.556C140.763 186.445 140.536 184.107 140.536 181.543V156.054H151.895V179.459C151.895 182.878 152.428 185.43 153.494 187.113C154.561 188.796 156.454 189.638 159.173 189.638C162.266 189.638 164.506 188.716 165.892 186.873C167.279 185.029 167.972 181.997 167.972 177.775V156.054H179.33V197.493ZM208.845 190.039C210.711 190.039 212.271 189.665 213.524 188.916C214.777 188.168 215.79 187.193 216.564 185.991C217.337 184.789 217.883 183.386 218.203 181.783C218.523 180.18 218.683 178.55 218.683 176.894C218.683 175.237 218.51 173.608 218.163 172.005C217.817 170.401 217.244 168.972 216.444 167.716C215.644 166.461 214.617 165.446 213.364 164.671C212.111 163.896 210.578 163.509 208.765 163.509C206.899 163.509 205.339 163.896 204.086 164.671C202.833 165.446 201.82 166.447 201.046 167.676C200.273 168.905 199.727 170.321 199.407 171.924C199.087 173.527 198.927 175.184 198.927 176.894C198.927 178.55 199.1 180.18 199.447 181.783C199.793 183.386 200.353 184.789 201.126 185.991C201.899 187.193 202.926 188.168 204.206 188.916C205.486 189.665 207.032 190.039 208.845 190.039ZM187.968 156.054H198.767V161.344H198.927C200.313 159.1 202.073 157.47 204.206 156.455C206.339 155.44 208.685 154.932 211.245 154.932C214.497 154.932 217.297 155.547 219.643 156.776C221.989 158.005 223.936 159.635 225.482 161.665C227.029 163.696 228.175 166.06 228.922 168.758C229.668 171.457 230.041 174.275 230.041 177.214C230.041 179.993 229.668 182.665 228.922 185.229C228.175 187.794 227.042 190.065 225.522 192.042C224.002 194.019 222.109 195.596 219.843 196.771C217.577 197.947 214.924 198.535 211.884 198.535C209.325 198.535 206.965 198.014 204.806 196.972C202.646 195.93 200.873 194.393 199.487 192.363H199.327V212H187.968V156.054Z" fill="black"/>
</svg>
